<svg width="174" height="247" viewBox="0 0 174 247" fill="none" xmlns="http://www.w3.org/2000/svg">
<g clip-path="url(#clip0_159_2210)">
<rect width="173.898" height="246.088" fill="#181A20"/>
<path fill-rule="evenodd" clip-rule="evenodd" d="M-2.04345 212.379L86.4144 123.921H-2.1743V122.46H86.2261L-9.0625 27.1714L-8.02918 26.138L87.2609 121.428L87.2609 -0.000488281H88.7222V121.614L178.433 31.9028L179.466 32.9362L89.9424 122.46H174.939V123.921H89.7541L182.994 217.161L181.96 218.194L88.7222 124.956V246.088H87.2608L87.2609 125.141L-1.01013 213.412L-2.04345 212.379Z" fill="#A6C3BA"/>
<path d="M86.4144 123.921L86.9311 124.438L88.1784 123.191H86.4144V123.921ZM-2.04345 212.379L-2.5601 211.862L-3.07676 212.379L-2.5601 212.896L-2.04345 212.379ZM-2.1743 123.921H-2.90497V124.652H-2.1743V123.921ZM-2.1743 122.46V121.729H-2.90497V122.46H-2.1743ZM86.2261 122.46V123.191H87.9901L86.7428 121.943L86.2261 122.46ZM-9.0625 27.1714L-9.57916 26.6547L-10.0958 27.1714L-9.57916 27.688L-9.0625 27.1714ZM-8.02918 26.138L-7.51252 25.6214L-8.02918 25.1047L-8.54584 25.6214L-8.02918 26.138ZM87.2609 121.428L86.7442 121.945L87.9915 123.192L87.9915 121.428L87.2609 121.428ZM87.2609 -0.000488281V-0.731154H86.5302L86.5302 -0.000488327L87.2609 -0.000488281ZM88.7222 -0.000488281H89.4528V-0.731154H88.7222V-0.000488281ZM88.7222 121.614H87.9915V123.378L89.2388 122.13L88.7222 121.614ZM178.433 31.9028L178.95 31.3862L178.433 30.8695L177.916 31.3862L178.433 31.9028ZM179.466 32.9362L179.983 33.4528L180.5 32.9362L179.983 32.4195L179.466 32.9362ZM89.9424 122.46L89.4257 121.943L88.1784 123.191H89.9424V122.46ZM174.939 122.46H175.67V121.729H174.939V122.46ZM174.939 123.921V124.652H175.67V123.921H174.939ZM89.7541 123.921V123.191H87.9901L89.2374 124.438L89.7541 123.921ZM182.994 217.161L183.51 217.678L184.027 217.161L183.51 216.644L182.994 217.161ZM181.96 218.194L181.444 218.711L181.96 219.228L182.477 218.711L181.96 218.194ZM88.7222 124.956L89.2388 124.439L87.9915 123.192V124.956H88.7222ZM88.7222 246.088V246.818H89.4528V246.088H88.7222ZM87.2608 246.088L86.5302 246.088L86.5302 246.818H87.2608V246.088ZM87.2609 125.141L87.9915 125.141L87.9915 123.378L86.7442 124.625L87.2609 125.141ZM-1.01013 213.412L-1.52678 213.929L-1.01013 214.446L-0.493469 213.929L-1.01013 213.412ZM85.8978 123.405L-2.5601 211.862L-1.52679 212.896L86.9311 124.438L85.8978 123.405ZM-2.1743 124.652H86.4144V123.191H-2.1743V124.652ZM-2.90497 122.46V123.921H-1.44364V122.46H-2.90497ZM86.2261 121.729H-2.1743V123.191H86.2261V121.729ZM-9.57916 27.688L85.7094 122.977L86.7428 121.943L-8.54584 26.6547L-9.57916 27.688ZM-8.54584 25.6214L-9.57916 26.6547L-8.54584 27.688L-7.51252 26.6547L-8.54584 25.6214ZM87.7775 120.911L-7.51252 25.6214L-8.54584 26.6547L86.7442 121.945L87.7775 120.911ZM86.5302 -0.000488327L86.5302 121.428L87.9915 121.428L87.9915 -0.000488235L86.5302 -0.000488327ZM88.7222 -0.731154H87.2609V0.730177H88.7222V-0.731154ZM89.4528 121.614V-0.000488281H87.9915V121.614H89.4528ZM177.916 31.3862L88.2055 121.097L89.2388 122.13L178.95 32.4195L177.916 31.3862ZM179.983 32.4195L178.95 31.3862L177.916 32.4195L178.95 33.4528L179.983 32.4195ZM90.459 122.977L179.983 33.4528L178.95 32.4195L89.4257 121.943L90.459 122.977ZM174.939 121.729H89.9424V123.191H174.939V121.729ZM175.67 123.921V122.46H174.208V123.921H175.67ZM89.7541 124.652H174.939V123.191H89.7541V124.652ZM183.51 216.644L90.2707 123.405L89.2374 124.438L182.477 217.678L183.51 216.644ZM182.477 218.711L183.51 217.678L182.477 216.644L181.444 217.678L182.477 218.711ZM88.2055 125.473L181.444 218.711L182.477 217.678L89.2388 124.439L88.2055 125.473ZM89.4528 246.088V124.956H87.9915V246.088H89.4528ZM87.2608 246.818H88.7222V245.357H87.2608V246.818ZM86.5302 125.141L86.5302 246.088L87.9915 246.088L87.9915 125.141L86.5302 125.141ZM-0.493469 213.929L87.7775 125.658L86.7442 124.625L-1.52679 212.896L-0.493469 213.929ZM-2.5601 212.896L-1.52678 213.929L-0.493471 212.896L-1.52679 211.862L-2.5601 212.896Z" fill="#A6C3BA"/>
<path fill-rule="evenodd" clip-rule="evenodd" d="M36.3149 246.448L86.7279 124.741L-2.79186 161.821L-3.35108 160.471L86.0753 123.429L-1.82985 87.0176L-1.27062 85.6676L86.6325 122.078L34.2402 -4.40799L35.5903 -4.96721L88.0225 121.615L141.137 -6.61496L142.487 -6.05573L89.4281 122.04L184.214 82.7788L184.773 84.1289L89.8939 123.429L179.665 160.613L179.105 161.963L89.3327 124.778L139.99 247.077L138.64 247.636L88.0225 125.434L37.665 247.008L36.3149 246.448Z" fill="#A6C3BA"/>
<path d="M86.7279 124.741L87.403 125.02L88.078 123.39L86.4483 124.066L86.7279 124.741ZM36.3149 246.448L35.6399 246.169L35.3603 246.844L36.0353 247.123L36.3149 246.448ZM-2.79186 161.821L-3.4669 162.1L-3.18729 162.776L-2.51224 162.496L-2.79186 161.821ZM-3.35108 160.471L-3.6307 159.796L-4.30575 160.075L-4.02613 160.75L-3.35108 160.471ZM86.0753 123.429L86.3549 124.104L87.9846 123.429L86.3549 122.754L86.0753 123.429ZM-1.82985 87.0176L-2.5049 86.738L-2.78451 87.4131L-2.10946 87.6927L-1.82985 87.0176ZM-1.27062 85.6676L-0.991008 84.9925L-1.66606 84.7129L-1.94567 85.3879L-1.27062 85.6676ZM86.6325 122.078L86.3529 122.753L87.9826 123.428L87.3076 121.799L86.6325 122.078ZM34.2402 -4.40799L33.9606 -5.08303L33.2856 -4.80342L33.5652 -4.12837L34.2402 -4.40799ZM35.5903 -4.96721L36.2654 -5.24683L35.9858 -5.92187L35.3107 -5.64226L35.5903 -4.96721ZM88.0225 121.615L87.3474 121.895L88.0225 123.525L88.6975 121.895L88.0225 121.615ZM141.137 -6.61496L141.417 -7.29001L140.742 -7.56962L140.462 -6.89457L141.137 -6.61496ZM142.487 -6.05573L143.162 -5.77612L143.442 -6.45116L142.767 -6.73078L142.487 -6.05573ZM89.4281 122.04L88.7531 121.761L88.078 123.39L89.7077 122.715L89.4281 122.04ZM184.214 82.7788L184.889 82.4992L184.609 81.8241L183.934 82.1037L184.214 82.7788ZM184.773 84.1289L185.053 84.8039L185.728 84.5243L185.448 83.8493L184.773 84.1289ZM89.8939 123.429L89.6143 122.754L87.9846 123.429L89.6143 124.104L89.8939 123.429ZM179.665 160.613L180.34 160.893L180.619 160.218L179.944 159.938L179.665 160.613ZM179.105 161.963L178.826 162.638L179.501 162.918L179.78 162.243L179.105 161.963ZM89.3327 124.778L89.6123 124.103L87.9826 123.428L88.6577 125.058L89.3327 124.778ZM139.99 247.077L140.27 247.752L140.945 247.472L140.665 246.797L139.99 247.077ZM138.64 247.636L137.965 247.916L138.245 248.591L138.92 248.311L138.64 247.636ZM88.0225 125.434L88.6975 125.154L88.0225 123.525L87.3474 125.154L88.0225 125.434ZM37.665 247.008L37.3854 247.683L38.0605 247.962L38.3401 247.287L37.665 247.008ZM86.0529 124.461L35.6399 246.169L36.99 246.728L87.403 125.02L86.0529 124.461ZM-2.51224 162.496L87.0076 125.416L86.4483 124.066L-3.07147 161.146L-2.51224 162.496ZM-4.02613 160.75L-3.4669 162.1L-2.11681 161.541L-2.67604 160.191L-4.02613 160.75ZM85.7957 122.754L-3.6307 159.796L-3.07147 161.146L86.3549 124.104L85.7957 122.754ZM-2.10946 87.6927L85.7957 124.104L86.3549 122.754L-1.55024 86.3426L-2.10946 87.6927ZM-1.94567 85.3879L-2.5049 86.738L-1.1548 87.2973L-0.595575 85.9472L-1.94567 85.3879ZM86.9121 121.403L-0.991008 84.9925L-1.55024 86.3426L86.3529 122.753L86.9121 121.403ZM33.5652 -4.12837L85.9575 122.358L87.3076 121.799L34.9153 -4.6876L33.5652 -4.12837ZM35.3107 -5.64226L33.9606 -5.08303L34.5198 -3.73294L35.8699 -4.29217L35.3107 -5.64226ZM88.6975 121.336L36.2654 -5.24683L34.9153 -4.6876L87.3474 121.895L88.6975 121.336ZM140.462 -6.89457L87.3474 121.336L88.6975 121.895L141.812 -6.33535L140.462 -6.89457ZM142.767 -6.73078L141.417 -7.29001L140.858 -5.93991L142.208 -5.38068L142.767 -6.73078ZM90.1032 122.32L143.162 -5.77612L141.812 -6.33534L88.7531 121.761L90.1032 122.32ZM183.934 82.1037L89.1485 121.365L89.7077 122.715L184.494 83.4538L183.934 82.1037ZM185.448 83.8493L184.889 82.4992L183.539 83.0584L184.098 84.4085L185.448 83.8493ZM90.1736 124.104L185.053 84.8039L184.494 83.4538L89.6143 122.754L90.1736 124.104ZM179.944 159.938L90.1736 122.754L89.6143 124.104L179.385 161.288L179.944 159.938ZM179.78 162.243L180.34 160.893L178.989 160.334L178.43 161.684L179.78 162.243ZM89.0531 125.453L178.826 162.638L179.385 161.288L89.6123 124.103L89.0531 125.453ZM140.665 246.797L90.0078 124.499L88.6577 125.058L139.315 247.357L140.665 246.797ZM138.92 248.311L140.27 247.752L139.711 246.402L138.361 246.961L138.92 248.311ZM87.3474 125.713L137.965 247.916L139.315 247.357L88.6975 125.154L87.3474 125.713ZM38.3401 247.287L88.6975 125.713L87.3474 125.154L36.99 246.728L38.3401 247.287ZM36.0353 247.123L37.3854 247.683L37.9446 246.332L36.5945 245.773L36.0353 247.123Z" fill="#A6C3BA"/>
<path fill-rule="evenodd" clip-rule="evenodd" d="M86.8062 -15.7815L86.8062 277.752L89.6738 280.048L89.6738 -13.4852L86.8062 -15.7815Z" fill="#E0F416"/>
</g>
<defs>
<clipPath id="clip0_159_2210">
<rect width="173.898" height="246.088" fill="white"/>
</clipPath>
</defs>
</svg>
