<svg width="175" height="247" viewBox="0 0 175 247" fill="none" xmlns="http://www.w3.org/2000/svg">
<g clip-path="url(#clip0_159_2224)">
<rect width="173.898" height="246.088" transform="translate(0.728516)" fill="#181A20"/>
<path fill-rule="evenodd" clip-rule="evenodd" d="M-4.23485 215.303L84.2245 126.844H-4.23876V125.383H84.0381L-11.252 30.0925L-10.2186 29.0592L85.1944 124.472L85.1945 -0.292725H86.6558L86.6558 124.413L176.241 34.8269L177.275 35.8602L87.7524 125.383H174.044V126.844H87.5661L180.804 220.082L179.771 221.115L86.6558 128V249.01H85.1944L85.1944 127.941L-3.20153 216.337L-4.23485 215.303Z" fill="#A6C3BA"/>
<path d="M84.2245 126.844L84.7411 127.361L85.9885 126.113H84.2245V126.844ZM-4.23485 215.303L-4.75151 214.787L-5.26817 215.303L-4.75151 215.82L-4.23485 215.303ZM-4.23876 126.844H-4.96942V127.575H-4.23876V126.844ZM-4.23876 125.383V124.652H-4.96942V125.383H-4.23876ZM84.0381 125.383V126.113H85.8021L84.5548 124.866L84.0381 125.383ZM-11.252 30.0925L-11.7686 29.5758L-12.2853 30.0925L-11.7686 30.6092L-11.252 30.0925ZM-10.2186 29.0592L-9.70198 28.5425L-10.2186 28.0259L-10.7353 28.5425L-10.2186 29.0592ZM85.1944 124.472L84.6778 124.989L85.9251 126.236L85.9251 124.472L85.1944 124.472ZM85.1945 -0.292725V-1.02339H84.4638L84.4638 -0.292725L85.1945 -0.292725ZM86.6558 -0.292725L87.3864 -0.292725L87.3864 -1.02339H86.6558V-0.292725ZM86.6558 124.413L85.9251 124.413L85.9251 126.177L87.1724 124.929L86.6558 124.413ZM176.241 34.8269L176.758 34.3102L176.241 33.7936L175.725 34.3102L176.241 34.8269ZM177.275 35.8602L177.791 36.3769L178.308 35.8602L177.791 35.3436L177.275 35.8602ZM87.7524 125.383L87.2358 124.866L85.9885 126.113H87.7524V125.383ZM174.044 125.383H174.774V124.652H174.044V125.383ZM174.044 126.844V127.575H174.774V126.844H174.044ZM87.5661 126.844V126.113H85.8021L87.0494 127.361L87.5661 126.844ZM180.804 220.082L181.321 220.599L181.838 220.082L181.321 219.565L180.804 220.082ZM179.771 221.115L179.254 221.632L179.771 222.149L180.288 221.632L179.771 221.115ZM86.6558 128L87.1724 127.484L85.9251 126.236V128H86.6558ZM86.6558 249.01V249.741H87.3864V249.01H86.6558ZM85.1944 249.01L84.4638 249.01L84.4638 249.741H85.1944V249.01ZM85.1944 127.941L85.9251 127.941L85.9251 126.177L84.6778 127.424L85.1944 127.941ZM-3.20153 216.337L-3.71819 216.853L-3.20153 217.37L-2.68488 216.853L-3.20153 216.337ZM83.7078 126.327L-4.75151 214.787L-3.71819 215.82L84.7411 127.361L83.7078 126.327ZM-4.23876 127.575H84.2245V126.113H-4.23876V127.575ZM-4.96942 125.383V126.844H-3.50809V125.383H-4.96942ZM84.0381 124.652H-4.23876V126.113H84.0381V124.652ZM-11.7686 30.6092L83.5215 125.899L84.5548 124.866L-10.7353 29.5758L-11.7686 30.6092ZM-10.7353 28.5425L-11.7686 29.5758L-10.7353 30.6092L-9.70198 29.5758L-10.7353 28.5425ZM85.7111 123.956L-9.70198 28.5425L-10.7353 29.5758L84.6778 124.989L85.7111 123.956ZM84.4638 -0.292725L84.4638 124.472L85.9251 124.472L85.9251 -0.292725L84.4638 -0.292725ZM86.6558 -1.02339H85.1945V0.437941H86.6558V-1.02339ZM87.3864 124.413L87.3864 -0.292725L85.9251 -0.292725L85.9251 124.413L87.3864 124.413ZM175.725 34.3102L86.1391 123.896L87.1724 124.929L176.758 35.3436L175.725 34.3102ZM177.791 35.3436L176.758 34.3102L175.725 35.3436L176.758 36.3769L177.791 35.3436ZM88.2691 125.899L177.791 36.3769L176.758 35.3436L87.2358 124.866L88.2691 125.899ZM174.044 124.652H87.7524V126.113H174.044V124.652ZM174.774 126.844V125.383H173.313V126.844H174.774ZM87.5661 127.575H174.044V126.113H87.5661V127.575ZM181.321 219.565L88.0827 126.327L87.0494 127.361L180.288 220.599L181.321 219.565ZM180.288 221.632L181.321 220.599L180.288 219.565L179.254 220.599L180.288 221.632ZM86.1391 128.517L179.254 221.632L180.288 220.599L87.1724 127.484L86.1391 128.517ZM87.3864 249.01V128H85.9251V249.01H87.3864ZM85.1944 249.741H86.6558V248.28H85.1944V249.741ZM84.4638 127.941L84.4638 249.01L85.9251 249.01L85.9251 127.941L84.4638 127.941ZM-2.68488 216.853L85.7111 128.457L84.6778 127.424L-3.71819 215.82L-2.68488 216.853ZM-4.75151 215.82L-3.71819 216.853L-2.68488 215.82L-3.7182 214.787L-4.75151 215.82Z" fill="#A6C3BA"/>
<path fill-rule="evenodd" clip-rule="evenodd" d="M34.1128 249.373L84.5277 127.66L-4.9998 164.744L-5.55903 163.394L83.8681 126.352L-4.03389 89.9417L-3.47466 88.5916L84.4285 125.002L32.0362 -1.48393L33.3863 -2.04316L85.8195 124.542L138.935 -3.69066L140.285 -3.13143L87.2279 124.96L182.006 85.7019L182.565 87.052L87.6868 126.352L177.46 163.537L176.901 164.887L87.1287 127.702L137.786 250.001L136.436 250.56L85.8195 128.36L35.4629 249.932L34.1128 249.373Z" fill="#A6C3BA"/>
<path d="M84.5277 127.66L85.2027 127.94L85.8778 126.31L84.2481 126.985L84.5277 127.66ZM34.1128 249.373L33.4378 249.093L33.1582 249.768L33.8332 250.048L34.1128 249.373ZM-4.9998 164.744L-5.67485 165.024L-5.39524 165.699L-4.72019 165.419L-4.9998 164.744ZM-5.55903 163.394L-5.83865 162.719L-6.51369 162.998L-6.23408 163.673L-5.55903 163.394ZM83.8681 126.352L84.1477 127.027L85.7775 126.352L84.1477 125.677L83.8681 126.352ZM-4.03389 89.9417L-4.70894 89.6621L-4.98855 90.3371L-4.31351 90.6167L-4.03389 89.9417ZM-3.47466 88.5916L-3.19505 87.9166L-3.8701 87.6369L-4.14971 88.312L-3.47466 88.5916ZM84.4285 125.002L84.1489 125.677L85.7786 126.352L85.1035 124.723L84.4285 125.002ZM32.0362 -1.48393L31.7566 -2.15898L31.0815 -1.87936L31.3611 -1.20432L32.0362 -1.48393ZM33.3863 -2.04316L34.0613 -2.32277L33.7817 -2.99782L33.1067 -2.71821L33.3863 -2.04316ZM85.8195 124.542L85.1444 124.821L85.8195 126.451L86.4945 124.821L85.8195 124.542ZM138.935 -3.69066L139.215 -4.3657L138.54 -4.64532L138.26 -3.97027L138.935 -3.69066ZM140.285 -3.13143L140.96 -2.85181L141.24 -3.52686L140.565 -3.80647L140.285 -3.13143ZM87.2279 124.96L86.5528 124.681L85.8778 126.31L87.5075 125.635L87.2279 124.96ZM182.006 85.7019L182.681 85.4222L182.401 84.7472L181.726 85.0268L182.006 85.7019ZM182.565 87.052L182.845 87.727L183.52 87.4474L183.24 86.7723L182.565 87.052ZM87.6868 126.352L87.4072 125.677L85.7774 126.352L87.4072 127.027L87.6868 126.352ZM177.46 163.537L178.136 163.817L178.415 163.142L177.74 162.862L177.46 163.537ZM176.901 164.887L176.622 165.563L177.297 165.842L177.576 165.167L176.901 164.887ZM87.1287 127.702L87.4083 127.027L85.7786 126.352L86.4536 127.982L87.1287 127.702ZM137.786 250.001L138.066 250.676L138.741 250.396L138.461 249.721L137.786 250.001ZM136.436 250.56L135.761 250.84L136.041 251.515L136.716 251.235L136.436 250.56ZM85.8195 128.36L86.4945 128.081L85.8195 126.451L85.1444 128.081L85.8195 128.36ZM35.4629 249.932L35.1833 250.607L35.8584 250.886L36.138 250.211L35.4629 249.932ZM83.8526 127.381L33.4378 249.093L34.7879 249.652L85.2027 127.94L83.8526 127.381ZM-4.72019 165.419L84.8073 128.335L84.2481 126.985L-5.27942 164.069L-4.72019 165.419ZM-6.23408 163.673L-5.67485 165.024L-4.32476 164.464L-4.88399 163.114L-6.23408 163.673ZM83.5885 125.677L-5.83865 162.719L-5.27942 164.069L84.1477 127.027L83.5885 125.677ZM-4.31351 90.6167L83.5885 127.027L84.1477 125.677L-3.75428 89.2667L-4.31351 90.6167ZM-4.14971 88.312L-4.70894 89.6621L-3.35884 90.2213L-2.79962 88.8712L-4.14971 88.312ZM84.7081 124.327L-3.19505 87.9166L-3.75428 89.2667L84.1489 125.677L84.7081 124.327ZM31.3611 -1.20432L83.7534 125.282L85.1035 124.723L32.7112 -1.76354L31.3611 -1.20432ZM33.1067 -2.71821L31.7566 -2.15898L32.3158 -0.808884L33.6659 -1.36811L33.1067 -2.71821ZM86.4945 124.262L34.0613 -2.32277L32.7112 -1.76355L85.1444 124.821L86.4945 124.262ZM138.26 -3.97027L85.1444 124.262L86.4945 124.821L139.61 -3.41104L138.26 -3.97027ZM140.565 -3.80647L139.215 -4.3657L138.655 -3.01561L140.006 -2.45638L140.565 -3.80647ZM87.9029 125.24L140.96 -2.85181L139.61 -3.41104L86.5528 124.681L87.9029 125.24ZM181.726 85.0268L86.9483 124.285L87.5075 125.635L182.286 86.3769L181.726 85.0268ZM183.24 86.7723L182.681 85.4222L181.331 85.9815L181.89 87.3316L183.24 86.7723ZM87.9664 127.027L182.845 87.727L182.286 86.3769L87.4072 125.677L87.9664 127.027ZM177.74 162.862L87.9664 125.677L87.4072 127.027L177.181 164.212L177.74 162.862ZM177.576 165.167L178.136 163.817L176.785 163.258L176.226 164.608L177.576 165.167ZM86.8491 128.378L176.622 165.563L177.181 164.212L87.4083 127.027L86.8491 128.378ZM138.461 249.721L87.8037 127.423L86.4536 127.982L137.111 250.281L138.461 249.721ZM136.716 251.235L138.066 250.676L137.507 249.326L136.157 249.885L136.716 251.235ZM85.1444 128.64L135.761 250.84L137.111 250.281L86.4945 128.081L85.1444 128.64ZM36.138 250.211L86.4945 128.64L85.1444 128.081L34.7879 249.652L36.138 250.211ZM33.8332 250.048L35.1833 250.607L35.7425 249.257L34.3925 248.698L33.8332 250.048Z" fill="#A6C3BA"/>
<path fill-rule="evenodd" clip-rule="evenodd" d="M138.709 -5.55288L18.2667 286.682L20.043 289.897L140.485 -2.33718L138.709 -5.55288Z" fill="#E0F416"/>
</g>
<defs>
<clipPath id="clip0_159_2224">
<rect width="173.898" height="246.088" fill="white" transform="translate(0.728516)"/>
</clipPath>
</defs>
</svg>
