<svg width="175" height="247" viewBox="0 0 175 247" fill="none" xmlns="http://www.w3.org/2000/svg">
<g clip-path="url(#clip0_159_2239)">
<rect width="173.898" height="246.088" transform="translate(0.644531)" fill="#181A20"/>
<path fill-rule="evenodd" clip-rule="evenodd" d="M-4.31688 215.304L84.1424 126.845H-4.32274V125.383H83.9563L-11.334 30.093L-10.3007 29.0597L85.1124 124.473L85.1124 -0.291992H86.5737L86.5737 124.413L176.159 34.8276L177.193 35.861L87.6704 125.383H173.96V126.845H87.4843L180.722 220.083L179.689 221.116L86.5737 128.001V249.011H85.1124L85.1124 127.941L-3.28357 216.337L-4.31688 215.304Z" fill="#A6C3BA"/>
<path d="M84.1424 126.845L84.6591 127.361L85.9064 126.114H84.1424V126.845ZM-4.31688 215.304L-4.83354 214.787L-5.3502 215.304L-4.83354 215.821L-4.31688 215.304ZM-4.32274 126.845H-5.05341V127.575H-4.32274V126.845ZM-4.32274 125.383V124.653H-5.05341V125.383H-4.32274ZM83.9563 125.383V126.114H85.7203L84.473 124.867L83.9563 125.383ZM-11.334 30.093L-11.8506 29.5763L-12.3673 30.093L-11.8506 30.6097L-11.334 30.093ZM-10.3007 29.0597L-9.78401 28.543L-10.3007 28.0264L-10.8173 28.543L-10.3007 29.0597ZM85.1124 124.473L84.5958 124.989L85.8431 126.237L85.8431 124.473L85.1124 124.473ZM85.1124 -0.291992V-1.02266H84.3818L84.3818 -0.291992L85.1124 -0.291992ZM86.5737 -0.291992L87.3044 -0.291992L87.3044 -1.02266H86.5737V-0.291992ZM86.5737 124.413L85.8431 124.413L85.8431 126.177L87.0904 124.93L86.5737 124.413ZM176.159 34.8276L176.676 34.311L176.159 33.7943L175.643 34.311L176.159 34.8276ZM177.193 35.861L177.709 36.3776L178.226 35.861L177.709 35.3443L177.193 35.861ZM87.6704 125.383L87.1537 124.867L85.9064 126.114H87.6704V125.383ZM173.96 125.383H174.69V124.653H173.96V125.383ZM173.96 126.845V127.575H174.69V126.845H173.96ZM87.4843 126.845V126.114H85.7203L86.9676 127.361L87.4843 126.845ZM180.722 220.083L181.239 220.599L181.755 220.083L181.239 219.566L180.722 220.083ZM179.689 221.116L179.172 221.632L179.689 222.149L180.206 221.632L179.689 221.116ZM86.5737 128.001L87.0904 127.484L85.8431 126.237V128.001H86.5737ZM86.5737 249.011V249.742H87.3044V249.011H86.5737ZM85.1124 249.011L84.3817 249.011L84.3817 249.742H85.1124V249.011ZM85.1124 127.941L85.8431 127.941L85.8431 126.177L84.5958 127.425L85.1124 127.941ZM-3.28357 216.337L-3.80022 216.854L-3.28356 217.371L-2.76691 216.854L-3.28357 216.337ZM83.6258 126.328L-4.83354 214.787L-3.80022 215.821L84.6591 127.361L83.6258 126.328ZM-4.32274 127.575H84.1424V126.114H-4.32274V127.575ZM-5.05341 125.383V126.845H-3.59208V125.383H-5.05341ZM83.9563 124.653H-4.32274V126.114H83.9563V124.653ZM-11.8506 30.6097L83.4397 125.9L84.473 124.867L-10.8173 29.5763L-11.8506 30.6097ZM-10.8173 28.543L-11.8506 29.5763L-10.8173 30.6097L-9.78401 29.5763L-10.8173 28.543ZM85.6291 123.956L-9.78401 28.543L-10.8173 29.5763L84.5958 124.989L85.6291 123.956ZM84.3818 -0.291992L84.3818 124.473L85.8431 124.473L85.8431 -0.291992L84.3818 -0.291992ZM86.5737 -1.02266H85.1124V0.438673H86.5737V-1.02266ZM87.3044 124.413L87.3044 -0.291992L85.8431 -0.291992L85.8431 124.413L87.3044 124.413ZM175.643 34.311L86.0571 123.897L87.0904 124.93L176.676 35.3443L175.643 34.311ZM177.709 35.3443L176.676 34.311L175.643 35.3443L176.676 36.3776L177.709 35.3443ZM88.1871 125.9L177.709 36.3776L176.676 35.3443L87.1537 124.867L88.1871 125.9ZM173.96 124.653H87.6704V126.114H173.96V124.653ZM174.69 126.845V125.383H173.229V126.845H174.69ZM87.4843 127.575H173.96V126.114H87.4843V127.575ZM181.239 219.566L88.0009 126.328L86.9676 127.361L180.206 220.599L181.239 219.566ZM180.206 221.632L181.239 220.599L180.206 219.566L179.172 220.599L180.206 221.632ZM86.0571 128.517L179.172 221.632L180.206 220.599L87.0904 127.484L86.0571 128.517ZM87.3044 249.011V128.001H85.8431V249.011H87.3044ZM85.1124 249.742H86.5737V248.281H85.1124V249.742ZM84.3818 127.941L84.3817 249.011L85.8431 249.011L85.8431 127.941L84.3818 127.941ZM-2.76691 216.854L85.6291 128.458L84.5958 127.425L-3.80022 215.821L-2.76691 216.854ZM-4.83354 215.821L-3.80022 216.854L-2.76691 215.821L-3.80023 214.787L-4.83354 215.821Z" fill="#A6C3BA"/>
<path fill-rule="evenodd" clip-rule="evenodd" d="M34.0311 249.372L84.4456 127.66L-5.0796 164.743L-5.63882 163.393L83.7874 126.351L-4.11563 89.9404L-3.55641 88.5903L84.3467 125.001L31.9544 -1.48519L33.3045 -2.04442L85.7378 124.541L138.853 -3.69168L140.203 -3.13246L87.1458 124.96L181.926 85.7006L182.485 87.0507L87.606 126.351L177.379 163.536L176.82 164.886L87.0469 127.701L137.705 250L136.355 250.559L85.7378 128.359L35.3812 249.931L34.0311 249.372Z" fill="#A6C3BA"/>
<path d="M84.4456 127.66L85.1207 127.94L85.7957 126.31L84.166 126.985L84.4456 127.66ZM34.0311 249.372L33.356 249.092L33.0764 249.767L33.7515 250.047L34.0311 249.372ZM-5.0796 164.743L-5.75464 165.022L-5.47503 165.697L-4.79998 165.418L-5.0796 164.743ZM-5.63882 163.393L-5.91844 162.718L-6.59349 162.997L-6.31387 163.672L-5.63882 163.393ZM83.7874 126.351L84.067 127.026L85.6967 126.351L84.067 125.676L83.7874 126.351ZM-4.11563 89.9404L-4.79068 89.6608L-5.07029 90.3359L-4.39525 90.6155L-4.11563 89.9404ZM-3.55641 88.5903L-3.27679 87.9153L-3.95184 87.6357L-4.23145 88.3107L-3.55641 88.5903ZM84.3467 125.001L84.0671 125.676L85.6968 126.351L85.0218 124.721L84.3467 125.001ZM31.9544 -1.48519L31.6748 -2.16024L30.9998 -1.88063L31.2794 -1.20558L31.9544 -1.48519ZM33.3045 -2.04442L33.9796 -2.32403L33.7 -2.99908L33.0249 -2.71947L33.3045 -2.04442ZM85.7378 124.541L85.0627 124.82L85.7378 126.45L86.4128 124.82L85.7378 124.541ZM138.853 -3.69168L139.133 -4.36673L138.458 -4.64634L138.178 -3.9713L138.853 -3.69168ZM140.203 -3.13246L140.878 -2.85285L141.158 -3.52789L140.483 -3.80751L140.203 -3.13246ZM87.1458 124.96L86.4708 124.68L85.7957 126.31L87.4254 125.635L87.1458 124.96ZM181.926 85.7006L182.601 85.421L182.322 84.7459L181.647 85.0255L181.926 85.7006ZM182.485 87.0507L182.765 87.7257L183.44 87.4461L183.16 86.7711L182.485 87.0507ZM87.606 126.351L87.3264 125.676L85.6967 126.351L87.3264 127.026L87.606 126.351ZM177.379 163.536L178.054 163.816L178.333 163.141L177.658 162.861L177.379 163.536ZM176.82 164.886L176.54 165.561L177.215 165.841L177.495 165.166L176.82 164.886ZM87.0469 127.701L87.3265 127.026L85.6968 126.351L86.3719 127.981L87.0469 127.701ZM137.705 250L137.984 250.675L138.659 250.395L138.38 249.72L137.705 250ZM136.355 250.559L135.68 250.839L135.959 251.514L136.634 251.234L136.355 250.559ZM85.7378 128.359L86.4128 128.08L85.7378 126.45L85.0627 128.08L85.7378 128.359ZM35.3812 249.931L35.1016 250.606L35.7766 250.885L36.0562 250.21L35.3812 249.931ZM83.7706 127.381L33.356 249.092L34.7061 249.651L85.1207 127.94L83.7706 127.381ZM-4.79998 165.418L84.7252 128.335L84.166 126.985L-5.35921 164.068L-4.79998 165.418ZM-6.31387 163.672L-5.75464 165.022L-4.40455 164.463L-4.96378 163.113L-6.31387 163.672ZM83.5078 125.676L-5.91844 162.718L-5.35921 164.068L84.067 127.026L83.5078 125.676ZM-4.39525 90.6155L83.5078 127.026L84.067 125.676L-3.83602 89.2654L-4.39525 90.6155ZM-4.23145 88.3107L-4.79068 89.6608L-3.44059 90.2201L-2.88136 88.87L-4.23145 88.3107ZM84.6263 124.326L-3.27679 87.9153L-3.83602 89.2654L84.0671 125.676L84.6263 124.326ZM31.2794 -1.20558L83.6717 125.281L85.0218 124.721L32.6295 -1.76481L31.2794 -1.20558ZM33.0249 -2.71947L31.6748 -2.16024L32.2341 -0.810145L33.5841 -1.36937L33.0249 -2.71947ZM86.4128 124.261L33.9796 -2.32403L32.6295 -1.76481L85.0627 124.82L86.4128 124.261ZM138.178 -3.9713L85.0627 124.261L86.4128 124.82L139.528 -3.41207L138.178 -3.9713ZM140.483 -3.80751L139.133 -4.36673L138.574 -3.01664L139.924 -2.45741L140.483 -3.80751ZM87.8209 125.24L140.878 -2.85285L139.528 -3.41207L86.4708 124.68L87.8209 125.24ZM181.647 85.0255L86.8662 124.285L87.4254 125.635L182.206 86.3756L181.647 85.0255ZM183.16 86.7711L182.601 85.421L181.251 85.9802L181.81 87.3303L183.16 86.7711ZM87.8856 127.026L182.765 87.7257L182.206 86.3756L87.3264 125.676L87.8856 127.026ZM177.658 162.861L87.8856 125.676L87.3264 127.026L177.099 164.211L177.658 162.861ZM177.495 165.166L178.054 163.816L176.704 163.257L176.144 164.607L177.495 165.166ZM86.7673 128.376L176.54 165.561L177.099 164.211L87.3265 127.026L86.7673 128.376ZM138.38 249.72L87.722 127.422L86.3719 127.981L137.03 250.279L138.38 249.72ZM136.634 251.234L137.984 250.675L137.425 249.325L136.075 249.884L136.634 251.234ZM85.0627 128.639L135.68 250.839L137.03 250.279L86.4128 128.08L85.0627 128.639ZM36.0562 250.21L86.4128 128.639L85.0627 128.08L34.7061 249.651L36.0562 250.21ZM33.7515 250.047L35.1016 250.606L35.6608 249.256L34.3107 248.697L33.7515 250.047Z" fill="#A6C3BA"/>
<path fill-rule="evenodd" clip-rule="evenodd" d="M199.238 14.9003L-24.2652 238.403L-28.2695 237.96L195.233 14.4572L199.238 14.9003Z" fill="#E0F416"/>
</g>
<defs>
<clipPath id="clip0_159_2239">
<rect width="173.898" height="246.088" fill="white" transform="translate(0.644531)"/>
</clipPath>
</defs>
</svg>
