<svg width="175" height="247" viewBox="0 0 175 247" fill="none" xmlns="http://www.w3.org/2000/svg">
<g clip-path="url(#clip0_159_2254)">
<rect width="173.898" height="246.088" transform="translate(0.457031)" fill="#181A20"/>
<path fill-rule="evenodd" clip-rule="evenodd" d="M-4.5122 215.301L83.9464 126.842H-4.51805V125.381H83.7581L-11.5312 30.0915L-10.4979 29.0582L84.9152 124.471L84.9152 -0.293457H86.3765L86.3765 124.412L175.964 34.8245L176.997 35.8578L87.4744 125.381H173.764V126.842H87.286L180.525 220.081L179.492 221.114L86.3765 127.999V249.01H84.9151L84.9152 127.94L-3.47888 216.334L-4.5122 215.301Z" fill="#A6C3BA"/>
<path d="M83.9464 126.842L84.4631 127.359L85.7104 126.112H83.9464V126.842ZM-4.5122 215.301L-5.02885 214.784L-5.54551 215.301L-5.02885 215.817L-4.5122 215.301ZM-4.51805 126.842H-5.24872V127.573H-4.51805V126.842ZM-4.51805 125.381V124.65H-5.24872V125.381H-4.51805ZM83.7581 125.381V126.112H85.5221L84.2747 124.864L83.7581 125.381ZM-11.5312 30.0915L-12.0479 29.5749L-12.5646 30.0915L-12.0479 30.6082L-11.5312 30.0915ZM-10.4979 29.0582L-9.98127 28.5416L-10.4979 28.0249L-11.0146 28.5416L-10.4979 29.0582ZM84.9152 124.471L84.3985 124.988L85.6458 126.235L85.6458 124.471L84.9152 124.471ZM84.9152 -0.293457V-1.02412H84.1845L84.1845 -0.293457L84.9152 -0.293457ZM86.3765 -0.293457L87.1071 -0.293457L87.1071 -1.02412H86.3765V-0.293457ZM86.3765 124.412L85.6458 124.412L85.6458 126.176L86.8931 124.929L86.3765 124.412ZM175.964 34.8245L176.481 34.3078L175.964 33.7912L175.447 34.3078L175.964 34.8245ZM176.997 35.8578L177.514 36.3744L178.031 35.8578L177.514 35.3411L176.997 35.8578ZM87.4744 125.381L86.9577 124.864L85.7104 126.112H87.4744V125.381ZM173.764 125.381H174.495V124.65H173.764V125.381ZM173.764 126.842V127.573H174.495V126.842H173.764ZM87.286 126.842V126.112H85.5221L86.7694 127.359L87.286 126.842ZM180.525 220.081L181.042 220.598L181.558 220.081L181.042 219.564L180.525 220.081ZM179.492 221.114L178.975 221.631L179.492 222.148L180.008 221.631L179.492 221.114ZM86.3765 127.999L86.8931 127.483L85.6458 126.235V127.999H86.3765ZM86.3765 249.01V249.74H87.1071V249.01H86.3765ZM84.9151 249.01L84.1845 249.01L84.1845 249.74H84.9151V249.01ZM84.9152 127.94L85.6458 127.94L85.6458 126.176L84.3985 127.423L84.9152 127.94ZM-3.47888 216.334L-3.99553 216.851L-3.47888 217.367L-2.96222 216.851L-3.47888 216.334ZM83.4297 126.326L-5.02885 214.784L-3.99554 215.817L84.4631 127.359L83.4297 126.326ZM-4.51805 127.573H83.9464V126.112H-4.51805V127.573ZM-5.24872 125.381V126.842H-3.78739V125.381H-5.24872ZM83.7581 124.65H-4.51805V126.112H83.7581V124.65ZM-12.0479 30.6082L83.2414 125.898L84.2747 124.864L-11.0146 29.5749L-12.0479 30.6082ZM-11.0146 28.5416L-12.0479 29.5749L-11.0146 30.6082L-9.98127 29.5749L-11.0146 28.5416ZM85.4318 123.955L-9.98127 28.5416L-11.0146 29.5749L84.3985 124.988L85.4318 123.955ZM84.1845 -0.293457L84.1845 124.471L85.6458 124.471L85.6458 -0.293457L84.1845 -0.293457ZM86.3765 -1.02412H84.9152V0.437209H86.3765V-1.02412ZM87.1071 124.412L87.1071 -0.293457L85.6458 -0.293457L85.6458 124.412L87.1071 124.412ZM175.447 34.3078L85.8598 123.895L86.8931 124.929L176.481 35.3411L175.447 34.3078ZM177.514 35.3411L176.481 34.3078L175.447 35.3411L176.481 36.3744L177.514 35.3411ZM87.991 125.898L177.514 36.3744L176.481 35.3411L86.9577 124.864L87.991 125.898ZM173.764 124.65H87.4744V126.112H173.764V124.65ZM174.495 126.842V125.381H173.034V126.842H174.495ZM87.286 127.573H173.764V126.112H87.286V127.573ZM181.042 219.564L87.8027 126.326L86.7694 127.359L180.008 220.598L181.042 219.564ZM180.008 221.631L181.042 220.598L180.008 219.564L178.975 220.598L180.008 221.631ZM85.8598 128.516L178.975 221.631L180.008 220.598L86.8931 127.483L85.8598 128.516ZM87.1071 249.01V127.999H85.6458V249.01H87.1071ZM84.9151 249.74H86.3765V248.279H84.9151V249.74ZM84.1845 127.94L84.1845 249.01L85.6458 249.01L85.6458 127.94L84.1845 127.94ZM-2.96222 216.851L85.4318 128.457L84.3985 127.423L-3.99554 215.817L-2.96222 216.851ZM-5.02885 215.817L-3.99553 216.851L-2.96222 215.817L-3.99554 214.784L-5.02885 215.817Z" fill="#A6C3BA"/>
<path fill-rule="evenodd" clip-rule="evenodd" d="M33.8358 249.372L84.2503 127.66L-5.2749 164.743L-5.83413 163.393L83.5921 126.351L-4.31094 89.9407L-3.75171 88.5906L84.1514 125.001L31.7591 -1.48493L33.1092 -2.04416L85.5425 124.541L138.658 -3.69142L140.008 -3.1322L86.9505 124.96L181.731 85.7008L182.29 87.0509L87.4107 126.351L177.183 163.536L176.624 164.886L86.8516 127.701L137.509 250L136.159 250.559L85.5425 128.36L35.1859 249.931L33.8358 249.372Z" fill="#A6C3BA"/>
<path d="M84.2503 127.66L84.9254 127.94L85.6004 126.31L83.9707 126.985L84.2503 127.66ZM33.8358 249.372L33.1607 249.092L32.8811 249.767L33.5562 250.047L33.8358 249.372ZM-5.2749 164.743L-5.94995 165.023L-5.67034 165.698L-4.99529 165.418L-5.2749 164.743ZM-5.83413 163.393L-6.11374 162.718L-6.78879 162.997L-6.50918 163.672L-5.83413 163.393ZM83.5921 126.351L83.8717 127.026L85.5014 126.351L83.8717 125.676L83.5921 126.351ZM-4.31094 89.9407L-4.98599 89.6611L-5.2656 90.3361L-4.59055 90.6157L-4.31094 89.9407ZM-3.75171 88.5906L-3.4721 87.9156L-4.14715 87.6359L-4.42676 88.311L-3.75171 88.5906ZM84.1514 125.001L83.8718 125.676L85.5015 126.351L84.8265 124.722L84.1514 125.001ZM31.7591 -1.48493L31.4795 -2.15998L30.8045 -1.88037L31.0841 -1.20532L31.7591 -1.48493ZM33.1092 -2.04416L33.7843 -2.32377L33.5047 -2.99882L32.8296 -2.71921L33.1092 -2.04416ZM85.5425 124.541L84.8674 124.82L85.5425 126.45L86.2175 124.82L85.5425 124.541ZM138.658 -3.69142L138.938 -4.36647L138.263 -4.64608L137.983 -3.97104L138.658 -3.69142ZM140.008 -3.1322L140.683 -2.85259L140.963 -3.52764L140.288 -3.80725L140.008 -3.1322ZM86.9505 124.96L86.2755 124.681L85.6004 126.31L87.2301 125.635L86.9505 124.96ZM181.731 85.7008L182.406 85.4212L182.126 84.7462L181.451 85.0258L181.731 85.7008ZM182.29 87.0509L182.57 87.726L183.245 87.4464L182.965 86.7713L182.29 87.0509ZM87.4107 126.351L87.1311 125.676L85.5014 126.351L87.1311 127.026L87.4107 126.351ZM177.183 163.536L177.858 163.816L178.138 163.141L177.463 162.861L177.183 163.536ZM176.624 164.886L176.345 165.562L177.02 165.841L177.299 165.166L176.624 164.886ZM86.8516 127.701L87.1312 127.026L85.5015 126.351L86.1766 127.981L86.8516 127.701ZM137.509 250L137.789 250.675L138.464 250.395L138.184 249.72L137.509 250ZM136.159 250.559L135.484 250.839L135.764 251.514L136.439 251.234L136.159 250.559ZM85.5425 128.36L86.2175 128.08L85.5425 126.45L84.8674 128.08L85.5425 128.36ZM35.1859 249.931L34.9063 250.606L35.5813 250.886L35.8609 250.211L35.1859 249.931ZM83.5753 127.381L33.1607 249.092L34.5108 249.651L84.9254 127.94L83.5753 127.381ZM-4.99529 165.418L84.5299 128.335L83.9707 126.985L-5.55452 164.068L-4.99529 165.418ZM-6.50918 163.672L-5.94995 165.023L-4.59986 164.463L-5.15908 163.113L-6.50918 163.672ZM83.3124 125.676L-6.11374 162.718L-5.55452 164.068L83.8717 127.026L83.3124 125.676ZM-4.59055 90.6157L83.3124 127.026L83.8717 125.676L-4.03133 89.2656L-4.59055 90.6157ZM-4.42676 88.311L-4.98599 89.6611L-3.63589 90.2203L-3.07667 88.8702L-4.42676 88.311ZM84.431 124.326L-3.4721 87.9156L-4.03133 89.2656L83.8718 125.676L84.431 124.326ZM31.0841 -1.20532L83.4764 125.281L84.8265 124.722L32.4342 -1.76455L31.0841 -1.20532ZM32.8296 -2.71921L31.4795 -2.15998L32.0387 -0.809886L33.3888 -1.36911L32.8296 -2.71921ZM86.2175 124.261L33.7843 -2.32377L32.4342 -1.76455L84.8674 124.82L86.2175 124.261ZM137.983 -3.97104L84.8674 124.261L86.2175 124.82L139.333 -3.41181L137.983 -3.97104ZM140.288 -3.80725L138.938 -4.36647L138.378 -3.01638L139.729 -2.45715L140.288 -3.80725ZM87.6256 125.24L140.683 -2.85259L139.333 -3.41181L86.2755 124.681L87.6256 125.24ZM181.451 85.0258L86.6709 124.285L87.2301 125.635L182.011 86.3759L181.451 85.0258ZM182.965 86.7713L182.406 85.4212L181.056 85.9805L181.615 87.3305L182.965 86.7713ZM87.6903 127.026L182.57 87.726L182.011 86.3759L87.1311 125.676L87.6903 127.026ZM177.463 162.861L87.6903 125.676L87.1311 127.026L176.904 164.211L177.463 162.861ZM177.299 165.166L177.858 163.816L176.508 163.257L175.949 164.607L177.299 165.166ZM86.572 128.376L176.345 165.562L176.904 164.211L87.1312 127.026L86.572 128.376ZM138.184 249.72L87.5267 127.422L86.1766 127.981L136.834 250.28L138.184 249.72ZM136.439 251.234L137.789 250.675L137.23 249.325L135.88 249.884L136.439 251.234ZM84.8674 128.639L135.484 250.839L136.834 250.28L86.2175 128.08L84.8674 128.639ZM35.8609 250.211L86.2175 128.639L84.8674 128.08L34.5108 249.651L35.8609 250.211ZM33.5562 250.047L34.9063 250.606L35.4655 249.256L34.1154 248.697L33.5562 250.047Z" fill="#A6C3BA"/>
<path fill-rule="evenodd" clip-rule="evenodd" d="M32.0434 -7.30801L152.485 284.926L150.709 288.142L30.2671 -4.09231L32.0434 -7.30801Z" fill="#E0F416"/>
</g>
<defs>
<clipPath id="clip0_159_2254">
<rect width="173.898" height="246.088" fill="white" transform="translate(0.457031)"/>
</clipPath>
</defs>
</svg>
