<svg width="175" height="247" viewBox="0 0 175 247" fill="none" xmlns="http://www.w3.org/2000/svg">
<g clip-path="url(#clip0_159_2269)">
<rect width="173.898" height="246.088" transform="translate(0.371094)" fill="#181A20"/>
<path fill-rule="evenodd" clip-rule="evenodd" d="M-4.59618 215.302L83.8617 126.844H-4.60204V125.383H83.6748L-11.6152 30.0928L-10.5819 29.0594L84.8312 124.473L84.8312 -0.291992H86.2925L86.2925 124.413L175.88 34.8257L176.913 35.859L87.3896 125.383H173.68V126.844H87.2028L180.441 220.082L179.408 221.116L86.2925 128V249.011H84.8312L84.8312 127.941L-3.56286 216.335L-4.59618 215.302Z" fill="#A6C3BA"/>
<path d="M83.8617 126.844L84.3783 127.361L85.6257 126.113H83.8617V126.844ZM-4.59618 215.302L-5.11284 214.785L-5.6295 215.302L-5.11284 215.819L-4.59618 215.302ZM-4.60204 126.844H-5.3327V127.575H-4.60204V126.844ZM-4.60204 125.383V124.652H-5.3327V125.383H-4.60204ZM83.6748 125.383V126.113H85.4388L84.1915 124.866L83.6748 125.383ZM-11.6152 30.0928L-12.1319 29.5761L-12.6486 30.0928L-12.1319 30.6094L-11.6152 30.0928ZM-10.5819 29.0594L-10.0653 28.5428L-10.5819 28.0261L-11.0986 28.5428L-10.5819 29.0594ZM84.8312 124.473L84.3145 124.989L85.5618 126.237L85.5618 124.473L84.8312 124.473ZM84.8312 -0.291992V-1.02266H84.1005L84.1005 -0.291992L84.8312 -0.291992ZM86.2925 -0.291992L87.0232 -0.291992L87.0232 -1.02266H86.2925V-0.291992ZM86.2925 124.413L85.5618 124.413L85.5618 126.177L86.8091 124.93L86.2925 124.413ZM175.88 34.8257L176.397 34.309L175.88 33.7924L175.363 34.309L175.88 34.8257ZM176.913 35.859L177.43 36.3757L177.947 35.859L177.43 35.3423L176.913 35.859ZM87.3896 125.383L86.873 124.866L85.6257 126.113H87.3896V125.383ZM173.68 125.383H174.411V124.652H173.68V125.383ZM173.68 126.844V127.575H174.411V126.844H173.68ZM87.2028 126.844V126.113H85.4388L86.6861 127.361L87.2028 126.844ZM180.441 220.082L180.958 220.599L181.474 220.082L180.958 219.566L180.441 220.082ZM179.408 221.116L178.891 221.632L179.408 222.149L179.924 221.632L179.408 221.116ZM86.2925 128L86.8091 127.484L85.5618 126.236V128H86.2925ZM86.2925 249.011V249.742H87.0232V249.011H86.2925ZM84.8312 249.011L84.1005 249.011L84.1005 249.742H84.8312V249.011ZM84.8312 127.941L85.5618 127.941L85.5618 126.177L84.3145 127.425L84.8312 127.941ZM-3.56286 216.335L-4.07952 216.852L-3.56286 217.369L-3.0462 216.852L-3.56286 216.335ZM83.345 126.327L-5.11284 214.785L-4.07952 215.819L84.3783 127.361L83.345 126.327ZM-4.60204 127.575H83.8617V126.113H-4.60204V127.575ZM-5.3327 125.383V126.844H-3.87137V125.383H-5.3327ZM83.6748 124.652H-4.60204V126.113H83.6748V124.652ZM-12.1319 30.6094L83.1582 125.899L84.1915 124.866L-11.0986 29.5761L-12.1319 30.6094ZM-11.0986 28.5428L-12.1319 29.5761L-11.0986 30.6094L-10.0653 29.5761L-11.0986 28.5428ZM85.3478 123.956L-10.0653 28.5428L-11.0986 29.5761L84.3145 124.989L85.3478 123.956ZM84.1005 -0.291992L84.1005 124.473L85.5618 124.473L85.5618 -0.291992L84.1005 -0.291992ZM86.2925 -1.02266H84.8312V0.438673H86.2925V-1.02266ZM87.0232 124.413L87.0232 -0.291992L85.5618 -0.291992L85.5618 124.413L87.0232 124.413ZM175.363 34.309L85.7758 123.897L86.8091 124.93L176.397 35.3423L175.363 34.309ZM177.43 35.3423L176.397 34.309L175.363 35.3423L176.397 36.3757L177.43 35.3423ZM87.9063 125.899L177.43 36.3757L176.397 35.3423L86.873 124.866L87.9063 125.899ZM173.68 124.652H87.3896V126.113H173.68V124.652ZM174.411 126.844V125.383H172.95V126.844H174.411ZM87.2028 127.575H173.68V126.113H87.2028V127.575ZM180.958 219.566L87.7195 126.327L86.6861 127.361L179.924 220.599L180.958 219.566ZM179.924 221.632L180.958 220.599L179.924 219.566L178.891 220.599L179.924 221.632ZM85.7758 128.517L178.891 221.632L179.924 220.599L86.8091 127.484L85.7758 128.517ZM87.0232 249.011V128H85.5618V249.011H87.0232ZM84.8312 249.742H86.2925V248.281H84.8312V249.742ZM84.1005 127.941L84.1005 249.011L85.5618 249.011L85.5618 127.941L84.1005 127.941ZM-3.0462 216.852L85.3478 128.458L84.3145 127.425L-4.07952 215.819L-3.0462 216.852ZM-5.11284 215.819L-4.07952 216.852L-3.04621 215.819L-4.07952 214.785L-5.11284 215.819Z" fill="#A6C3BA"/>
<path fill-rule="evenodd" clip-rule="evenodd" d="M33.7537 249.374L84.1682 127.662L-5.35704 164.745L-5.91627 163.395L83.5115 126.352L-4.39113 89.9419L-3.8319 88.5918L84.0712 125.002L31.6789 -1.48374L33.029 -2.04297L85.4614 124.54L138.576 -3.68972L139.926 -3.1305L86.8684 124.962L181.649 85.7025L182.208 87.0526L87.3301 126.352L177.103 163.538L176.544 164.888L86.7714 127.703L137.429 250.001L136.079 250.56L85.4614 128.359L35.1037 249.933L33.7537 249.374Z" fill="#A6C3BA"/>
<path d="M84.1682 127.662L84.8432 127.942L85.5183 126.312L83.8886 126.987L84.1682 127.662ZM33.7537 249.374L33.0786 249.094L32.799 249.769L33.474 250.049L33.7537 249.374ZM-5.35704 164.745L-6.03209 165.024L-5.75248 165.699L-5.07743 165.42L-5.35704 164.745ZM-5.91627 163.395L-6.19589 162.719L-6.87093 162.999L-6.59132 163.674L-5.91627 163.395ZM83.5115 126.352L83.7911 127.027L85.4208 126.352L83.7911 125.677L83.5115 126.352ZM-4.39113 89.9419L-5.06618 89.6623L-5.34579 90.3373L-4.67075 90.617L-4.39113 89.9419ZM-3.8319 88.5918L-3.55229 87.9168L-4.22734 87.6371L-4.50695 88.3122L-3.8319 88.5918ZM84.0712 125.002L83.7916 125.678L85.4213 126.353L84.7463 124.723L84.0712 125.002ZM31.6789 -1.48374L31.3993 -2.15879L30.7243 -1.87918L31.0039 -1.20413L31.6789 -1.48374ZM33.029 -2.04297L33.7041 -2.32258L33.4245 -2.99763L32.7494 -2.71802L33.029 -2.04297ZM85.4614 124.54L84.7864 124.82L85.4614 126.449L86.1365 124.82L85.4614 124.54ZM138.576 -3.68972L138.855 -4.36477L138.18 -4.64438L137.901 -3.96934L138.576 -3.68972ZM139.926 -3.1305L140.601 -2.85089L140.881 -3.52594L140.206 -3.80555L139.926 -3.1305ZM86.8684 124.962L86.1933 124.682L85.5183 126.312L87.148 125.637L86.8684 124.962ZM181.649 85.7025L182.324 85.4229L182.044 84.7479L181.369 85.0275L181.649 85.7025ZM182.208 87.0526L182.488 87.7277L183.163 87.4481L182.883 86.773L182.208 87.0526ZM87.3301 126.352L87.0505 125.677L85.4208 126.352L87.0505 127.027L87.3301 126.352ZM177.103 163.538L177.778 163.817L178.058 163.142L177.383 162.863L177.103 163.538ZM176.544 164.888L176.264 165.563L176.939 165.842L177.219 165.167L176.544 164.888ZM86.7714 127.703L87.051 127.028L85.4213 126.353L86.0964 127.982L86.7714 127.703ZM137.429 250.001L137.709 250.676L138.384 250.397L138.104 249.722L137.429 250.001ZM136.079 250.56L135.404 250.84L135.684 251.515L136.359 251.235L136.079 250.56ZM85.4614 128.359L86.1365 128.079L85.4614 126.449L84.7864 128.079L85.4614 128.359ZM35.1037 249.933L34.8241 250.608L35.4992 250.887L35.7788 250.212L35.1037 249.933ZM83.4932 127.382L33.0786 249.094L34.4287 249.653L84.8432 127.942L83.4932 127.382ZM-5.07743 165.42L84.4478 128.337L83.8886 126.987L-5.63666 164.07L-5.07743 165.42ZM-6.59132 163.674L-6.03209 165.024L-4.682 164.465L-5.24123 163.115L-6.59132 163.674ZM83.2319 125.677L-6.19589 162.719L-5.63666 164.07L83.7911 127.027L83.2319 125.677ZM-4.67075 90.617L83.2319 127.027L83.7911 125.677L-4.11152 89.2669L-4.67075 90.617ZM-4.50695 88.3122L-5.06618 89.6623L-3.71609 90.2215L-3.15686 88.8714L-4.50695 88.3122ZM84.3509 124.327L-3.55229 87.9168L-4.11152 89.2669L83.7916 125.678L84.3509 124.327ZM31.0039 -1.20413L83.3962 125.282L84.7463 124.723L32.354 -1.76336L31.0039 -1.20413ZM32.7494 -2.71802L31.3993 -2.15879L31.9586 -0.808695L33.3087 -1.36792L32.7494 -2.71802ZM86.1365 124.26L33.7041 -2.32258L32.354 -1.76336L84.7864 124.82L86.1365 124.26ZM137.901 -3.96934L84.7864 124.26L86.1365 124.82L139.251 -3.41011L137.901 -3.96934ZM140.206 -3.80555L138.855 -4.36477L138.296 -3.01468L139.646 -2.45545L140.206 -3.80555ZM87.5434 125.241L140.601 -2.85089L139.251 -3.41011L86.1933 124.682L87.5434 125.241ZM181.369 85.0275L86.5888 124.287L87.148 125.637L181.928 86.3776L181.369 85.0275ZM182.883 86.773L182.324 85.4229L180.974 85.9821L181.533 87.3322L182.883 86.773ZM87.6097 127.027L182.488 87.7277L181.928 86.3776L87.0505 125.677L87.6097 127.027ZM177.383 162.863L87.6097 125.677L87.0505 127.027L176.824 164.213L177.383 162.863ZM177.219 165.167L177.778 163.817L176.428 163.258L175.869 164.608L177.219 165.167ZM86.4918 128.378L176.264 165.563L176.824 164.213L87.051 127.028L86.4918 128.378ZM138.104 249.722L87.4465 127.423L86.0964 127.982L136.754 250.281L138.104 249.722ZM136.359 251.235L137.709 250.676L137.15 249.326L135.799 249.885L136.359 251.235ZM84.7864 128.638L135.404 250.84L136.754 250.281L86.1365 128.079L84.7864 128.638ZM35.7788 250.212L86.1365 128.638L84.7864 128.079L34.4287 249.653L35.7788 250.212ZM33.474 250.049L34.8241 250.608L35.3834 249.258L34.0333 248.698L33.474 250.049Z" fill="#A6C3BA"/>
<path fill-rule="evenodd" clip-rule="evenodd" d="M-54.5653 66.5025L237.573 187.177L238.76 191.251L-53.3785 70.5766L-54.5653 66.5025Z" fill="#E0F416"/>
</g>
<defs>
<clipPath id="clip0_159_2269">
<rect width="173.898" height="246.088" fill="white" transform="translate(0.371094)"/>
</clipPath>
</defs>
</svg>
