<svg width="175" height="247" viewBox="0 0 175 247" fill="none" xmlns="http://www.w3.org/2000/svg">
<g clip-path="url(#clip0_159_2284)">
<rect width="173.898" height="246.088" transform="translate(0.185547)" fill="#181A20"/>
<path fill-rule="evenodd" clip-rule="evenodd" d="M-4.78173 215.301L83.6764 126.843H-4.78759V125.382H83.4905L-11.7988 30.0925L-10.7655 29.0592L84.6476 124.472L84.6476 -0.292969H86.1089L86.1089 124.411L175.695 34.825L176.728 35.8583L87.2043 125.382H173.495V126.843H87.0185L180.257 220.082L179.224 221.115L86.1089 128V249.01H84.6476L84.6476 127.939L-3.74841 216.335L-4.78173 215.301Z" fill="#A6C3BA"/>
<path d="M83.6764 126.843L84.193 127.36L85.4404 126.113H83.6764V126.843ZM-4.78173 215.301L-5.29839 214.785L-5.81505 215.301L-5.29838 215.818L-4.78173 215.301ZM-4.78759 126.843H-5.51825V127.574H-4.78759V126.843ZM-4.78759 125.382V124.651H-5.51825V125.382H-4.78759ZM83.4905 125.382V126.113H85.2545L84.0072 124.865L83.4905 125.382ZM-11.7988 30.0925L-12.3155 29.5758L-12.8321 30.0925L-12.3155 30.6092L-11.7988 30.0925ZM-10.7655 29.0592L-10.2489 28.5425L-10.7655 28.0259L-11.2822 28.5425L-10.7655 29.0592ZM84.6476 124.472L84.1309 124.989L85.3782 126.236L85.3782 124.472L84.6476 124.472ZM84.6476 -0.292969V-1.02363H83.9169L83.9169 -0.292969L84.6476 -0.292969ZM86.1089 -0.292969L86.8396 -0.292969L86.8396 -1.02363H86.1089V-0.292969ZM86.1089 124.411L85.3782 124.411L85.3782 126.175L86.6256 124.927L86.1089 124.411ZM175.695 34.825L176.211 34.3083L175.695 33.7916L175.178 34.3083L175.695 34.825ZM176.728 35.8583L177.245 36.3749L177.761 35.8583L177.245 35.3416L176.728 35.8583ZM87.2043 125.382L86.6877 124.865L85.4404 126.113H87.2043V125.382ZM173.495 125.382H174.225V124.651H173.495V125.382ZM173.495 126.843V127.574H174.225V126.843H173.495ZM87.0185 126.843V126.113H85.2545L86.5018 127.36L87.0185 126.843ZM180.257 220.082L180.774 220.599L181.291 220.082L180.774 219.565L180.257 220.082ZM179.224 221.115L178.707 221.632L179.224 222.149L179.741 221.632L179.224 221.115ZM86.1089 128L86.6256 127.484L85.3782 126.236V128H86.1089ZM86.1089 249.01V249.741H86.8396V249.01H86.1089ZM84.6476 249.01L83.9169 249.01L83.9169 249.741H84.6476V249.01ZM84.6476 127.939L85.3782 127.939L85.3782 126.175L84.1309 127.422L84.6476 127.939ZM-3.74841 216.335L-4.26507 216.851L-3.74841 217.368L-3.23175 216.851L-3.74841 216.335ZM83.1597 126.327L-5.29839 214.785L-4.26507 215.818L84.193 127.36L83.1597 126.327ZM-4.78759 127.574H83.6764V126.113H-4.78759V127.574ZM-5.51825 125.382V126.843H-4.05692V125.382H-5.51825ZM83.4905 124.651H-4.78759V126.113H83.4905V124.651ZM-12.3155 30.6092L82.9738 125.898L84.0072 124.865L-11.2822 29.5758L-12.3155 30.6092ZM-11.2822 28.5425L-12.3155 29.5758L-11.2822 30.6092L-10.2489 29.5758L-11.2822 28.5425ZM85.1642 123.956L-10.2489 28.5425L-11.2822 29.5758L84.1309 124.989L85.1642 123.956ZM83.9169 -0.292969L83.9169 124.472L85.3782 124.472L85.3782 -0.292969L83.9169 -0.292969ZM86.1089 -1.02363H84.6476V0.437697H86.1089V-1.02363ZM86.8396 124.411L86.8396 -0.292969L85.3782 -0.292969L85.3782 124.411L86.8396 124.411ZM175.178 34.3083L85.5922 123.894L86.6256 124.927L176.211 35.3416L175.178 34.3083ZM177.245 35.3416L176.211 34.3083L175.178 35.3416L176.211 36.3749L177.245 35.3416ZM87.721 125.898L177.245 36.3749L176.211 35.3416L86.6877 124.865L87.721 125.898ZM173.495 124.651H87.2043V126.113H173.495V124.651ZM174.225 126.843V125.382H172.764V126.843H174.225ZM87.0185 127.574H173.495V126.113H87.0185V127.574ZM180.774 219.565L87.5351 126.327L86.5018 127.36L179.741 220.599L180.774 219.565ZM179.741 221.632L180.774 220.599L179.741 219.565L178.707 220.599L179.741 221.632ZM85.5922 128.517L178.707 221.632L179.741 220.599L86.6256 127.484L85.5922 128.517ZM86.8396 249.01V128H85.3782V249.01H86.8396ZM84.6476 249.741H86.1089V248.28H84.6476V249.741ZM83.9169 127.939L83.9169 249.01L85.3782 249.01L85.3782 127.939L83.9169 127.939ZM-3.23175 216.851L85.1642 128.455L84.1309 127.422L-4.26507 215.818L-3.23175 216.851ZM-5.29838 215.818L-4.26507 216.851L-3.23175 215.818L-4.26507 214.785L-5.29838 215.818Z" fill="#A6C3BA"/>
<path fill-rule="evenodd" clip-rule="evenodd" d="M33.5656 249.371L83.9805 127.659L-5.54697 164.743L-6.10619 163.392L83.3205 126.351L-4.58114 89.9407L-4.02191 88.5906L83.881 125.001L31.4889 -1.48449L32.839 -2.04372L85.2721 124.541L138.388 -3.69196L139.738 -3.13273L86.6807 124.959L181.459 85.7004L182.018 87.0505L87.1391 126.351L176.913 163.536L176.354 164.886L86.5812 127.701L137.239 250L135.889 250.56L85.2721 128.359L34.9157 249.931L33.5656 249.371Z" fill="#A6C3BA"/>
<path d="M83.9805 127.659L84.6555 127.939L85.3306 126.309L83.7008 126.984L83.9805 127.659ZM33.5656 249.371L32.8905 249.092L32.6109 249.767L33.286 250.046L33.5656 249.371ZM-5.54697 164.743L-6.22201 165.022L-5.9424 165.697L-5.26735 165.418L-5.54697 164.743ZM-6.10619 163.392L-6.38581 162.717L-7.06085 162.997L-6.78124 163.672L-6.10619 163.392ZM83.3205 126.351L83.6001 127.026L85.2298 126.351L83.6001 125.676L83.3205 126.351ZM-4.58114 89.9407L-5.25619 89.661L-5.5358 90.3361L-4.86076 90.6157L-4.58114 89.9407ZM-4.02191 88.5906L-3.7423 87.9155L-4.41735 87.6359L-4.69696 88.311L-4.02191 88.5906ZM83.881 125.001L83.6014 125.676L85.2311 126.351L84.556 124.722L83.881 125.001ZM31.4889 -1.48449L31.2093 -2.15954L30.5343 -1.87992L30.8139 -1.20488L31.4889 -1.48449ZM32.839 -2.04372L33.5141 -2.32333L33.2345 -2.99838L32.5594 -2.71877L32.839 -2.04372ZM85.2721 124.541L84.597 124.82L85.2721 126.45L85.9471 124.82L85.2721 124.541ZM138.388 -3.69196L138.667 -4.36701L137.992 -4.64662L137.713 -3.97157L138.388 -3.69196ZM139.738 -3.13273L140.413 -2.85312L140.693 -3.52817L140.018 -3.80778L139.738 -3.13273ZM86.6807 124.959L86.0056 124.679L85.3306 126.309L86.9603 125.634L86.6807 124.959ZM181.459 85.7004L182.134 85.4208L181.854 84.7458L181.179 85.0254L181.459 85.7004ZM182.018 87.0505L182.298 87.7256L182.973 87.4459L182.693 86.7709L182.018 87.0505ZM87.1391 126.351L86.8595 125.676L85.2298 126.351L86.8595 127.026L87.1391 126.351ZM176.913 163.536L177.588 163.816L177.868 163.141L177.193 162.861L176.913 163.536ZM176.354 164.886L176.074 165.561L176.749 165.841L177.029 165.166L176.354 164.886ZM86.5812 127.701L86.8608 127.026L85.2311 126.351L85.9061 127.981L86.5812 127.701ZM137.239 250L137.519 250.676L138.194 250.396L137.914 249.721L137.239 250ZM135.889 250.56L135.214 250.839L135.494 251.514L136.169 251.235L135.889 250.56ZM85.2721 128.359L85.9471 128.08L85.2721 126.45L84.597 128.08L85.2721 128.359ZM34.9157 249.931L34.6361 250.606L35.3111 250.885L35.5907 250.21L34.9157 249.931ZM83.3054 127.379L32.8905 249.092L34.2406 249.651L84.6555 127.939L83.3054 127.379ZM-5.26735 165.418L84.2601 128.334L83.7008 126.984L-5.82658 164.067L-5.26735 165.418ZM-6.78124 163.672L-6.22201 165.022L-4.87192 164.463L-5.43115 163.113L-6.78124 163.672ZM83.0408 125.676L-6.38581 162.717L-5.82658 164.067L83.6001 127.026L83.0408 125.676ZM-4.86076 90.6157L83.0408 127.026L83.6001 125.676L-4.30153 89.2656L-4.86076 90.6157ZM-4.69696 88.311L-5.25619 89.661L-3.90609 90.2203L-3.34687 88.8702L-4.69696 88.311ZM84.1606 124.326L-3.7423 87.9155L-4.30153 89.2656L83.6014 125.676L84.1606 124.326ZM30.8139 -1.20488L83.206 125.281L84.556 124.722L32.164 -1.7641L30.8139 -1.20488ZM32.5594 -2.71877L31.2093 -2.15954L31.7686 -0.809444L33.1186 -1.36867L32.5594 -2.71877ZM85.9471 124.261L33.5141 -2.32333L32.164 -1.76411L84.597 124.82L85.9471 124.261ZM137.713 -3.97157L84.597 124.261L85.9471 124.82L139.063 -3.41234L137.713 -3.97157ZM140.018 -3.80778L138.667 -4.36701L138.108 -3.01691L139.458 -2.45768L140.018 -3.80778ZM87.3557 125.238L140.413 -2.85312L139.063 -3.41235L86.0056 124.679L87.3557 125.238ZM181.179 85.0254L86.401 124.284L86.9603 125.634L181.739 86.3755L181.179 85.0254ZM182.693 86.7709L182.134 85.4208L180.784 85.98L181.343 87.3301L182.693 86.7709ZM87.4187 127.026L182.298 87.7256L181.739 86.3755L86.8595 125.676L87.4187 127.026ZM177.193 162.861L87.4187 125.676L86.8595 127.026L176.634 164.211L177.193 162.861ZM177.029 165.166L177.588 163.816L176.238 163.257L175.679 164.607L177.029 165.166ZM86.3016 128.376L176.074 165.561L176.634 164.211L86.8608 127.026L86.3016 128.376ZM137.914 249.721L87.2562 127.422L85.9061 127.981L136.564 250.28L137.914 249.721ZM136.169 251.235L137.519 250.676L136.96 249.325L135.609 249.885L136.169 251.235ZM84.597 128.639L135.214 250.839L136.564 250.28L85.9471 128.08L84.597 128.639ZM35.5907 250.21L85.9471 128.639L84.597 128.08L34.2406 249.651L35.5907 250.21ZM33.286 250.046L34.6361 250.606L35.1953 249.255L33.8452 248.696L33.286 250.046Z" fill="#A6C3BA"/>
<path fill-rule="evenodd" clip-rule="evenodd" d="M-16.7597 21.6868L206.819 245.114L206.416 248.766L-17.1624 25.3383L-16.7597 21.6868Z" fill="#E0F416"/>
</g>
<defs>
<clipPath id="clip0_159_2284">
<rect width="173.898" height="246.088" fill="white" transform="translate(0.185547)"/>
</clipPath>
</defs>
</svg>
