<svg width="174" height="247" viewBox="0 0 174 247" fill="none" xmlns="http://www.w3.org/2000/svg">
<g clip-path="url(#clip0_159_2299)">
<rect width="173.898" height="246.088" transform="translate(0.101562)" fill="#181A20"/>
<path fill-rule="evenodd" clip-rule="evenodd" d="M-4.86766 215.302L83.5902 126.844H-4.87352V125.383H83.4033L-11.8867 30.0928L-10.8534 29.0594L84.5597 124.473L84.5597 -0.291992H86.021L86.021 124.413L175.609 34.8257L176.642 35.859L87.1182 125.383H173.409V126.844H86.9313L180.169 220.082L179.136 221.116L86.021 128V249.011H84.5597L84.5597 127.941L-3.83435 216.335L-4.86766 215.302Z" fill="#A6C3BA"/>
<path d="M83.5902 126.844L84.1069 127.361L85.3542 126.113H83.5902V126.844ZM-4.86766 215.302L-5.38432 214.785L-5.90098 215.302L-5.38432 215.819L-4.86766 215.302ZM-4.87352 126.844H-5.60419V127.575H-4.87352V126.844ZM-4.87352 125.383V124.652H-5.60419V125.383H-4.87352ZM83.4033 125.383V126.113H85.1673L83.92 124.866L83.4033 125.383ZM-11.8867 30.0928L-12.4034 29.5761L-12.92 30.0928L-12.4034 30.6094L-11.8867 30.0928ZM-10.8534 29.0594L-10.3367 28.5428L-10.8534 28.0261L-11.3701 28.5428L-10.8534 29.0594ZM84.5597 124.473L84.043 124.989L85.2903 126.237L85.2903 124.473L84.5597 124.473ZM84.5597 -0.291992V-1.02266H83.829L83.829 -0.291992L84.5597 -0.291992ZM86.021 -0.291992L86.7517 -0.291992L86.7517 -1.02266H86.021V-0.291992ZM86.021 124.413L85.2903 124.413L85.2903 126.177L86.5377 124.93L86.021 124.413ZM175.609 34.8257L176.125 34.309L175.609 33.7924L175.092 34.309L175.609 34.8257ZM176.642 35.859L177.159 36.3757L177.675 35.859L177.159 35.3423L176.642 35.859ZM87.1182 125.383L86.6015 124.866L85.3542 126.113H87.1182V125.383ZM173.409 125.383H174.14V124.652H173.409V125.383ZM173.409 126.844V127.575H174.14V126.844H173.409ZM86.9313 126.844V126.113H85.1673L86.4147 127.361L86.9313 126.844ZM180.169 220.082L180.686 220.599L181.203 220.082L180.686 219.566L180.169 220.082ZM179.136 221.116L178.619 221.632L179.136 222.149L179.653 221.632L179.136 221.116ZM86.021 128L86.5377 127.484L85.2903 126.236V128H86.021ZM86.021 249.011V249.742H86.7517V249.011H86.021ZM84.5597 249.011L83.829 249.011L83.829 249.742H84.5597V249.011ZM84.5597 127.941L85.2903 127.941L85.2903 126.177L84.043 127.425L84.5597 127.941ZM-3.83435 216.335L-4.351 216.852L-3.83434 217.369L-3.31769 216.852L-3.83435 216.335ZM83.0735 126.327L-5.38432 214.785L-4.35101 215.819L84.1069 127.361L83.0735 126.327ZM-4.87352 127.575H83.5902V126.113H-4.87352V127.575ZM-5.60419 125.383V126.844H-4.14286V125.383H-5.60419ZM83.4033 124.652H-4.87352V126.113H83.4033V124.652ZM-12.4034 30.6094L82.8867 125.899L83.92 124.866L-11.3701 29.5761L-12.4034 30.6094ZM-11.3701 28.5428L-12.4034 29.5761L-11.3701 30.6094L-10.3367 29.5761L-11.3701 28.5428ZM85.0763 123.956L-10.3367 28.5428L-11.3701 29.5761L84.043 124.989L85.0763 123.956ZM83.829 -0.291992L83.829 124.473L85.2903 124.473L85.2904 -0.291992L83.829 -0.291992ZM86.021 -1.02266H84.5597V0.438673H86.021V-1.02266ZM86.7517 124.413L86.7517 -0.291992L85.2903 -0.291992L85.2903 124.413L86.7517 124.413ZM175.092 34.309L85.5043 123.897L86.5377 124.93L176.125 35.3423L175.092 34.309ZM177.159 35.3423L176.125 34.309L175.092 35.3423L176.125 36.3757L177.159 35.3423ZM87.6348 125.899L177.159 36.3757L176.125 35.3423L86.6015 124.866L87.6348 125.899ZM173.409 124.652H87.1182V126.113H173.409V124.652ZM174.14 126.844V125.383H172.678V126.844H174.14ZM86.9313 127.575H173.409V126.113H86.9313V127.575ZM180.686 219.566L87.448 126.327L86.4147 127.361L179.653 220.599L180.686 219.566ZM179.653 221.632L180.686 220.599L179.653 219.566L178.619 220.599L179.653 221.632ZM85.5043 128.517L178.619 221.632L179.653 220.599L86.5377 127.484L85.5043 128.517ZM86.7517 249.011V128H85.2903V249.011H86.7517ZM84.5597 249.742H86.021V248.281H84.5597V249.742ZM83.829 127.941L83.829 249.011L85.2903 249.011L85.2903 127.941L83.829 127.941ZM-3.31769 216.852L85.0763 128.458L84.043 127.425L-4.35101 215.819L-3.31769 216.852ZM-5.38432 215.819L-4.351 216.852L-3.31769 215.819L-4.35101 214.785L-5.38432 215.819Z" fill="#A6C3BA"/>
<path fill-rule="evenodd" clip-rule="evenodd" d="M33.4804 249.374L83.8948 127.663L-5.63031 164.745L-6.18954 163.395L83.2382 126.353L-4.6644 89.9423L-4.10517 88.5922L83.7982 125.003L31.4057 -1.48381L32.7558 -2.04304L85.1882 124.54L138.303 -3.68957L139.653 -3.13034L86.595 124.962L181.376 85.7029L181.935 87.053L87.0569 126.353L176.83 163.538L176.271 164.888L86.4984 127.703L137.156 250.001L135.806 250.56L85.1882 128.359L34.8305 249.933L33.4804 249.374Z" fill="#A6C3BA"/>
<path d="M83.8948 127.663L84.5698 127.942L85.2449 126.312L83.6152 126.987L83.8948 127.663ZM33.4804 249.374L32.8053 249.094L32.5257 249.769L33.2008 250.049L33.4804 249.374ZM-5.63031 164.745L-6.30535 165.025L-6.02574 165.7L-5.35069 165.42L-5.63031 164.745ZM-6.18954 163.395L-6.46915 162.72L-7.1442 163L-6.86458 163.675L-6.18954 163.395ZM83.2382 126.353L83.5178 127.028L85.1475 126.353L83.5178 125.678L83.2382 126.353ZM-4.6644 89.9423L-5.33945 89.6627L-5.61906 90.3377L-4.94401 90.6174L-4.6644 89.9423ZM-4.10517 88.5922L-3.82556 87.9172L-4.50061 87.6376L-4.78022 88.3126L-4.10517 88.5922ZM83.7982 125.003L83.5186 125.678L85.1483 126.353L84.4733 124.723L83.7982 125.003ZM31.4057 -1.48381L31.1261 -2.15886L30.451 -1.87925L30.7306 -1.2042L31.4057 -1.48381ZM32.7558 -2.04304L33.4308 -2.32265L33.1512 -2.9977L32.4762 -2.71809L32.7558 -2.04304ZM85.1882 124.54L84.5131 124.82L85.1882 126.449L85.8632 124.82L85.1882 124.54ZM138.303 -3.68957L138.582 -4.36461L137.907 -4.64423L137.628 -3.96918L138.303 -3.68957ZM139.653 -3.13034L140.328 -2.85072L140.607 -3.52577L139.932 -3.80538L139.653 -3.13034ZM86.595 124.962L85.9199 124.683L85.2449 126.312L86.8746 125.637L86.595 124.962ZM181.376 85.7029L182.051 85.4233L181.771 84.7483L181.096 85.0279L181.376 85.7029ZM181.935 87.053L182.214 87.7281L182.889 87.4485L182.61 86.7734L181.935 87.053ZM87.0569 126.353L86.7772 125.678L85.1475 126.353L86.7772 127.028L87.0569 126.353ZM176.83 163.538L177.505 163.818L177.785 163.143L177.11 162.863L176.83 163.538ZM176.271 164.888L175.991 165.563L176.666 165.843L176.946 165.168L176.271 164.888ZM86.4984 127.703L86.778 127.028L85.1483 126.353L85.8234 127.983L86.4984 127.703ZM137.156 250.001L137.435 250.676L138.111 250.397L137.831 249.722L137.156 250.001ZM135.806 250.56L135.131 250.84L135.41 251.515L136.085 251.235L135.806 250.56ZM85.1882 128.359L85.8632 128.079L85.1882 126.449L84.5131 128.079L85.1882 128.359ZM34.8305 249.933L34.5509 250.608L35.2259 250.888L35.5055 250.213L34.8305 249.933ZM83.2198 127.383L32.8053 249.094L34.1554 249.653L84.5698 127.942L83.2198 127.383ZM-5.35069 165.42L84.1744 128.338L83.6152 126.987L-5.90992 164.07L-5.35069 165.42ZM-6.86458 163.675L-6.30535 165.025L-4.95526 164.465L-5.51449 163.115L-6.86458 163.675ZM82.9586 125.678L-6.46915 162.72L-5.90992 164.07L83.5178 127.028L82.9586 125.678ZM-4.94401 90.6174L82.9586 127.028L83.5178 125.678L-4.38479 89.2673L-4.94401 90.6174ZM-4.78022 88.3126L-5.33945 89.6627L-3.98935 90.2219L-3.43013 88.8718L-4.78022 88.3126ZM84.0778 124.328L-3.82556 87.9172L-4.38479 89.2673L83.5186 125.678L84.0778 124.328ZM30.7306 -1.2042L83.1232 125.283L84.4733 124.723L32.0807 -1.76343L30.7306 -1.2042ZM32.4762 -2.71809L31.1261 -2.15886L31.6853 -0.808765L33.0354 -1.36799L32.4762 -2.71809ZM85.8632 124.26L33.4308 -2.32265L32.0807 -1.76343L84.5131 124.82L85.8632 124.26ZM137.628 -3.96918L84.5131 124.26L85.8632 124.82L138.978 -3.40995L137.628 -3.96918ZM139.932 -3.80538L138.582 -4.36461L138.023 -3.01452L139.373 -2.45529L139.932 -3.80538ZM87.27 125.242L140.328 -2.85072L138.978 -3.40995L85.9199 124.683L87.27 125.242ZM181.096 85.0279L86.3154 124.287L86.8746 125.637L181.655 86.378L181.096 85.0279ZM182.61 86.7734L182.051 85.4233L180.701 85.9826L181.26 87.3327L182.61 86.7734ZM87.3365 127.028L182.214 87.7281L181.655 86.378L86.7772 125.678L87.3365 127.028ZM177.11 162.863L87.3365 125.678L86.7772 127.028L176.55 164.213L177.11 162.863ZM176.946 165.168L177.505 163.818L176.155 163.258L175.596 164.608L176.946 165.168ZM86.2188 128.378L175.991 165.563L176.55 164.213L86.778 127.028L86.2188 128.378ZM137.831 249.722L87.1735 127.424L85.8234 127.983L136.481 250.281L137.831 249.722ZM136.085 251.235L137.435 250.676L136.876 249.326L135.526 249.885L136.085 251.235ZM84.5131 128.638L135.131 250.84L136.481 250.281L85.8632 128.079L84.5131 128.638ZM35.5055 250.213L85.8632 128.638L84.5131 128.079L34.1554 249.653L35.5055 250.213ZM33.2008 250.049L34.5509 250.608L35.1101 249.258L33.76 248.699L33.2008 250.049Z" fill="#A6C3BA"/>
<path fill-rule="evenodd" clip-rule="evenodd" d="M-66.4046 124.333L249.676 124.333L251.973 127.2L-64.1083 127.2L-66.4046 124.333Z" fill="#E0F416"/>
</g>
<defs>
<clipPath id="clip0_159_2299">
<rect width="173.898" height="246.088" fill="white" transform="translate(0.101562)"/>
</clipPath>
</defs>
</svg>
