<svg width="175" height="247" viewBox="0 0 175 247" fill="none" xmlns="http://www.w3.org/2000/svg">
<g clip-path="url(#clip0_159_2314)">
<rect width="173.898" height="246.088" transform="translate(0.914062)" fill="#181A20"/>
<path fill-rule="evenodd" clip-rule="evenodd" d="M-4.05321 215.302L84.4049 126.844H-4.06102V125.383H84.2178L-11.0723 30.0928L-10.0389 29.0594L85.3741 124.473L85.3741 -0.291992H86.8355L86.8355 124.414L176.423 34.8259L177.456 35.8592L87.9329 125.383H174.221V126.844H87.7458L180.984 220.082L179.951 221.116L86.8355 128V249.011H85.3741L85.3741 127.942L-3.01989 216.336L-4.05321 215.302Z" fill="#A6C3BA"/>
<path d="M84.4049 126.844L84.9215 127.361L86.1689 126.113H84.4049V126.844ZM-4.05321 215.302L-4.56987 214.786L-5.08653 215.302L-4.56987 215.819L-4.05321 215.302ZM-4.06102 126.844H-4.79169V127.575H-4.06102V126.844ZM-4.06102 125.383V124.652H-4.79169V125.383H-4.06102ZM84.2178 125.383V126.113H85.9818L84.7345 124.866L84.2178 125.383ZM-11.0723 30.0928L-11.5889 29.5761L-12.1056 30.0928L-11.5889 30.6094L-11.0723 30.0928ZM-10.0389 29.0594L-9.52229 28.5428L-10.0389 28.0261L-10.5556 28.5428L-10.0389 29.0594ZM85.3741 124.473L84.8575 124.989L86.1048 126.237L86.1048 124.473L85.3741 124.473ZM85.3741 -0.291992V-1.02266H84.6435L84.6435 -0.291992L85.3741 -0.291992ZM86.8355 -0.291992L87.5661 -0.291992L87.5661 -1.02266H86.8355V-0.291992ZM86.8355 124.414L86.1048 124.414L86.1048 126.178L87.3521 124.93L86.8355 124.414ZM176.423 34.8259L176.94 34.3093L176.423 33.7926L175.906 34.3093L176.423 34.8259ZM177.456 35.8592L177.973 36.3759L178.49 35.8592L177.973 35.3426L177.456 35.8592ZM87.9329 125.383L87.4162 124.866L86.1689 126.113H87.9329V125.383ZM174.221 125.383H174.952V124.652H174.221V125.383ZM174.221 126.844V127.575H174.952V126.844H174.221ZM87.7458 126.844V126.113H85.9818L87.2291 127.361L87.7458 126.844ZM180.984 220.082L181.501 220.599L182.017 220.082L181.501 219.566L180.984 220.082ZM179.951 221.116L179.434 221.632L179.951 222.149L180.467 221.632L179.951 221.116ZM86.8355 128L87.3521 127.484L86.1048 126.236V128H86.8355ZM86.8355 249.011V249.742H87.5661V249.011H86.8355ZM85.3741 249.011L84.6435 249.011L84.6435 249.742H85.3741V249.011ZM85.3741 127.942L86.1048 127.942L86.1048 126.178L84.8575 127.425L85.3741 127.942ZM-3.01989 216.336L-3.53655 216.852L-3.01989 217.369L-2.50323 216.852L-3.01989 216.336ZM83.8882 126.327L-4.56987 214.786L-3.53655 215.819L84.9215 127.361L83.8882 126.327ZM-4.06102 127.575H84.4049V126.113H-4.06102V127.575ZM-4.79169 125.383V126.844H-3.33036V125.383H-4.79169ZM84.2178 124.652H-4.06102V126.113H84.2178V124.652ZM-11.5889 30.6094L83.7011 125.899L84.7345 124.866L-10.5556 29.5761L-11.5889 30.6094ZM-10.5556 28.5428L-11.5889 29.5761L-10.5556 30.6094L-9.52229 29.5761L-10.5556 28.5428ZM85.8908 123.956L-9.52229 28.5428L-10.5556 29.5761L84.8575 124.989L85.8908 123.956ZM84.6435 -0.291992L84.6435 124.473L86.1048 124.473L86.1048 -0.291992L84.6435 -0.291992ZM86.8355 -1.02266H85.3741V0.438673H86.8355V-1.02266ZM87.5661 124.414L87.5661 -0.291992L86.1048 -0.291992L86.1048 124.414L87.5661 124.414ZM175.906 34.3093L86.3188 123.897L87.3521 124.93L176.94 35.3426L175.906 34.3093ZM177.973 35.3426L176.94 34.3093L175.906 35.3426L176.94 36.3759L177.973 35.3426ZM88.4495 125.899L177.973 36.3759L176.94 35.3426L87.4162 124.866L88.4495 125.899ZM174.221 124.652H87.9329V126.113H174.221V124.652ZM174.952 126.844V125.383H173.491V126.844H174.952ZM87.7458 127.575H174.221V126.113H87.7458V127.575ZM181.501 219.566L88.2624 126.327L87.2291 127.361L180.467 220.599L181.501 219.566ZM180.467 221.632L181.501 220.599L180.467 219.566L179.434 220.599L180.467 221.632ZM86.3188 128.517L179.434 221.632L180.467 220.599L87.3521 127.484L86.3188 128.517ZM87.5661 249.011V128H86.1048V249.011H87.5661ZM85.3741 249.742H86.8355V248.281H85.3741V249.742ZM84.6435 127.942L84.6435 249.011L86.1048 249.011L86.1048 127.942L84.6435 127.942ZM-2.50323 216.852L85.8908 128.458L84.8575 127.425L-3.53655 215.819L-2.50323 216.852ZM-4.56987 215.819L-3.53655 216.852L-2.50324 215.819L-3.53655 214.786L-4.56987 215.819Z" fill="#A6C3BA"/>
<path fill-rule="evenodd" clip-rule="evenodd" d="M34.2966 249.374L84.7115 127.662L-4.81603 164.745L-5.37526 163.395L84.0525 126.353L-3.85012 89.9424L-3.29089 88.5923L84.6123 125.003L32.22 -1.48325L33.5701 -2.04248L86.0033 124.543L139.119 -3.68949L140.469 -3.13026L87.4116 124.961L182.19 85.703L182.749 87.0531L87.8711 126.353L177.644 163.538L177.085 164.888L87.3124 127.703L137.97 250.002L136.62 250.561L86.0033 128.361L35.6467 249.933L34.2966 249.374Z" fill="#A6C3BA"/>
<path d="M84.7115 127.662L85.3865 127.941L86.0615 126.312L84.4318 126.987L84.7115 127.662ZM34.2966 249.374L33.6216 249.094L33.342 249.769L34.017 250.049L34.2966 249.374ZM-4.81603 164.745L-5.49108 165.025L-5.21146 165.7L-4.53642 165.42L-4.81603 164.745ZM-5.37526 163.395L-5.65487 162.72L-6.32992 163L-6.0503 163.675L-5.37526 163.395ZM84.0525 126.353L84.3321 127.028L85.9618 126.353L84.3321 125.678L84.0525 126.353ZM-3.85012 89.9424L-4.52516 89.6628L-4.80478 90.3378L-4.12973 90.6174L-3.85012 89.9424ZM-3.29089 88.5923L-3.01128 87.9173L-3.68632 87.6376L-3.96594 88.3127L-3.29089 88.5923ZM84.6123 125.003L84.3326 125.678L85.9624 126.353L85.2873 124.723L84.6123 125.003ZM32.22 -1.48325L31.9403 -2.1583L31.2653 -1.87869L31.5449 -1.20364L32.22 -1.48325ZM33.5701 -2.04248L34.2451 -2.3221L33.9655 -2.99714L33.2904 -2.71753L33.5701 -2.04248ZM86.0033 124.543L85.3283 124.822L86.0033 126.452L86.6784 124.822L86.0033 124.543ZM139.119 -3.68949L139.398 -4.36453L138.723 -4.64415L138.444 -3.9691L139.119 -3.68949ZM140.469 -3.13026L141.144 -2.85064L141.424 -3.52569L140.749 -3.8053L140.469 -3.13026ZM87.4116 124.961L86.7366 124.682L86.0615 126.312L87.6913 125.636L87.4116 124.961ZM182.19 85.703L182.865 85.4234L182.585 84.7484L181.91 85.028L182.19 85.703ZM182.749 87.0531L183.029 87.7282L183.704 87.4485L183.424 86.7735L182.749 87.0531ZM87.8711 126.353L87.5915 125.678L85.9618 126.353L87.5915 127.028L87.8711 126.353ZM177.644 163.538L178.319 163.818L178.599 163.143L177.924 162.863L177.644 163.538ZM177.085 164.888L176.805 165.563L177.48 165.843L177.76 165.168L177.085 164.888ZM87.3124 127.703L87.5921 127.028L85.9624 126.353L86.6374 127.983L87.3124 127.703ZM137.97 250.002L138.25 250.677L138.925 250.397L138.645 249.722L137.97 250.002ZM136.62 250.561L135.945 250.841L136.225 251.516L136.9 251.236L136.62 250.561ZM86.0033 128.361L86.6784 128.082L86.0033 126.452L85.3283 128.082L86.0033 128.361ZM35.6467 249.933L35.3671 250.608L36.0421 250.888L36.3218 250.213L35.6467 249.933ZM84.0364 127.382L33.6216 249.094L34.9717 249.653L85.3865 127.941L84.0364 127.382ZM-4.53642 165.42L84.9911 128.337L84.4318 126.987L-5.09564 164.07L-4.53642 165.42ZM-6.0503 163.675L-5.49108 165.025L-4.14098 164.466L-4.70021 163.115L-6.0503 163.675ZM83.7729 125.678L-5.65487 162.72L-5.09564 164.07L84.3321 127.028L83.7729 125.678ZM-4.12973 90.6174L83.7729 127.028L84.3321 125.678L-3.5705 89.2673L-4.12973 90.6174ZM-3.96594 88.3127L-4.52516 89.6628L-3.17507 90.222L-2.61584 88.8719L-3.96594 88.3127ZM84.8919 124.328L-3.01128 87.9173L-3.5705 89.2673L84.3326 125.678L84.8919 124.328ZM31.5449 -1.20364L83.9372 125.283L85.2873 124.723L32.895 -1.76287L31.5449 -1.20364ZM33.2904 -2.71753L31.9403 -2.1583L32.4996 -0.808206L33.8497 -1.36743L33.2904 -2.71753ZM86.6784 124.263L34.2451 -2.3221L32.895 -1.76287L85.3283 124.822L86.6784 124.263ZM138.444 -3.9691L85.3283 124.263L86.6784 124.822L139.794 -3.40987L138.444 -3.9691ZM140.749 -3.8053L139.398 -4.36453L138.839 -3.01444L140.189 -2.45521L140.749 -3.8053ZM88.0867 125.241L141.144 -2.85064L139.794 -3.40987L86.7366 124.682L88.0867 125.241ZM181.91 85.028L87.132 124.286L87.6913 125.636L182.469 86.3781L181.91 85.028ZM183.424 86.7735L182.865 85.4234L181.515 85.9826L182.074 87.3327L183.424 86.7735ZM88.1507 127.028L183.029 87.7282L182.469 86.3781L87.5915 125.678L88.1507 127.028ZM177.924 162.863L88.1507 125.678L87.5915 127.028L177.365 164.213L177.924 162.863ZM177.76 165.168L178.319 163.818L176.969 163.258L176.41 164.609L177.76 165.168ZM87.0328 128.378L176.805 165.563L177.365 164.213L87.5921 127.028L87.0328 128.378ZM138.645 249.722L87.9875 127.424L86.6374 127.983L137.295 250.281L138.645 249.722ZM136.9 251.236L138.25 250.677L137.691 249.327L136.34 249.886L136.9 251.236ZM85.3283 128.641L135.945 250.841L137.295 250.281L86.6784 128.082L85.3283 128.641ZM36.3218 250.213L86.6784 128.641L85.3283 128.082L34.9717 249.653L36.3218 250.213ZM34.017 250.049L35.3671 250.608L35.9263 249.258L34.5762 248.699L34.017 250.049Z" fill="#A6C3BA"/>
<path fill-rule="evenodd" clip-rule="evenodd" d="M-55.469 183.016L236.597 62.1661L240.016 64.0483L-52.0502 184.898L-55.469 183.016Z" fill="#E0F416"/>
</g>
<defs>
<clipPath id="clip0_159_2314">
<rect width="173.898" height="246.088" fill="white" transform="translate(0.914062)"/>
</clipPath>
</defs>
</svg>
