<svg width="545" height="392" viewBox="0 0 545 392" fill="none" xmlns="http://www.w3.org/2000/svg">
<rect width="545" height="392" fill="#E0F416"/>
<path d="M272.5 195.992L302.671 155.257L272.5 0.111816V195.992Z" fill="#ABC2BA"/>
<path d="M271.379 0.112364V195.992L273.487 196.377L303.824 155.409L273.609 0.00830078L271.379 0.120364V0.112364ZM273.62 11.703C277.449 31.3622 301.416 154.625 301.505 155.105C301.183 155.529 277.249 187.86 273.62 192.758V11.703Z" fill="#E0F416"/>
<path d="M272.5 195.992H544.846L329.146 174.3L272.5 195.992Z" fill="#E0F416"/>
<path d="M328.615 173.587L271.969 195.28L272.501 196.8H544.847L545.002 195.2L328.926 173.475L328.604 173.595L328.615 173.587ZM329.347 175.132C330.013 175.196 501.383 192.43 528.724 195.176H276.984C283.797 192.566 328.737 175.356 329.336 175.132H329.347Z" fill="#E0F416"/>
<path d="M272.5 195.992L215.865 174.3L0.154297 195.992H272.5Z" fill="#ABC2BA"/>
<path d="M215.711 173.507L0 195.199L0.155363 196.8H272.501L273.034 195.279L216.077 173.467L215.711 173.507ZM215.655 175.14C216.254 175.364 261.194 192.574 268.007 195.183H16.2782C43.6193 192.438 215 175.204 215.655 175.14Z" fill="#E0F416"/>
<path d="M272.499 195.992V0.111816L242.34 155.257L272.499 195.992Z" fill="#E0F416"/>
<path d="M241.222 155.145L241.178 155.409L271.515 196.376L273.623 195.992V0.112064L271.393 0L241.222 155.145ZM271.382 11.7107V192.758C267.753 187.859 243.819 155.529 243.497 155.105C243.586 154.624 267.553 31.3619 271.382 11.7027V11.7107Z" fill="#E0F416"/>
<path d="M272.5 195.992V391.88L302.671 236.735L272.5 196V195.992Z" fill="#E0F416"/>
<path d="M271.379 195.992V391.88L273.609 391.992L303.824 236.584L273.487 195.616L271.379 195.984V195.992ZM273.62 199.234C277.249 204.133 301.183 236.456 301.505 236.88C301.416 237.36 277.449 360.631 273.62 380.29V199.242V199.234Z" fill="#E0F416"/>
<path d="M272.5 195.992L329.146 217.684L544.846 195.992H272.5Z" fill="#ABC2BA"/>
<path d="M272.501 195.184L271.969 196.705L328.926 218.525L545.002 196.793L544.847 195.184H272.501ZM528.724 196.801C501.394 199.555 330.002 216.788 329.347 216.852C328.748 216.628 283.808 199.411 276.995 196.801H528.735H528.724Z" fill="#E0F416"/>
<path d="M272.5 195.992H0.154297L215.865 217.684L272.5 195.992Z" fill="#E0F416"/>
<path d="M0.155363 195.184L0 196.793L216.077 218.525L273.034 196.705L272.501 195.184H0.155363ZM268.007 196.801C261.194 199.411 216.243 216.628 215.655 216.852C214.989 216.788 43.6082 199.547 16.2782 196.801H268.018H268.007Z" fill="#E0F416"/>
<path d="M242.34 236.735L272.499 391.88V195.992V196L242.34 236.735Z" fill="#ABC2BA"/>
<path d="M241.355 236.359L241.178 236.591L271.393 392L273.623 391.888V196L271.515 195.632L241.355 236.359ZM271.382 199.242V380.289C267.553 360.63 243.586 237.36 243.497 236.879C243.808 236.455 267.753 204.133 271.382 199.234V199.242Z" fill="#E0F416"/>
<path d="M272.5 195.992L410.615 96.6553L302.671 155.257L272.5 195.992Z" fill="#E0F416"/>
<path d="M301.993 154.608L301.793 154.72L271.512 195.616L273.298 196.568L411.413 97.2235L409.948 96.0068L301.993 154.608ZM398.419 104.284C380.022 117.515 286.026 185.122 277.027 191.589C282.519 184.177 303.336 156.065 303.547 155.785C303.902 155.593 378.49 115.098 398.419 104.284Z" fill="#E0F416"/>
<path d="M329.146 174.3L410.615 96.6553L272.5 195.992L329.146 174.3Z" fill="#ABC2BA"/>
<path d="M271.713 195.424L273.033 196.704L329.89 174.932L411.514 97.1435L409.828 96.0869L271.713 195.424ZM400.019 105.428C384.972 119.764 328.659 173.427 328.392 173.675C328.015 173.819 288.912 188.796 278.615 192.742C287.603 186.282 381.621 118.66 400.007 105.436L400.019 105.428Z" fill="#E0F416"/>
<path d="M134.385 96.6553L215.864 174.3L272.499 195.992L134.385 96.6553Z" fill="#E0F416"/>
<path d="M133.488 97.1435L215.111 174.932L271.968 196.704L273.289 195.424L135.174 96.0869L133.477 97.1435H133.488ZM144.994 105.428C163.392 118.66 257.399 186.274 266.387 192.734C256.079 188.788 216.987 173.819 216.609 173.667C216.343 173.419 160.03 119.756 144.994 105.42V105.428Z" fill="#E0F416"/>
<path d="M272.499 195.992L242.34 155.257L134.385 96.6553L272.499 195.992Z" fill="#ABC2BA"/>
<path d="M133.592 97.2238L271.706 196.569L273.493 195.616L243.211 154.721L135.057 96.0151L133.592 97.2318V97.2238ZM146.585 104.284C166.514 115.106 241.114 155.601 241.458 155.785C241.669 156.057 262.485 184.178 267.978 191.59C258.99 185.122 164.983 117.515 146.585 104.284Z" fill="#E0F416"/>
<path d="M302.671 236.736L410.615 295.337L272.5 196L302.671 236.736Z" fill="#ABC2BA"/>
<path d="M271.512 196.384L301.804 237.272L409.948 295.985L411.413 294.769L273.298 195.44L271.512 196.392V196.384ZM277.027 200.403C286.026 206.87 380.022 274.469 398.419 287.701C378.479 276.879 303.89 236.391 303.547 236.199C303.347 235.919 282.519 207.807 277.027 200.403Z" fill="#E0F416"/>
<path d="M272.5 195.992V196L410.615 295.336L329.146 217.684L272.5 195.992Z" fill="#E0F416"/>
<path d="M271.713 196.576L409.828 295.905L411.514 294.848L329.89 217.06L273.033 195.279L271.713 196.576ZM278.593 199.242C288.857 203.172 328.015 218.172 328.392 218.316C328.659 218.565 384.972 272.227 400.019 286.563C381.621 273.332 287.536 205.669 278.593 199.234V199.242Z" fill="#E0F416"/>
<path d="M272.499 195.992L215.864 217.684L134.385 295.336L272.499 196V195.992Z" fill="#ABC2BA"/>
<path d="M215.332 216.972L215.11 217.06L133.486 294.848L135.184 295.905L273.299 196.576L271.978 195.279L215.343 216.98L215.332 216.972ZM266.419 199.234C257.475 205.661 163.391 273.332 144.993 286.563C160.028 272.227 216.353 218.565 216.619 218.316C216.996 218.172 256.155 203.172 266.419 199.242V199.234Z" fill="#E0F416"/>
<path d="M134.385 295.337L242.34 236.736L272.499 196L134.385 295.337Z" fill="#E0F416"/>
<path d="M133.592 294.76L135.057 295.977L243.211 237.271L273.493 196.384L271.706 195.431L133.592 294.76ZM267.978 200.394C262.497 207.806 241.669 235.918 241.458 236.19C241.114 236.383 166.514 276.87 146.585 287.692C164.994 274.46 258.979 206.862 267.978 200.394Z" fill="#E0F416"/>
<path d="M120.256 17.84L161.152 61.328C163.456 63.632 165.568 66.704 166.432 68.816L166.816 68.72C166.24 66.128 165.856 62.192 165.856 56.624V18.8H174.496V86.96H173.728L132.736 43.472C130.528 41.168 128.416 38.096 127.456 35.984L127.168 36.08C127.744 38.672 128.032 42.608 128.032 48.08V86H119.392V17.84H120.256ZM220.53 17.36C240.882 17.36 255.57 32.048 255.57 52.4C255.57 72.752 240.882 87.44 220.53 87.44C200.178 87.44 185.49 72.752 185.49 52.4C185.49 32.048 200.178 17.36 220.53 17.36ZM220.53 26.192C205.554 26.192 194.898 37.04 194.898 52.4C194.898 67.76 205.554 78.608 220.53 78.608C235.506 78.608 246.162 67.76 246.162 52.4C246.162 37.04 235.506 26.192 220.53 26.192ZM288.374 18.8C300.662 18.8 308.438 25.712 308.438 37.136C308.438 47.984 299.702 54.608 291.35 54.608C290.294 54.608 289.046 54.416 288.086 54.128V54.512C290.294 55.376 292.118 56.912 294.23 59.504L315.158 86H303.926L279.83 55.184H277.334C276.182 55.184 275.606 55.184 275.03 54.896L274.838 55.088C275.03 55.664 275.126 56.432 275.126 57.584V86H266.486V18.8H288.374ZM275.03 26.576L274.838 26.768C275.03 27.248 275.126 28.016 275.126 29.264V44.72C275.126 45.776 275.03 46.544 274.838 47.12L275.03 47.216C275.702 47.024 276.182 46.928 277.43 46.928H288.374C295.286 46.928 299.222 43.28 299.222 37.04C299.222 31.088 295.574 26.96 288.374 26.96H277.43C276.182 26.96 275.606 26.864 275.03 26.576ZM360.828 18.8V27.056H343.644C342.492 27.056 341.82 27.056 341.148 26.768L341.052 26.96C341.244 27.44 341.34 28.208 341.34 29.264V86H332.7V29.264C332.7 28.208 332.796 27.44 332.988 26.96L332.796 26.768C332.124 27.056 331.548 27.056 330.396 27.056H313.116V18.8H360.828ZM422.23 18.8V86H413.59V56.72C413.59 55.664 413.686 54.8 413.878 54.32L413.686 54.128C413.014 54.416 412.438 54.512 411.286 54.512H380.086C378.934 54.512 378.358 54.416 377.686 54.128L377.494 54.32C377.686 54.8 377.782 55.664 377.782 56.72V86H369.142V18.8H377.782V43.952C377.782 45.104 377.686 45.872 377.494 46.352L377.686 46.544C378.358 46.256 378.934 46.16 380.086 46.16H411.286C412.438 46.16 413.014 46.256 413.686 46.544L413.878 46.352C413.686 45.872 413.59 45.104 413.59 43.952V18.8H422.23Z" fill="#ABC2BA"/>
<path d="M528.256 121.176L489.76 135.096C483.328 137.4 481.408 138.072 477.184 138.552L477.184 138.936C481.408 139.416 483.904 140.184 489.664 142.2L527.2 155.064L527.2 164.952L458.944 139.224L458.944 138.264L500.8 122.616C504.352 121.272 506.464 120.984 509.248 120.792L509.248 120.408C506.464 120.12 504.352 119.832 500.8 118.584L458.944 102.84L458.944 101.88L527.2 76.152L527.2 86.136L489.664 98.904C483.904 100.92 481.408 101.688 477.184 102.168L477.184 102.552C481.408 103.128 483.328 103.704 489.76 106.008L528.256 120.024L528.256 121.176ZM527.2 210.495L519.04 210.495L519.04 183.711C519.04 182.559 519.136 181.983 519.424 181.311L519.232 181.119C518.752 181.311 517.888 181.407 516.736 181.407L503.008 181.407C501.952 181.407 501.088 181.311 500.608 181.119L500.416 181.311C500.704 181.983 500.8 182.559 500.8 183.711L500.8 207.423L492.64 207.423L492.64 183.711C492.64 182.559 492.736 181.983 493.024 181.311L492.832 181.119C492.352 181.311 491.488 181.407 490.336 181.407L470.464 181.407C469.312 181.407 468.448 181.311 467.968 181.119L467.776 181.311C468.064 181.983 468.16 182.559 468.16 183.711L468.16 210.975L460 210.975L460 172.767L527.2 172.767L527.2 210.495ZM528.64 239.549C528.64 246.077 526.72 251.933 524.224 256.925L515.968 252.989C518.368 248.669 519.904 243.869 519.904 239.357C519.904 233.309 517.312 230.429 513.184 230.429C509.632 230.429 507.232 232.253 503.872 236.669L495.232 248.093C489.76 255.485 484.576 259.037 476.992 259.037C465.088 259.037 458.56 250.589 458.56 237.821C458.56 229.565 461.248 221.885 464.8 216.413L472.864 220.445C470.08 225.149 467.392 231.485 467.392 237.917C467.392 245.693 471.232 249.725 476.512 249.725C480.64 249.725 483.808 247.421 487.936 241.949L496.576 230.717C501.376 224.477 505.984 221.021 512.8 221.021C522.496 221.021 528.64 227.933 528.64 239.549ZM527.2 308.922L518.944 308.922L518.944 291.738C518.944 290.586 518.944 289.914 519.232 289.242L519.04 289.146C518.56 289.338 517.792 289.434 516.736 289.434L460 289.434L460 280.794L516.736 280.794C517.792 280.794 518.56 280.89 519.04 281.082L519.232 280.89C518.944 280.218 518.944 279.642 518.944 278.49L518.944 261.21L527.2 261.21L527.2 308.922Z" fill="#ABC2BA"/>
<path d="M404.232 374.64C397.704 374.64 391.848 372.72 386.856 370.224L390.792 361.968C395.112 364.368 399.912 365.904 404.424 365.904C410.472 365.904 413.352 363.312 413.352 359.184C413.352 355.632 411.528 353.232 407.112 349.872L395.688 341.232C388.296 335.76 384.744 330.576 384.744 322.992C384.744 311.088 393.192 304.56 405.96 304.56C414.216 304.56 421.896 307.248 427.368 310.8L423.336 318.864C418.632 316.08 412.296 313.392 405.864 313.392C398.088 313.392 394.056 317.232 394.056 322.512C394.056 326.64 396.36 329.808 401.832 333.936L413.064 342.576C419.304 347.376 422.76 351.984 422.76 358.8C422.76 368.496 415.848 374.64 404.232 374.64ZM343.346 374.64C322.993 374.64 308.306 359.952 308.306 339.6C308.306 319.248 322.994 304.56 343.346 304.56C363.698 304.56 378.386 319.248 378.386 339.6C378.386 359.952 363.698 374.64 343.346 374.64ZM343.346 365.808C358.322 365.808 368.978 354.96 368.978 339.6C368.978 324.24 358.322 313.392 343.346 313.392C328.37 313.392 317.714 324.24 317.714 339.6C317.714 354.96 328.369 365.808 343.346 365.808ZM246.496 373.2L246.496 331.056C246.496 314.736 256.768 304.656 272.608 304.656C288.544 304.656 298.816 314.736 298.816 331.056L298.816 373.2L289.792 373.2L289.792 331.44C289.792 320.016 283.072 313.488 272.608 313.488C262.24 313.488 255.52 320.016 255.52 331.44L255.52 373.2L246.496 373.2ZM191.328 373.2L191.328 364.944L208.512 364.944C209.664 364.944 210.336 364.944 211.008 365.232L211.104 365.04C210.912 364.56 210.816 363.792 210.816 362.736L210.816 306L219.456 306L219.456 362.736C219.456 363.792 219.36 364.56 219.168 365.04L219.36 365.232C220.032 364.944 220.608 364.944 221.76 364.944L239.04 364.944L239.04 373.2L191.328 373.2ZM129.926 373.2L129.926 306L138.566 306L138.566 335.28C138.566 336.336 138.47 337.2 138.278 337.68L138.47 337.872C139.142 337.584 139.718 337.488 140.87 337.488L172.07 337.488C173.222 337.488 173.798 337.584 174.47 337.872L174.662 337.68C174.47 337.2 174.374 336.336 174.374 335.28L174.374 306L183.014 306L183.014 373.2L174.374 373.2L174.374 348.048C174.374 346.896 174.47 346.128 174.662 345.648L174.47 345.456C173.798 345.744 173.222 345.84 172.07 345.84L140.87 345.84C139.718 345.84 139.142 345.744 138.47 345.456L138.278 345.648C138.47 346.128 138.566 346.896 138.566 348.048L138.566 373.2L129.926 373.2Z" fill="#ABC2BA"/>
<path d="M18.8 259.88L26.96 259.88L26.96 286.664C26.96 287.816 26.864 288.392 26.576 289.064L26.768 289.256C27.248 289.064 28.112 288.968 29.264 288.968L42.992 288.968C44.048 288.968 44.912 289.064 45.392 289.256L45.584 289.064C45.296 288.392 45.2 287.816 45.2 286.664L45.2 262.952L53.36 262.952L53.36 286.664C53.36 287.816 53.264 288.392 52.976 289.064L53.168 289.256C53.648 289.064 54.512 288.968 55.664 288.968L75.536 288.968C76.688 288.968 77.552 289.064 78.032 289.256L78.224 289.064C77.936 288.392 77.84 287.816 77.84 286.664L77.84 259.4L86 259.4L86 297.608L18.8 297.608L18.8 259.88ZM86 254.538L17.36 223.146L17.36 222.186L86 190.794L86 200.49L67.184 208.842L67.184 236.49L86 244.842L86 254.538ZM59.984 234.09C59.888 233.226 59.792 231.69 59.792 228.714L59.792 216.618C59.792 213.642 59.888 212.106 59.984 211.242L59.888 211.146C58.928 211.914 57.392 212.874 54.416 214.122L40.4 220.074C36.944 221.418 34.256 222.282 32.528 222.474L32.528 222.858C34.256 223.05 36.944 223.914 40.4 225.258L54.416 231.21C57.392 232.458 58.928 233.418 59.888 234.186L59.984 234.09ZM17.36 165.013C17.36 158.485 19.28 152.629 21.776 147.637L30.032 151.573C27.632 155.893 26.096 160.693 26.096 165.205C26.096 171.253 28.688 174.133 32.816 174.133C36.368 174.133 38.768 172.309 42.128 167.893L50.768 156.469C56.24 149.077 61.424 145.525 69.008 145.525C80.912 145.525 87.44 153.973 87.44 166.741C87.44 174.997 84.752 182.677 81.2 188.149L73.136 184.117C75.92 179.413 78.608 173.077 78.608 166.645C78.608 158.869 74.768 154.837 69.488 154.837C65.36 154.837 62.192 157.141 58.064 162.613L49.424 173.845C44.624 180.085 40.016 183.541 33.2 183.541C23.504 183.541 17.36 176.629 17.36 165.013ZM18.8 95.6405L27.056 95.6405L27.056 112.824C27.056 113.976 27.056 114.648 26.768 115.32L26.96 115.416C27.44 115.224 28.208 115.128 29.264 115.128L86 115.128L86 123.768L29.264 123.768C28.208 123.768 27.44 123.672 26.96 123.48L26.768 123.672C27.056 124.344 27.056 124.92 27.056 126.072L27.056 143.352L18.8 143.352L18.8 95.6405Z" fill="#ABC2BA"/>
</svg>
