<svg width="666" height="453" viewBox="0 0 666 453" fill="none" xmlns="http://www.w3.org/2000/svg">
<rect width="666" height="453" fill="#ABC2BA"/>
<line x1="1" y1="2" x2="0.99998" y2="453" stroke="#CCCCCC" stroke-width="2"/>
<line x1="40" y1="2" x2="40" y2="453" stroke="#CCCCCC" stroke-width="2"/>
<line x1="79" y1="2" x2="79" y2="453" stroke="#CCCCCC" stroke-width="2"/>
<line x1="118" y1="2" x2="118" y2="453" stroke="#CCCCCC" stroke-width="2"/>
<line x1="157" y1="2" x2="157" y2="453" stroke="#CCCCCC" stroke-width="2"/>
<line x1="196" y1="2" x2="196" y2="453" stroke="#CCCCCC" stroke-width="2"/>
<line x1="235" y1="2" x2="235" y2="453" stroke="#CCCCCC" stroke-width="2"/>
<line y1="429.102" x2="664" y2="429.102" stroke="#CCCCCC" stroke-width="2"/>
<line x1="274" y1="2" x2="274" y2="453" stroke="#CCCCCC" stroke-width="2"/>
<line y1="390.274" x2="664" y2="390.274" stroke="#CCCCCC" stroke-width="2"/>
<line x1="313" y1="2" x2="313" y2="453" stroke="#CCCCCC" stroke-width="2"/>
<line y1="351.446" x2="664" y2="351.446" stroke="#CCCCCC" stroke-width="2"/>
<line x1="353" y1="2" x2="353" y2="453" stroke="#CCCCCC" stroke-width="2"/>
<line y1="311.623" x2="664" y2="311.623" stroke="#CCCCCC" stroke-width="2"/>
<line x1="392" y1="2" x2="392" y2="453" stroke="#CCCCCC" stroke-width="2"/>
<line y1="272.795" x2="664" y2="272.795" stroke="#CCCCCC" stroke-width="2"/>
<line x1="431" y1="2" x2="431" y2="453" stroke="#CCCCCC" stroke-width="2"/>
<line y1="233.967" x2="664" y2="233.967" stroke="#CCCCCC" stroke-width="2"/>
<line x1="470" y1="2" x2="470" y2="453" stroke="#CCCCCC" stroke-width="2"/>
<line y1="195.139" x2="664" y2="195.139" stroke="#CCCCCC" stroke-width="2"/>
<line x1="509" y1="2" x2="509" y2="453" stroke="#CCCCCC" stroke-width="2"/>
<line y1="156.311" x2="664" y2="156.311" stroke="#CCCCCC" stroke-width="2"/>
<line x1="548" y1="2" x2="548" y2="453" stroke="#CCCCCC" stroke-width="2"/>
<line y1="117.483" x2="664" y2="117.483" stroke="#CCCCCC" stroke-width="2"/>
<line x1="587" y1="2" x2="587" y2="453" stroke="#CCCCCC" stroke-width="2"/>
<line y1="78.6555" x2="664" y2="78.6555" stroke="#CCCCCC" stroke-width="2"/>
<line x1="626" y1="2" x2="626" y2="453" stroke="#CCCCCC" stroke-width="2"/>
<line y1="39.8279" x2="664" y2="39.8279" stroke="#CCCCCC" stroke-width="2"/>
<line x1="665" y1="2" x2="665" y2="453" stroke="#CCCCCC" stroke-width="2"/>
<line y1="1" x2="666.001" y2="1" stroke="#CCCCCC" stroke-width="2"/>
<line x1="78" y1="40" x2="312" y2="40" stroke="#181A20" stroke-width="2"/>
<line x1="158" y1="79" x2="392" y2="79" stroke="#181A20" stroke-width="2"/>
<line x1="280" y1="117" x2="514" y2="117" stroke="#181A20" stroke-width="2"/>
<line x1="121" y1="156" x2="355" y2="156" stroke="#181A20" stroke-width="2"/>
<line x1="312" y1="195" x2="546" y2="195" stroke="#181A20" stroke-width="2"/>
<line x1="39" y1="234" x2="156" y2="234" stroke="#181A20" stroke-width="2"/>
<line x1="332" y1="273" x2="566" y2="273" stroke="#181A20" stroke-width="2"/>
<line x1="300" y1="234" x2="392" y2="234" stroke="#181A20" stroke-width="2"/>
<line x1="184" y1="273" x2="276" y2="273" stroke="#181A20" stroke-width="2"/>
<line x1="98" y1="351" x2="158" y2="351" stroke="#181A20" stroke-width="2"/>
<line x1="66" y1="312" x2="300" y2="312" stroke="#181A20" stroke-width="2"/>
<line x1="449" y1="351" x2="586" y2="351" stroke="#181A20" stroke-width="2"/>
<line x1="225" y1="390" x2="300" y2="390" stroke="#181A20" stroke-width="2"/>
<line x1="495" y1="79" x2="570" y2="79" stroke="#181A20" stroke-width="2"/>
<circle cx="339.843" cy="99.8431" r="6.84307" fill="#ABC2BA"/>
<circle cx="222.843" cy="143.843" r="6.84307" fill="#ABC2BA"/>
<circle cx="58.8431" cy="218.843" r="6.84307" fill="#ABC2BA"/>
<circle cx="222.843" cy="204.843" r="6.84307" fill="#ABC2BA"/>
<circle cx="260.843" cy="258.843" r="6.84307" fill="#ABC2BA"/>
<circle cx="454.843" cy="258.843" r="6.84307" fill="#ABC2BA"/>
<circle cx="455.843" cy="180.843" r="6.84307" fill="#ABC2BA"/>
<circle cx="369.843" cy="180.843" r="6.84307" fill="#ABC2BA"/>
<circle cx="568.843" cy="62.8431" r="6.84307" fill="#ABC2BA"/>
<circle cx="565.843" cy="249.843" r="6.84307" fill="#ABC2BA"/>
<circle cx="448.843" cy="329.843" r="6.84307" fill="#ABC2BA"/>
<circle cx="299.843" cy="367.843" r="6.84307" fill="#ABC2BA"/>
<circle cx="213.843" cy="336.843" r="6.84307" fill="#ABC2BA"/>
<circle cx="97.8431" cy="329.843" r="6.84307" fill="#ABC2BA"/>
<circle cx="140.843" cy="258.843" r="6.84307" fill="#ABC2BA"/>
</svg>
