<svg width="181" height="179" viewBox="0 0 181 179" fill="none" xmlns="http://www.w3.org/2000/svg">
<mask id="path-1-inside-1_168_186" fill="white">
<path fill-rule="evenodd" clip-rule="evenodd" d="M90.4625 5.10848e-05C40.4965 6.85276e-05 -1.52686e-05 39.9162 -3.89685e-06 89.1498C7.4749e-06 138.383 40.4966 178.299 90.4625 178.299C134.151 178.299 170.612 147.804 179.083 107.211L158.381 93.5422C156.09 128.544 126.524 156.216 90.4625 156.216L90.4625 156.23C52.8808 156.23 22.4011 126.209 22.4011 89.1638C22.4011 52.119 52.8807 22.0975 90.4625 22.0975C117.162 22.0975 140.277 37.25 151.425 59.3085L141.407 63.7137L180.295 87.0434L180.94 46.3294L171.922 50.2949C157.27 20.5173 126.298 4.95183e-05 90.4625 5.10848e-05Z"/>
</mask>
<path fill-rule="evenodd" clip-rule="evenodd" d="M90.4625 5.10848e-05C40.4965 6.85276e-05 -1.52686e-05 39.9162 -3.89685e-06 89.1498C7.4749e-06 138.383 40.4966 178.299 90.4625 178.299C134.151 178.299 170.612 147.804 179.083 107.211L158.381 93.5422C156.09 128.544 126.524 156.216 90.4625 156.216L90.4625 156.23C52.8808 156.23 22.4011 126.209 22.4011 89.1638C22.4011 52.119 52.8807 22.0975 90.4625 22.0975C117.162 22.0975 140.277 37.25 151.425 59.3085L141.407 63.7137L180.295 87.0434L180.94 46.3294L171.922 50.2949C157.27 20.5173 126.298 4.95183e-05 90.4625 5.10848e-05Z" fill="#E0F416"/>
<path d="M-3.89685e-06 89.1498L-1.40394 89.1498L-1.40394 89.1498L-3.89685e-06 89.1498ZM90.4625 5.10848e-05L90.4625 -1.40388L90.4625 -1.40388L90.4625 5.10848e-05ZM90.4625 178.299L90.4625 179.703H90.4625L90.4625 178.299ZM179.083 107.211L180.458 107.498L180.652 106.565L179.857 106.04L179.083 107.211ZM158.381 93.5422L159.155 92.3706L157.138 91.039L156.98 93.4505L158.381 93.5422ZM90.4625 156.216L90.4625 154.812L89.0586 154.812L89.0586 156.216L90.4625 156.216ZM90.4625 156.23L90.4625 157.634L91.8665 157.634L91.8665 156.23L90.4625 156.23ZM22.4011 89.1638L23.805 89.1638L22.4011 89.1638ZM151.425 59.3085L151.99 60.5937L153.346 59.9974L152.678 58.6753L151.425 59.3085ZM141.407 63.7137L140.842 62.4285L138.357 63.5212L140.685 64.9176L141.407 63.7137ZM180.295 87.0434L179.573 88.2473L181.66 89.4996L181.699 87.0657L180.295 87.0434ZM180.94 46.3294L182.344 46.3516L182.379 44.1632L180.375 45.0442L180.94 46.3294ZM171.922 50.2949L170.663 50.9147L171.256 52.1214L172.487 51.5801L171.922 50.2949ZM1.40393 89.1498C1.40392 40.7107 41.2525 1.404 90.4625 1.40398L90.4625 -1.40388C39.7405 -1.40386 -1.40395 39.1216 -1.40394 89.1498L1.40393 89.1498ZM90.4625 176.896C41.2526 176.896 1.40394 137.589 1.40393 89.1498L-1.40394 89.1498C-1.40392 139.178 39.7405 179.703 90.4625 179.703L90.4625 176.896ZM177.709 106.925C169.374 146.865 133.488 176.895 90.4625 176.896L90.4625 179.703C134.815 179.703 171.85 148.743 180.458 107.498L177.709 106.925ZM157.608 94.7138L178.31 108.383L179.857 106.04L159.155 92.3706L157.608 94.7138ZM90.4625 157.62C127.25 157.62 157.442 129.388 159.782 93.6339L156.98 93.4505C154.738 127.701 125.797 154.812 90.4625 154.812L90.4625 157.62ZM91.8665 156.23L91.8665 156.216L89.0586 156.216L89.0586 156.23L91.8665 156.23ZM20.9971 89.1638C20.9971 127.004 52.1251 157.634 90.4625 157.634L90.4625 154.826C53.6364 154.826 23.805 125.414 23.805 89.1638L20.9971 89.1638ZM90.4625 20.6935C52.1251 20.6935 20.9971 51.324 20.9971 89.1638L23.805 89.1638C23.805 52.914 53.6364 23.5014 90.4625 23.5014L90.4625 20.6935ZM152.678 58.6753C141.297 36.1551 117.704 20.6935 90.4625 20.6935L90.4625 23.5014C116.62 23.5014 139.257 38.3449 150.172 59.9417L152.678 58.6753ZM150.86 58.0233L140.842 62.4285L141.972 64.9989L151.99 60.5937L150.86 58.0233ZM140.685 64.9176L179.573 88.2473L181.017 85.8395L142.129 62.5098L140.685 64.9176ZM181.699 87.0657L182.344 46.3516L179.536 46.3072L178.891 87.0212L181.699 87.0657ZM180.375 45.0442L171.357 49.0097L172.487 51.5801L181.505 47.6146L180.375 45.0442ZM90.4625 1.40398C125.751 1.40398 156.242 21.6066 170.663 50.9147L173.182 49.6751C158.299 19.4279 126.845 -1.40388 90.4625 -1.40388L90.4625 1.40398Z" fill="#E0F416" mask="url(#path-1-inside-1_168_186)"/>
</svg>
