<svg width="1438" height="1134" viewBox="0 0 1438 1134" fill="none" xmlns="http://www.w3.org/2000/svg">
<g clip-path="url(#clip0_232_971)">
<rect width="1438" height="1134" fill="#181A20"/>
<rect x="-3" y="206" width="306" height="807" fill="#ABC2BA"/>
<rect x="1141" y="206" width="299" height="807" fill="#ABC2BA"/>
<rect x="-3" y="206" width="203" height="1443" transform="rotate(-90 -3 206)" fill="#ABC2BA"/>
<rect x="-3" y="1137" width="203" height="1446" transform="rotate(-90 -3 1137)" fill="#ABC2BA"/>
<line x1="1438" y1="4.28292e-08" x2="1438" y2="1137" stroke="#181A20" stroke-width="2"/>
<line x1="1352" y1="4.18456e-08" x2="1352" y2="1137" stroke="#181A20" stroke-width="2"/>
<line x1="-1" y1="78" x2="1437" y2="78" stroke="#181A20" stroke-width="2"/>
<line x1="1287" y1="4.17584e-08" x2="1287" y2="1137" stroke="#181A20" stroke-width="2"/>
<line x1="-1" y1="153" x2="1437" y2="153" stroke="#181A20" stroke-width="2"/>
<line x1="1211" y1="4.17584e-08" x2="1211" y2="1137" stroke="#181A20" stroke-width="2"/>
<line x1="-1" y1="229" x2="1437" y2="229" stroke="#181A20" stroke-width="2"/>
<line x1="1135" y1="4.18456e-08" x2="1135" y2="1137" stroke="#181A20" stroke-width="2"/>
<line x1="-1" y1="305" x2="1437" y2="305" stroke="#181A20" stroke-width="2"/>
<line x1="1060" y1="4.1933e-08" x2="1060" y2="1137" stroke="#181A20" stroke-width="2"/>
<line x1="-1" y1="380" x2="1437" y2="380" stroke="#181A20" stroke-width="2"/>
<line x1="984" y1="4.18456e-08" x2="984" y2="1137" stroke="#181A20" stroke-width="2"/>
<line x1="-1" y1="456" x2="1437" y2="456" stroke="#181A20" stroke-width="2"/>
<line x1="909" y1="4.18456e-08" x2="909" y2="1137" stroke="#181A20" stroke-width="2"/>
<line x1="-1" y1="531" x2="1437" y2="531" stroke="#181A20" stroke-width="2"/>
<line x1="833" y1="4.18456e-08" x2="833" y2="1137" stroke="#181A20" stroke-width="2"/>
<line x1="-1" y1="607" x2="1437" y2="607" stroke="#181A20" stroke-width="2"/>
<line x1="757" y1="4.18456e-08" x2="757" y2="1137" stroke="#181A20" stroke-width="2"/>
<line x1="-1" y1="683" x2="1437" y2="683" stroke="#181A20" stroke-width="2"/>
<line x1="681" y1="4.18167e-08" x2="681" y2="1137" stroke="#181A20" stroke-width="2"/>
<line x1="-1" y1="759" x2="1437" y2="759" stroke="#181A20" stroke-width="2"/>
<line x1="605" y1="4.18167e-08" x2="605" y2="1137" stroke="#181A20" stroke-width="2"/>
<line x1="-1" y1="835" x2="1437" y2="835" stroke="#181A20" stroke-width="2"/>
<line x1="529" y1="4.18167e-08" x2="529" y2="1137" stroke="#181A20" stroke-width="2"/>
<line x1="-1" y1="911" x2="1437" y2="911" stroke="#181A20" stroke-width="2"/>
<line x1="454" y1="4.17586e-08" x2="454" y2="1137" stroke="#181A20" stroke-width="2"/>
<line x1="-1" y1="986" x2="1437" y2="986" stroke="#181A20" stroke-width="2"/>
<line x1="378" y1="4.18167e-08" x2="378" y2="1137" stroke="#181A20" stroke-width="2"/>
<line x1="-1" y1="1062" x2="1437" y2="1062" stroke="#181A20" stroke-width="2"/>
<line x1="303" y1="4.17296e-08" x2="303" y2="1137" stroke="#181A20" stroke-width="2"/>
<line x1="227" y1="4.17296e-08" x2="227" y2="1137" stroke="#181A20" stroke-width="2"/>
<line x1="151" y1="4.17586e-08" x2="151" y2="1137" stroke="#181A20" stroke-width="2"/>
<line x1="76" y1="4.16141e-08" x2="75.9999" y2="1137" stroke="#181A20" stroke-width="2"/>
<line y1="4.2678e-08" x2="-5.0948e-05" y2="1138" stroke="#181A20" stroke-width="2"/>
<rect x="361" y="250" width="15.3214" height="639.851" fill="#ABC2BA"/>
<rect x="1060.68" y="250" width="15.3214" height="639.851" fill="#ABC2BA"/>
<rect x="495.975" y="265.321" width="15.3214" height="580.025" transform="rotate(-90 495.975 265.321)" fill="#ABC2BA"/>
<rect x="376.324" y="889.851" width="15.3214" height="627.448" transform="rotate(-90 376.324 889.851)" fill="#ABC2BA"/>
<rect x="655.756" y="835.861" width="15.3214" height="356.04" transform="rotate(-90 655.756 835.861)" fill="#ABC2BA"/>
<rect x="655.756" y="322.23" width="15.3214" height="356.04" transform="rotate(-90 655.756 322.23)" fill="#ABC2BA"/>
<rect x="996.475" y="479.821" width="15.3214" height="356.04" fill="#ABC2BA"/>
<rect x="1011.8" y="534.541" width="15.3214" height="70.0407" transform="rotate(90 1011.8 534.541)" fill="#ABC2BA"/>
<rect x="725.797" y="422.183" width="15.3214" height="70.0407" transform="rotate(90 725.797 422.183)" fill="#ABC2BA"/>
<rect x="494.516" y="534.541" width="15.3214" height="70.0407" transform="rotate(90 494.516 534.541)" fill="#ABC2BA"/>
<rect x="610.521" y="419.265" width="15.3214" height="70.0407" transform="rotate(90 610.521 419.265)" fill="#ABC2BA"/>
<rect x="609.791" y="533.811" width="15.3214" height="70.0407" transform="rotate(90 609.791 533.811)" fill="#ABC2BA"/>
<rect x="439.066" y="418.536" width="15.3214" height="77.3366" transform="rotate(90 439.066 418.536)" fill="#ABC2BA"/>
<rect x="547.047" y="363.816" width="15.3214" height="66.3928" transform="rotate(90 547.047 363.816)" fill="#ABC2BA"/>
<rect x="428.123" y="250" width="15.3214" height="66.3928" transform="rotate(90 428.123 250)" fill="#ABC2BA"/>
<rect x="725.797" y="361.628" width="15.3214" height="70.0407" transform="rotate(90 725.797 361.628)" fill="#ABC2BA"/>
<rect x="547.047" y="306.178" width="15.3214" height="121.112" transform="rotate(90 547.047 306.178)" fill="#ABC2BA"/>
<rect x="773.949" y="649.816" width="15.3214" height="110.168" transform="rotate(90 773.949 649.816)" fill="#ABC2BA"/>
<rect x="663.783" y="591.448" width="15.3214" height="175.102" transform="rotate(90 663.783 591.448)" fill="#ABC2BA"/>
<rect x="671.078" y="766.55" width="15.3214" height="130.597" transform="rotate(90 671.078 766.55)" fill="#ABC2BA"/>
<rect x="957.076" y="549.862" width="15.3214" height="70.0407" transform="rotate(-180 957.076 549.862)" fill="#ABC2BA"/>
<rect x="958.537" y="666.596" width="15.3214" height="70.0407" transform="rotate(-180 958.537 666.596)" fill="#ABC2BA"/>
<rect x="725.797" y="770.198" width="15.3214" height="58.3673" transform="rotate(-180 725.797 770.198)" fill="#ABC2BA"/>
<rect x="671.078" y="821.999" width="15.3214" height="51.8009" transform="rotate(-180 671.078 821.999)" fill="#ABC2BA"/>
<rect x="783.434" y="835.861" width="15.3214" height="65.6632" transform="rotate(-180 783.434 835.861)" fill="#ABC2BA"/>
<rect x="612.709" y="832.754" width="15.3214" height="65.6632" transform="rotate(-180 612.709 832.754)" fill="#ABC2BA"/>
<rect x="494.516" y="832.214" width="15.3214" height="65.6632" transform="rotate(-180 494.516 832.214)" fill="#ABC2BA"/>
<rect x="439.066" y="773.846" width="15.3214" height="65.6632" transform="rotate(-180 439.066 773.846)" fill="#ABC2BA"/>
<rect x="555.072" y="715.479" width="15.3214" height="65.6632" transform="rotate(-180 555.072 715.479)" fill="#ABC2BA"/>
<rect x="841.07" y="431.668" width="15.3214" height="70.0407" transform="rotate(-180 841.07 431.668)" fill="#ABC2BA"/>
<rect x="780.514" y="486.387" width="15.3214" height="124.76" transform="rotate(-180 780.514 486.387)" fill="#ABC2BA"/>
<rect x="611.252" y="722.045" width="15.3214" height="126.949" transform="rotate(-180 611.252 722.045)" fill="#ABC2BA"/>
<rect x="841.07" y="778.953" width="15.3214" height="301.321" transform="rotate(-180 841.07 778.953)" fill="#ABC2BA"/>
<rect x="725.797" y="431.668" width="15.3214" height="70.0407" transform="rotate(-180 725.797 431.668)" fill="#ABC2BA"/>
<rect x="668.158" y="606.77" width="15.3214" height="70.0407" transform="rotate(-180 668.158 606.77)" fill="#ABC2BA"/>
<rect x="439.066" y="433.857" width="15.3214" height="70.0407" transform="rotate(-180 439.066 433.857)" fill="#ABC2BA"/>
<rect x="1011.8" y="321.5" width="15.3214" height="70.0407" transform="rotate(-180 1011.8 321.5)" fill="#ABC2BA"/>
<rect x="671.078" y="376.949" width="15.3214" height="70.0407" transform="rotate(-180 671.078 376.949)" fill="#ABC2BA"/>
<rect x="887.035" y="495.143" width="15.3214" height="70.0407" transform="rotate(-90 887.035 495.143)" fill="#ABC2BA"/>
<rect x="765.195" y="376.949" width="15.3214" height="70.0407" transform="rotate(-90 765.195 376.949)" fill="#ABC2BA"/>
<rect x="597.389" y="492.954" width="15.3214" height="243.683" transform="rotate(-90 597.389 492.954)" fill="#ABC2BA"/>
<rect x="361" y="492.954" width="15.3214" height="186.046" transform="rotate(-90 361 492.954)" fill="#ABC2BA"/>
<rect x="597.389" y="722.045" width="15.3214" height="243.683" transform="rotate(-90 597.389 722.045)" fill="#ABC2BA"/>
<rect x="361" y="722.045" width="15.3214" height="194.071" transform="rotate(-90 361 722.045)" fill="#ABC2BA"/>
<rect x="361" y="664.408" width="15.3214" height="127.678" transform="rotate(-90 361 664.408)" fill="#ABC2BA"/>
<rect x="361" y="835.132" width="15.3214" height="194.071" transform="rotate(-90 361 835.132)" fill="#ABC2BA"/>
<rect x="887.035" y="379.867" width="15.3214" height="116.735" transform="rotate(-90 887.035 379.867)" fill="#ABC2BA"/>
<rect x="957.076" y="437.505" width="15.3214" height="116.735" transform="rotate(-90 957.076 437.505)" fill="#ABC2BA"/>
<rect x="895.062" y="720.586" width="15.3214" height="116.735" transform="rotate(-90 895.062 720.586)" fill="#ABC2BA"/>
<rect x="825.75" y="778.953" width="15.3214" height="116.735" transform="rotate(-90 825.75 778.953)" fill="#ABC2BA"/>
<rect x="836.693" y="666.596" width="15.3214" height="116.735" transform="rotate(-90 836.693 666.596)" fill="#ABC2BA"/>
<rect x="887.035" y="366.735" width="15.3214" height="237.847" fill="#ABC2BA"/>
<rect x="711.205" y="479.821" width="15.3214" height="182.398" fill="#ABC2BA"/>
<rect x="595.199" y="250" width="15.3214" height="299.132" fill="#ABC2BA"/>
<rect x="423.746" y="482.01" width="15.3214" height="182.398" fill="#ABC2BA"/>
<rect x="480.654" y="306.908" width="15.3214" height="186.046" fill="#ABC2BA"/>
<rect x="539.75" y="706.724" width="15.3214" height="75.1478" fill="#ABC2BA"/>
<path d="M1266.92 1004V1046H1259.24V1028.9C1259.24 1028.12 1259.3 1027.52 1259.48 1027.22L1259.36 1027.1C1259 1027.28 1258.58 1027.4 1257.74 1027.4H1241.12C1240.28 1027.4 1239.92 1027.28 1239.56 1027.1L1239.44 1027.22C1239.56 1027.52 1239.68 1028.12 1239.68 1028.9V1046H1232V1004H1239.68V1018.7C1239.68 1019.48 1239.56 1020.08 1239.44 1020.38L1239.56 1020.5C1239.92 1020.32 1240.28 1020.26 1241.12 1020.26H1257.74C1258.58 1020.26 1259 1020.32 1259.36 1020.5L1259.48 1020.38C1259.3 1020.08 1259.24 1019.48 1259.24 1018.7V1004H1266.92Z" fill="#181A20"/>
<path d="M1189.84 1004V1011.14H1179.76C1178.92 1011.14 1178.56 1011.08 1178.2 1010.9L1178.08 1011.02C1178.2 1011.32 1178.26 1011.86 1178.26 1012.64V1046H1170.58V1012.64C1170.58 1011.86 1170.7 1011.32 1170.82 1011.02L1170.7 1010.9C1170.28 1011.08 1169.92 1011.14 1169.14 1011.14H1159V1004H1189.84Z" fill="#181A20"/>
<path d="M1080.2 1003L1104.08 1026.82C1105.52 1028.32 1106.48 1029.76 1107.08 1031.08L1107.32 1031.02C1106.9 1029.64 1106.66 1027.18 1106.66 1023.58V1003.6H1114.34V1046.2H1113.08L1089.26 1022.38C1087.76 1020.88 1086.8 1019.44 1086.2 1018.12L1085.96 1018.18C1086.38 1019.56 1086.62 1022.02 1086.62 1025.62V1045.6H1079V1003H1080.2Z" fill="#181A20"/>
<path d="M1026.68 1004V1046H1019V1004H1026.68Z" fill="#181A20"/>
<path d="M948.76 1004C957.16 1004 962.26 1008.38 962.26 1015.88C962.26 1022.54 957.1 1027.22 952.06 1027.22C951.4 1027.22 950.86 1027.16 950.32 1026.98V1027.22C952 1027.7 953.26 1028.72 954.82 1030.64L967.12 1046H957.46L943.54 1027.88C943.24 1027.88 942.94 1027.88 942.64 1027.82C942.04 1027.76 941.74 1027.7 941.44 1027.52L941.32 1027.64C941.56 1028.24 941.68 1029.02 941.68 1029.98V1046H934V1004H948.76ZM941.56 1010.6L941.44 1010.72C941.56 1011.02 941.68 1011.62 941.68 1012.4V1019.78C941.68 1020.56 941.56 1021.1 941.44 1021.4L941.56 1021.52C941.92 1021.34 942.34 1021.28 943.12 1021.28H948.76C952.3 1021.28 954.34 1019.36 954.34 1016.12C954.34 1013 952.42 1010.84 948.76 1010.84H943.12C942.34 1010.84 941.92 1010.78 941.56 1010.6Z" fill="#181A20"/>
<path d="M889.12 1004L874.9 1030.1V1046H867.22V1030.1L853 1004H862.12L868.42 1017.26C870.16 1020.86 870.64 1021.64 871 1023.74H871.12C871.54 1021.64 871.96 1020.86 873.7 1017.26L880.06 1004H889.12Z" fill="#181A20"/>
<path d="M783 1046V1004H799.44C806.7 1004 811.38 1008.08 811.38 1014.44C811.38 1018.7 809.28 1021.76 805.68 1022.96C804.54 1023.38 803.64 1023.56 802.44 1023.62V1023.86C803.76 1023.86 804.54 1023.98 805.8 1024.28C810.96 1025.36 813.84 1028.96 813.84 1034.36C813.84 1041.5 808.68 1046 800.58 1046H783ZM790.56 1021.28C790.92 1021.1 791.34 1021.04 792.12 1021.04H797.52C801.42 1021.04 803.64 1019.06 803.64 1015.7C803.64 1012.52 801.6 1010.78 797.82 1010.78H792.12C791.34 1010.78 790.92 1010.72 790.56 1010.48L790.44 1010.6C790.56 1010.9 790.68 1011.5 790.68 1012.22V1019.54C790.68 1020.26 790.56 1020.86 790.44 1021.16L790.56 1021.28ZM790.56 1039.52C790.92 1039.4 791.28 1039.22 792.18 1039.22H799.08C803.58 1039.22 805.86 1037.3 805.86 1033.52C805.86 1029.68 803.4 1027.7 798.6 1027.7H792.12C791.34 1027.7 790.92 1027.64 790.56 1027.46L790.44 1027.58C790.56 1027.88 790.68 1028.42 790.68 1029.2V1037.72C790.68 1038.5 790.56 1039.1 790.44 1039.4L790.56 1039.52Z" fill="#181A20"/>
<path d="M696 1045.84L716.28 1003H717.54L737.82 1045.84H729.3L724.86 1035.88H708.96L704.52 1045.84H696ZM710.88 1030C711.48 1029.88 712.38 1029.82 713.94 1029.82H719.88C721.44 1029.82 722.34 1029.88 722.94 1030L723 1029.94C722.52 1029.34 721.92 1028.38 721.2 1026.82L718.44 1020.22C717.6 1018.18 717.12 1016.62 717.06 1015.66H716.82C716.7 1016.62 716.22 1018.18 715.38 1020.22L712.62 1026.82C711.96 1028.38 711.3 1029.34 710.82 1029.94L710.88 1030Z" fill="#181A20"/>
<path d="M639.68 1004V1037.36C639.68 1038.14 639.56 1038.68 639.44 1038.98L639.56 1039.1C639.92 1038.92 640.28 1038.86 641.12 1038.86H657.14V1046H632V1004H639.68Z" fill="#181A20"/>
<path d="M493.28 19L501.8 40.06C503.06 43.24 503.42 44.26 503.72 46.72H503.96C504.2 44.26 504.62 42.94 505.64 40L512.72 19.6H521.48L504.68 62.14H503.36L494.12 39.7C493.28 37.72 493.04 36.52 492.86 34.78H492.62C492.44 36.52 492.2 37.72 491.42 39.7L482.12 62.14H480.8L464 19.6H472.76L479.9 40C480.86 42.94 481.28 44.26 481.58 46.72H481.82C482.06 44.26 482.42 43.24 483.68 40.06L492.2 19H493.28Z" fill="#181A20"/>
<path d="M415.96 18C428.8 18 437.98 27.18 437.98 39.9C437.98 52.62 428.8 61.8 415.96 61.8C403.18 61.8 394 52.62 394 39.9C394 27.18 403.18 18 415.96 18ZM415.96 25.62C407.8 25.62 402.1 31.5 402.1 39.9C402.1 48.3 407.8 54.18 415.96 54.18C424.18 54.18 429.88 48.3 429.88 39.9C429.88 31.5 424.18 25.62 415.96 25.62Z" fill="#181A20"/>
<path d="M337.68 18V51.36C337.68 52.14 337.56 52.68 337.44 52.98L337.56 53.1C337.92 52.92 338.28 52.86 339.12 52.86H355.14V60H330V18H337.68Z" fill="#181A20"/>
<path d="M258.68 18V51.36C258.68 52.14 258.56 52.68 258.44 52.98L258.56 53.1C258.92 52.92 259.28 52.86 260.12 52.86H276.14V60H251V18H258.68Z" fill="#181A20"/>
<path d="M189.96 17C202.8 17 211.98 26.18 211.98 38.9C211.98 51.62 202.8 60.8 189.96 60.8C177.18 60.8 168 51.62 168 38.9C168 26.18 177.18 17 189.96 17ZM189.96 24.62C181.8 24.62 176.1 30.5 176.1 38.9C176.1 47.3 181.8 53.18 189.96 53.18C198.18 53.18 203.88 47.3 203.88 38.9C203.88 30.5 198.18 24.62 189.96 24.62Z" fill="#181A20"/>
<path d="M127.2 18V25.02H111.12C110.28 25.02 109.92 24.9 109.56 24.72L109.44 24.84C109.56 25.14 109.68 25.74 109.68 26.52V33.36C109.68 34.14 109.56 34.74 109.44 35.04L109.56 35.16C109.92 34.98 110.28 34.86 111.12 34.86H125.64V41.88H111.12C110.28 41.88 109.92 41.82 109.56 41.64L109.44 41.76C109.56 42.06 109.68 42.6 109.68 43.38V60H102V18H127.2Z" fill="#181A20"/>
<path d="M806.84 95V102.02H791.12C790.28 102.02 789.92 101.9 789.56 101.72L789.44 101.84C789.56 102.14 789.68 102.74 789.68 103.52V109.46C789.68 110.24 789.56 110.84 789.44 111.14L789.56 111.26C789.92 111.08 790.28 111.02 791.12 111.02H805.04V117.98H791.12C790.28 117.98 789.92 117.86 789.56 117.68L789.44 117.8C789.56 118.1 789.68 118.7 789.68 119.48V128.48C789.68 129.26 789.56 129.86 789.44 130.16L789.56 130.28C789.92 130.1 790.28 129.98 791.12 129.98H807.08V137H782V95H806.84Z" fill="#181A20"/>
<path d="M735.92 95V137H728.24V119.9C728.24 119.12 728.3 118.52 728.48 118.22L728.36 118.1C728 118.28 727.58 118.4 726.74 118.4H710.12C709.28 118.4 708.92 118.28 708.56 118.1L708.44 118.22C708.56 118.52 708.68 119.12 708.68 119.9V137H701V95H708.68V109.7C708.68 110.48 708.56 111.08 708.44 111.38L708.56 111.5C708.92 111.32 709.28 111.26 710.12 111.26H726.74C727.58 111.26 728 111.32 728.36 111.5L728.48 111.38C728.3 111.08 728.24 110.48 728.24 109.7V95H735.92Z" fill="#181A20"/>
<path d="M658.84 95V102.14H648.76C647.92 102.14 647.56 102.08 647.2 101.9L647.08 102.02C647.2 102.32 647.26 102.86 647.26 103.64V137H639.58V103.64C639.58 102.86 639.7 102.32 639.82 102.02L639.7 101.9C639.28 102.08 638.92 102.14 638.14 102.14H628V95H658.84Z" fill="#181A20"/>
<path d="M1336.84 96V103.02H1321.12C1320.28 103.02 1319.92 102.9 1319.56 102.72L1319.44 102.84C1319.56 103.14 1319.68 103.74 1319.68 104.52V110.46C1319.68 111.24 1319.56 111.84 1319.44 112.14L1319.56 112.26C1319.92 112.08 1320.28 112.02 1321.12 112.02H1335.04V118.98H1321.12C1320.28 118.98 1319.92 118.86 1319.56 118.68L1319.44 118.8C1319.56 119.1 1319.68 119.7 1319.68 120.48V129.48C1319.68 130.26 1319.56 130.86 1319.44 131.16L1319.56 131.28C1319.92 131.1 1320.28 130.98 1321.12 130.98H1337.08V138H1312V96H1336.84Z" fill="#181A20"/>
<path d="M1232.2 95L1256.08 118.82C1257.52 120.32 1258.48 121.76 1259.08 123.08L1259.32 123.02C1258.9 121.64 1258.66 119.18 1258.66 115.58V95.6H1266.34V138.2H1265.08L1241.26 114.38C1239.76 112.88 1238.8 111.44 1238.2 110.12L1237.96 110.18C1238.38 111.56 1238.62 114.02 1238.62 117.62V137.6H1231V95H1232.2Z" fill="#181A20"/>
<path d="M1177.68 95V137H1170V95H1177.68Z" fill="#181A20"/>
<path d="M1092.68 95V128.36C1092.68 129.14 1092.56 129.68 1092.44 129.98L1092.56 130.1C1092.92 129.92 1093.28 129.86 1094.12 129.86H1110.14V137H1085V95H1092.68Z" fill="#181A20"/>
<path d="M427.84 1004V1011.02H412.12C411.28 1011.02 410.92 1010.9 410.56 1010.72L410.44 1010.84C410.56 1011.14 410.68 1011.74 410.68 1012.52V1018.46C410.68 1019.24 410.56 1019.84 410.44 1020.14L410.56 1020.26C410.92 1020.08 411.28 1020.02 412.12 1020.02H426.04V1026.98H412.12C411.28 1026.98 410.92 1026.86 410.56 1026.68L410.44 1026.8C410.56 1027.1 410.68 1027.7 410.68 1028.48V1037.48C410.68 1038.26 410.56 1038.86 410.44 1039.16L410.56 1039.28C410.92 1039.1 411.28 1038.98 412.12 1038.98H428.08V1046H403V1004H427.84Z" fill="#181A20"/>
<path d="M354.2 1004V1011.02H338.12C337.28 1011.02 336.92 1010.9 336.56 1010.72L336.44 1010.84C336.56 1011.14 336.68 1011.74 336.68 1012.52V1019.36C336.68 1020.14 336.56 1020.74 336.44 1021.04L336.56 1021.16C336.92 1020.98 337.28 1020.86 338.12 1020.86H352.64V1027.88H338.12C337.28 1027.88 336.92 1027.82 336.56 1027.64L336.44 1027.76C336.56 1028.06 336.68 1028.6 336.68 1029.38V1046H329V1004H354.2Z" fill="#181A20"/>
<path d="M268.68 1004V1046H261V1004H268.68Z" fill="#181A20"/>
<path d="M183.68 1004V1037.36C183.68 1038.14 183.56 1038.68 183.44 1038.98L183.56 1039.1C183.92 1038.92 184.28 1038.86 185.12 1038.86H201.14V1046H176V1004H183.68Z" fill="#181A20"/>
</g>
<defs>
<clipPath id="clip0_232_971">
<rect width="1438" height="1134" fill="white"/>
</clipPath>
</defs>
</svg>
