<svg width="610" height="830" viewBox="0 0 610 830" fill="none" xmlns="http://www.w3.org/2000/svg">
<g clip-path="url(#clip0_155_900)">
<path d="M102 241V763H251V207H396.5V763H537V226.5" stroke="#ABC2BA" stroke-width="5"/>
<rect width="610" height="830" fill="#ABC2BA"/>
<circle cx="101.5" cy="207.5" r="37.5" fill="#ABC2BA"/>
<circle cx="537.5" cy="207.5" r="37.5" fill="#ABC2BA"/>
<line x1="33" y1="4.3816e-08" x2="33" y2="832" stroke="#181A20" stroke-width="2"/>
<line x1="467" y1="1" x2="467" y2="838" stroke="#181A20" stroke-width="2"/>
<line x1="323" y1="-4.37114e-08" x2="323" y2="837" stroke="#181A20" stroke-width="2"/>
<line x1="178" y1="-4.37114e-08" x2="178" y2="831" stroke="#181A20" stroke-width="2"/>
<path d="M141.5 365L141.5 447" stroke="#181A20" stroke-width="2" stroke-linecap="round"/>
<path d="M154.5 435.383L141.5 448.383" stroke="#181A20" stroke-width="2" stroke-linecap="round"/>
<path d="M141 448L128 435" stroke="#181A20" stroke-width="2" stroke-linecap="round"/>
<path d="M576.5 606.383L576.5 524.383" stroke="#181A20" stroke-width="2" stroke-linecap="round"/>
<path d="M589.5 536L576.5 523" stroke="#181A20" stroke-width="2" stroke-linecap="round"/>
<path d="M576 523.383L563 536.383" stroke="#181A20" stroke-width="2" stroke-linecap="round"/>
<path d="M288.5 682.383L288.5 600.383" stroke="#181A20" stroke-width="2" stroke-linecap="round"/>
<path d="M301.5 612L288.5 599" stroke="#181A20" stroke-width="2" stroke-linecap="round"/>
<path d="M288 599.383L275 612.383" stroke="#181A20" stroke-width="2" stroke-linecap="round"/>
<path d="M354 517L354 599" stroke="#181A20" stroke-width="2" stroke-linecap="round"/>
<path d="M341 587.383L354 600.383" stroke="#181A20" stroke-width="2" stroke-linecap="round"/>
<path d="M354.5 600L367.5 587" stroke="#181A20" stroke-width="2" stroke-linecap="round"/>
<path d="M62.5 364L62.5 446" stroke="#181A20" stroke-width="2" stroke-linecap="round"/>
<path d="M75.5 434.383L62.5 447.383" stroke="#181A20" stroke-width="2" stroke-linecap="round"/>
<path d="M62 447L49 434" stroke="#181A20" stroke-width="2" stroke-linecap="round"/>
<path d="M497.5 607.383L497.5 525.383" stroke="#181A20" stroke-width="2" stroke-linecap="round"/>
<path d="M510.5 537L497.5 524" stroke="#181A20" stroke-width="2" stroke-linecap="round"/>
<path d="M497 524.383L484 537.383" stroke="#181A20" stroke-width="2" stroke-linecap="round"/>
<path d="M209.5 683.383L209.5 601.383" stroke="#181A20" stroke-width="2" stroke-linecap="round"/>
<path d="M222.5 613L209.5 600" stroke="#181A20" stroke-width="2" stroke-linecap="round"/>
<path d="M209 600.383L196 613.383" stroke="#181A20" stroke-width="2" stroke-linecap="round"/>
<path d="M433 516L433 598" stroke="#181A20" stroke-width="2" stroke-linecap="round"/>
<path d="M420 586.383L433 599.383" stroke="#181A20" stroke-width="2" stroke-linecap="round"/>
<path d="M433.5 599L446.5 586" stroke="#181A20" stroke-width="2" stroke-linecap="round"/>
<path d="M390 184H427V229.5" stroke="#181A20" stroke-width="2" stroke-linecap="round"/>
<path d="M414.5 216.883L427.5 229.883" stroke="#181A20" stroke-width="2" stroke-linecap="round"/>
<path d="M428 229.5L441 216.5" stroke="#181A20" stroke-width="2" stroke-linecap="round"/>
<path d="M75 760L75 797L120.5 797" stroke="#181A20" stroke-width="2" stroke-linecap="round"/>
<path d="M107.883 784.5L120.883 797.5" stroke="#181A20" stroke-width="2" stroke-linecap="round"/>
<path d="M120.5 798L107.5 811" stroke="#181A20" stroke-width="2" stroke-linecap="round"/>
<line x1="32" y1="566" x2="613" y2="566" stroke="#181A20" stroke-width="2"/>
<line x1="26" y1="711" x2="607" y2="711" stroke="#181A20" stroke-width="2"/>
<line x1="33" y1="131" x2="617" y2="131" stroke="#181A20" stroke-width="2"/>
<line x1="32" y1="276" x2="616" y2="276" stroke="#181A20" stroke-width="2"/>
<line x1="32" y1="421" x2="612" y2="421" stroke="#181A20" stroke-width="2"/>
<path d="M383 785C383 785 405 782.825 405 774.323C405 765.82 383 763.25 383 763.25" stroke="#181A20" stroke-width="2" stroke-linecap="round"/>
<path d="M383 741.5C383 741.5 405 739.325 405 730.823C405 722.32 383 719.75 383 719.75" stroke="#181A20" stroke-width="2" stroke-linecap="round"/>
<path d="M383 763.25C383 763.25 361 761.075 361 752.573C361 744.07 383 741.5 383 741.5" stroke="#181A20" stroke-width="2" stroke-linecap="round"/>
<path d="M383 719.75C383 719.75 361 717.575 361 709.073C361 700.57 383 698 383 698" stroke="#181A20" stroke-width="2" stroke-linecap="round"/>
<path d="M190 245C190 245 193.55 267 207.427 267C221.305 267 225.5 245 225.5 245" stroke="#181A20" stroke-width="2" stroke-linecap="round"/>
<path d="M261 245C261 245 264.55 267 278.427 267C292.305 267 296.5 245 296.5 245" stroke="#181A20" stroke-width="2" stroke-linecap="round"/>
<path d="M225.5 245C225.5 245 229.05 223 242.927 223C256.805 223 261 245 261 245" stroke="#181A20" stroke-width="2" stroke-linecap="round"/>
<path d="M296.5 245C296.5 245 300.05 223 313.927 223C327.805 223 332 245 332 245" stroke="#181A20" stroke-width="2" stroke-linecap="round"/>
<path d="M363.857 31L404.432 74.1467C406.718 76.4326 408.814 79.4805 409.671 81.576L410.052 81.4807C409.48 78.909 409.099 75.0039 409.099 69.4796V31.9525H417.672V99.5776H416.91L376.239 56.4308C374.049 54.1449 371.953 51.097 371.001 49.0016L370.715 49.0969C371.286 51.6685 371.572 55.5736 371.572 61.0027V98.6251H363V31H363.857Z" fill="#ABC2BA"/>
<path d="M251.572 35V101.673H243V35H251.572Z" fill="#ABC2BA"/>
<path d="M94.5722 35V91.2907C94.5722 92.3385 94.4769 93.1004 94.2865 93.5767L94.4769 93.7672C95.1436 93.4814 95.7151 93.4814 96.8581 93.4814H124.289V101.673H86V35H94.5722Z" fill="#ABC2BA"/>
<path d="M557.432 33V41.096H530.858C529.715 41.096 529.144 41.0007 528.477 40.715L528.286 40.9055C528.477 41.3817 528.572 42.2389 528.572 43.3819V57.0021C528.572 58.0499 528.477 58.9071 528.286 59.3833L528.477 59.5738C529.144 59.2881 529.715 59.1928 530.858 59.1928H554.384V67.2888H530.858C529.715 67.2888 529.144 67.1935 528.477 66.9078L528.286 67.0983C528.477 67.5745 528.572 68.4317 528.572 69.5747V89.2907C528.572 90.4337 528.477 91.2909 528.286 91.7672L528.477 91.9577C529.144 91.6719 529.715 91.5767 530.858 91.5767H557.908V99.6726H520V33H557.432Z" fill="#ABC2BA"/>
<rect width="32" height="829" fill="#ABC2BA"/>
</g>
<defs>
<clipPath id="clip0_155_900">
<rect width="610" height="830" fill="white"/>
</clipPath>
</defs>
</svg>
