<svg width="524" height="180" viewBox="0 0 524 180" fill="none" xmlns="http://www.w3.org/2000/svg">
<path d="M12.7288 60.6414C12.972 44.1593 18.1266 31.3648 28.1923 22.2579C38.258 13.1511 52.2162 8.59766 70.0669 8.59766C85.9815 8.59766 98.8095 12.2198 108.551 19.4641C118.292 26.7084 123.163 36.2926 123.163 48.2166C123.163 58.8116 119.402 67.2633 111.881 73.5716C104.332 79.893 94.6822 83.6601 84.5117 84.2556C90.0137 84.7861 95.4139 85.9948 100.568 87.8496C105.397 89.5958 109.866 92.0935 113.781 95.2343C117.818 98.5383 120.945 102.682 122.904 107.322C125.166 112.665 126.277 118.364 126.173 124.099C126.173 138.054 120.781 149.379 109.995 158.074C99.2099 166.769 85.2111 171.117 67.999 171.117C49.6516 171.117 35.065 166.526 24.239 157.344C13.413 148.163 8 135.775 8 120.182C8 118.175 8.09124 116.42 8.24329 114.931L12.8048 114.931L12.8048 119.747C12.8048 134.516 17.6958 146.08 27.4777 154.438C37.2596 162.796 50.7667 166.975 67.999 166.975C83.7515 166.975 96.5997 163.04 106.544 155.168C111.354 151.471 115.194 146.815 117.775 141.551C120.356 136.286 121.611 130.55 121.445 124.773C121.587 119.176 120.474 113.612 118.176 108.431C116.269 104.118 113.302 100.273 109.509 97.1998C105.601 94.2632 101.171 91.9737 96.4172 90.4329C91.3918 88.7077 86.1671 87.5252 80.8473 86.909C75.1558 86.2821 69.4277 85.982 63.696 86.0105L60.655 86.0105L60.655 81.6442C62.5252 81.7987 64.8212 81.8689 67.5733 81.8689C72.3527 81.8875 77.128 81.6061 81.866 81.0265C86.4984 80.4254 91.0495 79.3761 95.4441 77.8958C99.7017 76.5433 103.681 74.5354 107.213 71.9571C110.625 69.3133 113.34 65.9859 115.15 62.2279C117.267 57.8107 118.305 53.0176 118.191 48.1886C118.191 37.3128 113.868 28.6786 105.221 22.286C96.5744 15.8934 84.8564 12.7018 70.0669 12.7112C52.7737 12.7112 39.7633 16.8341 31.0356 25.0798C22.3079 33.3256 17.7008 45.1701 17.2143 60.6134L12.7288 60.6414Z" fill="#E0F416" stroke="#E0F416" stroke-width="15.8083" stroke-miterlimit="10"/>
<path d="M290.483 49.8516L285.527 49.8516C284.005 39.3656 278.321 29.7747 269.577 22.9382C260.889 16.1806 250.003 12.8018 236.916 12.8018C230.872 12.7621 224.865 13.6786 219.157 15.5114C214.199 17.0582 209.57 19.3856 205.472 22.3907C201.529 25.4155 198.136 29.0035 195.422 33.0184C192.565 37.0839 190.185 41.4183 188.321 45.9486C186.414 50.738 184.914 55.6573 183.835 60.6619C182.619 66.1091 181.732 71.1492 181.174 75.7822C180.612 80.4011 180.156 85.3991 179.836 90.7762C179.669 92.9382 184.155 87.5191 184.155 94.2299C183.045 84.8235 189.993 82.2262 199.892 74.996C209.79 67.7657 221.65 64.1296 235.472 64.1296C243.14 63.9922 250.757 65.3136 257.849 68.0115C264.94 70.7094 271.355 74.726 276.692 79.8115C282.154 84.7913 286.463 90.7443 289.356 97.3088C292.249 103.873 293.668 110.912 293.524 117.998C293.681 125.046 292.266 132.047 289.367 138.568C286.469 145.089 282.15 150.99 276.677 155.905C271.304 160.931 264.878 164.893 257.79 167.548C250.703 170.203 243.103 171.496 235.456 171.348C222.258 171.574 209.376 167.609 198.964 160.116C188.614 152.801 181.449 142.3 178.772 130.522C176.338 119.585 175.16 108.441 175.26 97.2764C175.26 91.4641 175.483 85.8858 175.929 80.5415C176.455 74.8095 177.302 69.1066 178.468 63.4557C179.571 57.7412 181.131 52.11 183.136 46.6085C185.065 41.421 187.615 36.4485 190.738 31.783C193.707 27.2305 197.426 23.1333 201.762 19.639C206.259 16.1371 211.412 13.4249 216.967 11.6365C223.284 9.55467 229.951 8.52781 236.658 8.60405C250.971 8.60405 263.013 12.3479 272.785 19.8355C282.557 27.3231 288.456 37.3285 290.483 49.8516ZM234.727 67.9763C227.734 67.8688 220.792 69.0966 214.337 71.5825C207.882 74.0685 202.053 77.7591 197.216 82.4228C192.202 86.9886 188.247 92.4486 185.592 98.4704C182.936 104.492 181.635 110.95 181.767 117.451C181.767 131.565 186.917 143.391 197.216 152.928C207.515 162.466 220.262 167.244 235.456 167.262C242.512 167.407 249.525 166.203 256.053 163.727C262.581 161.251 268.485 157.555 273.393 152.872C278.425 148.239 282.385 142.71 285.033 136.621C287.68 130.533 288.961 124.01 288.796 117.451C288.95 110.912 287.648 104.414 284.97 98.3595C282.291 92.305 278.294 86.8232 273.226 82.2543C262.825 72.7357 249.992 67.9763 234.727 67.9763Z" fill="#E0F416" stroke="#E0F416" stroke-width="15.8083" stroke-miterlimit="10"/>
<mask id="path-3-inside-1_168_191" fill="white">
<path fill-rule="evenodd" clip-rule="evenodd" d="M433.265 0.99995C383.299 0.999952 342.803 40.916 342.803 90.1496C342.803 139.383 383.299 179.299 433.265 179.299C476.953 179.299 513.413 148.805 521.885 108.214L501.184 94.5449C498.891 129.546 469.325 157.216 433.265 157.216L433.265 157.23C395.683 157.23 365.204 127.209 365.204 90.1637C365.204 53.1189 395.683 23.0974 433.265 23.0974C459.965 23.0974 483.08 38.2501 494.228 60.3088L484.209 64.7144L523.097 88.0441L523.742 47.3301L514.725 51.2952C500.073 21.5173 469.101 0.999949 433.265 0.99995Z"/>
</mask>
<path fill-rule="evenodd" clip-rule="evenodd" d="M433.265 0.99995C383.299 0.999952 342.803 40.916 342.803 90.1496C342.803 139.383 383.299 179.299 433.265 179.299C476.953 179.299 513.413 148.805 521.885 108.214L501.184 94.5449C498.891 129.546 469.325 157.216 433.265 157.216L433.265 157.23C395.683 157.23 365.204 127.209 365.204 90.1637C365.204 53.1189 395.683 23.0974 433.265 23.0974C459.965 23.0974 483.08 38.2501 494.228 60.3088L484.209 64.7144L523.097 88.0441L523.742 47.3301L514.725 51.2952C500.073 21.5173 469.101 0.999949 433.265 0.99995Z" fill="#E0F416"/>
<path d="M342.803 90.1496L341.399 90.1496L342.803 90.1496ZM433.265 179.299L433.265 177.895L433.265 177.895L433.265 179.299ZM521.885 108.214L523.26 108.501L523.455 107.568L522.659 107.042L521.885 108.214ZM501.184 94.5449L501.957 93.3733L499.941 92.0418L499.783 94.4531L501.184 94.5449ZM433.265 157.216L433.265 155.812L431.861 155.812L431.861 157.216L433.265 157.216ZM433.265 157.23L433.265 158.634L434.669 158.634L434.669 157.23L433.265 157.23ZM365.204 90.1637L366.608 90.1637L365.204 90.1637ZM494.228 60.3088L494.793 61.5939L496.149 60.9976L495.481 59.6755L494.228 60.3088ZM484.209 64.7144L483.644 63.4292L481.159 64.5218L483.487 65.9183L484.209 64.7144ZM523.097 88.0441L522.375 89.248L524.462 90.5003L524.501 88.0663L523.097 88.0441ZM523.742 47.3301L525.146 47.3523L525.181 45.1639L523.177 46.0449L523.742 47.3301ZM514.725 51.2952L513.465 51.915L514.059 53.1217L515.29 52.5803L514.725 51.2952ZM344.207 90.1496C344.207 41.7106 384.055 2.40388 433.265 2.40388L433.265 -0.403981C382.543 -0.403979 341.399 40.1215 341.399 90.1496L344.207 90.1496ZM433.265 177.895C384.055 177.895 344.207 138.589 344.207 90.1496L341.399 90.1496C341.399 140.178 382.543 180.703 433.265 180.703L433.265 177.895ZM520.511 107.927C512.175 147.867 476.289 177.895 433.265 177.895L433.265 180.703C477.617 180.703 514.651 149.744 523.26 108.501L520.511 107.927ZM500.41 95.7165L521.112 109.386L522.659 107.042L501.957 93.3733L500.41 95.7165ZM433.265 158.62C470.051 158.62 500.243 130.389 502.585 94.6367L499.783 94.4531C497.539 128.702 468.599 155.812 433.265 155.812L433.265 158.62ZM434.669 157.23L434.669 157.216L431.861 157.216L431.861 157.23L434.669 157.23ZM363.8 90.1637C363.8 128.004 394.928 158.634 433.265 158.634L433.265 155.826C396.439 155.826 366.608 126.414 366.608 90.1637L363.8 90.1637ZM433.265 21.6934C394.928 21.6934 363.8 52.3239 363.8 90.1637L366.608 90.1637C366.608 53.9138 396.439 24.5013 433.265 24.5013L433.265 21.6934ZM495.481 59.6755C484.1 37.1552 460.507 21.6934 433.265 21.6934L433.265 24.5013C459.423 24.5013 482.06 39.3449 492.975 60.942L495.481 59.6755ZM493.662 59.0236L483.644 63.4292L484.774 65.9995L494.793 61.5939L493.662 59.0236ZM483.487 65.9183L522.375 89.248L523.819 86.8402L484.931 63.5105L483.487 65.9183ZM524.501 88.0663L525.146 47.3523L522.338 47.3078L521.693 88.0218L524.501 88.0663ZM523.177 46.0449L514.16 50.01L515.29 52.5803L524.307 48.6152L523.177 46.0449ZM433.265 2.40388C468.554 2.40388 499.045 22.6067 513.465 51.915L515.985 50.6753C501.102 20.428 469.647 -0.403983 433.265 -0.403981L433.265 2.40388Z" fill="#E0F416" mask="url(#path-3-inside-1_168_191)"/>
</svg>
