<svg width="944" height="502" viewBox="0 0 944 502" fill="none" xmlns="http://www.w3.org/2000/svg">
<g clip-path="url(#clip0_153_703)">
<rect width="944" height="502" fill="#181A20"/>
<rect width="944" height="502" fill="#181A20"/>
<circle cx="82" cy="83" r="36" stroke="#ABC2BA" stroke-width="2"/>
<circle cx="830" cy="413" r="36" stroke="#ABC2BA" stroke-width="2"/>
<circle cx="830" cy="81" r="36" stroke="#ABC2BA" stroke-width="2"/>
<circle cx="664" cy="247" r="36" stroke="#ABC2BA" stroke-width="2"/>
<circle cx="416" cy="332" r="36" stroke="#ABC2BA" stroke-width="2"/>
<circle cx="665" cy="83" r="36" stroke="#ABC2BA" stroke-width="2"/>
<circle cx="250" cy="81" r="36" stroke="#ABC2BA" stroke-width="2"/>
<line x1="1" y1="-1" x2="0.999977" y2="515" stroke="#ABC2BA" stroke-width="2"/>
<line x1="167" y1="-1" x2="167" y2="515" stroke="#ABC2BA" stroke-width="2"/>
<line x1="83" y1="4.37114e-08" x2="83" y2="516" stroke="#ABC2BA" stroke-width="2"/>
<line x1="250" y1="4.37114e-08" x2="250" y2="516" stroke="#ABC2BA" stroke-width="2"/>
<line x1="417" y1="4.37114e-08" x2="417" y2="516" stroke="#ABC2BA" stroke-width="2"/>
<line x1="584" y1="4.37114e-08" x2="584" y2="516" stroke="#ABC2BA" stroke-width="2"/>
<line x1="751" y1="4.37114e-08" x2="751" y2="516" stroke="#ABC2BA" stroke-width="2"/>
<line x1="918" y1="4.37114e-08" x2="918" y2="516" stroke="#ABC2BA" stroke-width="2"/>
<line x1="333" y1="4.37114e-08" x2="333" y2="516" stroke="#ABC2BA" stroke-width="2"/>
<line x1="499" y1="-2" x2="499" y2="514" stroke="#ABC2BA" stroke-width="2"/>
<line x1="665" y1="-2" x2="665" y2="514" stroke="#ABC2BA" stroke-width="2"/>
<line x1="831" y1="-2" x2="831" y2="514" stroke="#ABC2BA" stroke-width="2"/>
<line x1="942" y1="333" y2="333" stroke="#ABC2BA" stroke-width="2"/>
<line x1="942" y1="167" y2="167" stroke="#ABC2BA" stroke-width="2"/>
<line x1="944" y1="82" x2="2" y2="82" stroke="#ABC2BA" stroke-width="2"/>
<line x1="944" y1="248" x2="2" y2="248" stroke="#ABC2BA" stroke-width="2"/>
<line x1="944" y1="414" x2="2" y2="414" stroke="#ABC2BA" stroke-width="2"/>
<path d="M521 81C521 81 517.45 58.9997 503.573 59C489.695 59.0003 485.5 81 485.5 81" stroke="#ABC2BA" stroke-width="2" stroke-linecap="round"/>
<path d="M450 81C450 81 446.45 58.9997 432.573 59C418.695 59.0003 414.5 81 414.5 81" stroke="#ABC2BA" stroke-width="2" stroke-linecap="round"/>
<path d="M485.5 81C485.5 81 481.95 103 468.073 103C454.195 103 450 81 450 81" stroke="#ABC2BA" stroke-width="2" stroke-linecap="round"/>
<path d="M414.5 81C414.5 81 410.95 103 397.073 103C383.195 103 379 81 379 81" stroke="#ABC2BA" stroke-width="2" stroke-linecap="round"/>
<path d="M245 225C245 225 223 228.225 223 240.832C223 253.439 245 257.25 245 257.25" stroke="#ABC2BA" stroke-width="2" stroke-linecap="round"/>
<path d="M245 289.5C245 289.5 223 292.725 223 305.332C223 317.939 245 321.75 245 321.75" stroke="#ABC2BA" stroke-width="2" stroke-linecap="round"/>
<path d="M245 257.25C245 257.25 267 260.475 267 273.082C267 285.689 245 289.5 245 289.5" stroke="#ABC2BA" stroke-width="2" stroke-linecap="round"/>
<path d="M245 321.75C245 321.75 267 324.975 267 337.582C267 350.189 245 354 245 354" stroke="#ABC2BA" stroke-width="2" stroke-linecap="round"/>
<path d="M124.5 141L124.5 223" stroke="#ABC2BA" stroke-width="2" stroke-linecap="round"/>
<path d="M137.5 211.383L124.5 224.383" stroke="#ABC2BA" stroke-width="2" stroke-linecap="round"/>
<path d="M124 224L111 211" stroke="#ABC2BA" stroke-width="2" stroke-linecap="round"/>
<path d="M539.383 281.5L457.383 281.5" stroke="#ABC2BA" stroke-width="2" stroke-linecap="round"/>
<path d="M469 294.5L456 281.5" stroke="#ABC2BA" stroke-width="2" stroke-linecap="round"/>
<path d="M456.383 281L469.383 268" stroke="#ABC2BA" stroke-width="2" stroke-linecap="round"/>
<path d="M45.5 140L45.5 222" stroke="#ABC2BA" stroke-width="2" stroke-linecap="round"/>
<path d="M58.5 210.383L45.5 223.383" stroke="#ABC2BA" stroke-width="2" stroke-linecap="round"/>
<path d="M45 223L32 210" stroke="#ABC2BA" stroke-width="2" stroke-linecap="round"/>
<path d="M540.383 202.5L458.383 202.5" stroke="#ABC2BA" stroke-width="2" stroke-linecap="round"/>
<path d="M470 215.5L457 202.5" stroke="#ABC2BA" stroke-width="2" stroke-linecap="round"/>
<path d="M457.383 202L470.383 189" stroke="#ABC2BA" stroke-width="2" stroke-linecap="round"/>
<path d="M27 73L27 145" stroke="#ABC2BA" stroke-width="2" stroke-linecap="round"/>
<path d="M102 268L102 182" stroke="#ABC2BA" stroke-width="2" stroke-linecap="round"/>
<path d="M131 73L131 44" stroke="#ABC2BA" stroke-width="2" stroke-linecap="round"/>
<path d="M759.764 444L716 444" stroke="#ABC2BA" stroke-width="2" stroke-linecap="round"/>
<path d="M785.592 361.106L754.739 361.106" stroke="#ABC2BA" stroke-width="2" stroke-linecap="round"/>
<path d="M795.852 455L764.999 455" stroke="#ABC2BA" stroke-width="2" stroke-linecap="round"/>
<path d="M790.465 393L773.001 393" stroke="#ABC2BA" stroke-width="2" stroke-linecap="round"/>
<path d="M792.102 379.642L723.353 379.642" stroke="#ABC2BA" stroke-width="2" stroke-linecap="round"/>
<path d="M634 431H715.582" stroke="#ABC2BA" stroke-width="2" stroke-linecap="round"/>
<path d="M67 194L67 140" stroke="#ABC2BA" stroke-width="2" stroke-linecap="round"/>
<path d="M30.9677 454L43.0082 437.5H373.532L361.492 454H30.9677Z" stroke="#ABC2BA" stroke-width="2"/>
</g>
<defs>
<clipPath id="clip0_153_703">
<rect width="944" height="502" fill="white"/>
</clipPath>
</defs>
</svg>
