<?xml version="1.0" encoding="utf-8"?>
<!-- Generator: Adobe Illustrator 28.2.0, SVG Export Plug-In . SVG Version: 6.00 Build 0)  -->
<svg version="1.1" xmlns="http://www.w3.org/2000/svg" xmlns:xlink="http://www.w3.org/1999/xlink" x="0px" y="0px"
	 viewBox="0 0 1440 269" style="enable-background:new 0 0 1440 269;" xml:space="preserve">
<style type="text/css">
	.st0{fill:#E0F416;}
	.st1{clip-path:url(#SVGID_00000075152268017907862640000014443001458123969954_);}
	.st2{fill:#181A20;}
	.st3{fill-rule:evenodd;clip-rule:evenodd;fill:#A6C3BA;}
	.st4{fill:#A6C3BA;}
	.st5{fill-rule:evenodd;clip-rule:evenodd;fill:#E0F416;}
	.st6{clip-path:url(#SVGID_00000123403457246431756410000004284944295446968749_);}
	.st7{clip-path:url(#SVGID_00000162353553048704639240000012480171943979784093_);}
	.st8{clip-path:url(#SVGID_00000151538284818043877960000008268885317131795361_);}
	.st9{clip-path:url(#SVGID_00000038389154180123706540000011488683284256897930_);}
	.st10{clip-path:url(#SVGID_00000090975580863237976340000015299964192727405224_);}
	.st11{clip-path:url(#SVGID_00000157281268907769920270000013480699516749699469_);}
	.st12{clip-path:url(#SVGID_00000144333943475102002900000018427207190640428720_);}
</style>
<g id="Layer_1">
	<rect class="st0" width="1440" height="269"/>
</g>
<g id="Layer_3">
	<g>
		<defs>
			<rect id="SVGID_1_" x="7" y="11" width="174" height="246"/>
		</defs>
		<clipPath id="SVGID_00000034803662745670353230000002127882080472039103_">
			<use xlink:href="#SVGID_1_"  style="overflow:visible;"/>
		</clipPath>
		<g style="clip-path:url(#SVGID_00000034803662745670353230000002127882080472039103_);">
			<rect x="7" y="11" class="st2" width="174" height="246"/>
			<path class="st3" d="M5,223.4l88.5-88.5H4.8v-1.5h88.4L-2.1,38.2l1-1l95.3,95.3V11h1.5v121.6l89.7-89.7l1,1l-89.5,89.5h85v1.5
				H96.8l93.2,93.2l-1,1L95.7,136v121.1h-1.5l0-120.9L6,224.4L5,223.4z"/>
			<path class="st4" d="M93.4,134.9l0.5,0.5l1.2-1.2h-1.8V134.9z M5,223.4l-0.5-0.5l-0.5,0.5l0.5,0.5L5,223.4z M4.8,134.9H4.1v0.7
				h0.7V134.9z M4.8,133.5v-0.7H4.1v0.7H4.8z M93.2,133.5v0.7H95l-1.2-1.2L93.2,133.5z M-2.1,38.2l-0.5-0.5l-0.5,0.5l0.5,0.5
				L-2.1,38.2z M-1,37.1l0.5-0.5L-1,36.1l-0.5,0.5L-1,37.1z M94.3,132.4l-0.5,0.5l1.2,1.2v-1.8H94.3z M94.3,11v-0.7h-0.7V11H94.3z
				 M95.7,11h0.7v-0.7h-0.7V11z M95.7,132.6H95v1.8l1.2-1.2L95.7,132.6z M185.4,42.9l0.5-0.5l-0.5-0.5l-0.5,0.5L185.4,42.9z
				 M186.5,43.9l0.5,0.5l0.5-0.5l-0.5-0.5L186.5,43.9z M96.9,133.5l-0.5-0.5l-1.2,1.2h1.8V133.5z M181.9,133.5h0.7v-0.7h-0.7V133.5z
				 M181.9,134.9v0.7h0.7v-0.7H181.9z M96.8,134.9v-0.7H95l1.2,1.2L96.8,134.9z M190,228.2l0.5,0.5l0.5-0.5l-0.5-0.5L190,228.2z
				 M189,229.2l-0.5,0.5l0.5,0.5l0.5-0.5L189,229.2z M95.7,136l0.5-0.5l-1.2-1.2v1.8H95.7z M95.7,257.1v0.7h0.7v-0.7H95.7z
				 M94.3,257.1h-0.7v0.7h0.7V257.1z M94.3,136.1H95v-1.8l-1.2,1.2L94.3,136.1z M6,224.4l-0.5,0.5l0.5,0.5l0.5-0.5L6,224.4z
				 M92.9,134.4L4.4,222.9l1,1l88.5-88.5L92.9,134.4z M4.8,135.7h88.6v-1.5H4.8V135.7z M4.1,133.5v1.5h1.5v-1.5H4.1z M93.2,132.7
				H4.8v1.5h88.4V132.7z M-2.6,38.7L92.7,134l1-1L-1.5,37.7L-2.6,38.7z M-1.5,36.6l-1,1l1,1l1-1L-1.5,36.6z M94.8,131.9L-0.5,36.6
				l-1,1l95.3,95.3L94.8,131.9z M93.5,11v121.4H95V11H93.5z M95.7,10.3h-1.5v1.5h1.5V10.3z M96.5,132.6V11H95v121.6H96.5z
				 M184.9,42.4l-89.7,89.7l1,1l89.7-89.7L184.9,42.4z M187,43.4l-1-1l-1,1l1,1L187,43.4z M97.5,134L187,44.5l-1-1l-89.5,89.5
				L97.5,134z M181.9,132.7h-85v1.5h85V132.7z M182.7,134.9v-1.5h-1.5v1.5H182.7z M96.8,135.7h85.2v-1.5H96.8V135.7z M190.5,227.6
				l-93.2-93.2l-1,1l93.2,93.2L190.5,227.6z M189.5,229.7l1-1l-1-1l-1,1L189.5,229.7z M95.2,136.5l93.2,93.2l1-1l-93.2-93.2
				L95.2,136.5z M96.5,257.1V136H95v121.1H96.5z M94.3,257.8h1.5v-1.5h-1.5V257.8z M93.5,136.1v120.9H95V136.1H93.5z M6.5,224.9
				l88.3-88.3l-1-1L5.5,223.9L6.5,224.9z M4.4,223.9l1,1l1-1l-1-1L4.4,223.9z"/>
			<path class="st3" d="M43.3,257.4l50.4-121.7L4.2,172.8l-0.6-1.4l89.4-37L5.2,98l0.6-1.3l87.9,36.4L41.2,6.6L42.6,6L95,132.6
				L148.1,4.4l1.4,0.6L96.4,133l94.8-39.3l0.6,1.4l-94.9,39.3l89.8,37.2l-0.6,1.3l-89.8-37.2L147,258.1l-1.4,0.6L95,136.4L44.7,258
				L43.3,257.4z"/>
			<path class="st4" d="M93.7,135.7l0.7,0.3l0.7-1.6l-1.6,0.7L93.7,135.7z M43.3,257.4l-0.7-0.3l-0.3,0.7l0.7,0.3L43.3,257.4z
				 M4.2,172.8l-0.7,0.3l0.3,0.7l0.7-0.3L4.2,172.8z M3.6,171.5l-0.3-0.7l-0.7,0.3l0.3,0.7L3.6,171.5z M93.1,134.4l0.3,0.7l1.6-0.7
				l-1.6-0.7L93.1,134.4z M5.2,98l-0.7-0.3l-0.3,0.7l0.7,0.3L5.2,98z M5.7,96.7L6,96l-0.7-0.3l-0.3,0.7L5.7,96.7z M93.6,133.1
				l-0.3,0.7l1.6,0.7l-0.7-1.6L93.6,133.1z M41.2,6.6L41,5.9l-0.7,0.3l0.3,0.7L41.2,6.6z M42.6,6l0.7-0.3L43,5.1l-0.7,0.3L42.6,6z
				 M95,132.6l-0.7,0.3l0.7,1.6l0.7-1.6L95,132.6z M148.1,4.4l0.3-0.7l-0.7-0.3l-0.3,0.7L148.1,4.4z M149.5,4.9l0.7,0.3l0.3-0.7
				l-0.7-0.3L149.5,4.9z M96.4,133l-0.7-0.3l-0.7,1.6l1.6-0.7L96.4,133z M191.2,93.8l0.7-0.3l-0.3-0.7l-0.7,0.3L191.2,93.8z
				 M191.8,95.1l0.3,0.7l0.7-0.3l-0.3-0.7L191.8,95.1z M96.9,134.4l-0.3-0.7l-1.6,0.7l1.6,0.7L96.9,134.4z M186.7,171.6l0.7,0.3
				l0.3-0.7l-0.7-0.3L186.7,171.6z M186.1,173l-0.3,0.7l0.7,0.3l0.3-0.7L186.1,173z M96.3,135.8l0.3-0.7l-1.6-0.7l0.7,1.6
				L96.3,135.8z M147,258.1l0.3,0.7l0.7-0.3l-0.3-0.7L147,258.1z M145.6,258.6l-0.7,0.3l0.3,0.7l0.7-0.3L145.6,258.6z M95,136.4
				l0.7-0.3l-0.7-1.6l-0.7,1.6L95,136.4z M44.7,258l-0.3,0.7l0.7,0.3l0.3-0.7L44.7,258z M93.1,135.5L42.6,257.2l1.4,0.6L94.4,136
				L93.1,135.5z M4.5,173.5L94,136.4l-0.6-1.4L3.9,172.1L4.5,173.5z M3,171.8l0.6,1.4l1.4-0.6l-0.6-1.4L3,171.8z M92.8,133.8
				l-89.4,37l0.6,1.3l89.4-37L92.8,133.8z M4.9,98.7l87.9,36.4l0.6-1.4L5.4,97.3L4.9,98.7z M5.1,96.4l-0.6,1.4l1.4,0.6l0.6-1.4
				L5.1,96.4z M93.9,132.4L6,96l-0.6,1.4l87.9,36.4L93.9,132.4z M40.6,6.9L93,133.4l1.4-0.6L41.9,6.3L40.6,6.9z M42.3,5.4L41,5.9
				l0.6,1.4l1.4-0.6L42.3,5.4z M95.7,132.3L43.3,5.8l-1.4,0.6l52.4,126.6L95.7,132.3z M147.5,4.1L94.3,132.3l1.4,0.6L148.8,4.7
				L147.5,4.1z M149.8,4.3l-1.3-0.6l-0.6,1.4l1.3,0.6L149.8,4.3z M97.1,133.3L150.2,5.2l-1.4-0.6L95.8,132.8L97.1,133.3z
				 M190.9,93.1l-94.8,39.3l0.6,1.3l94.8-39.3L190.9,93.1z M192.4,94.8l-0.6-1.4l-1.4,0.6l0.6,1.4L192.4,94.8z M97.2,135.1
				l94.9-39.3l-0.6-1.4l-94.9,39.3L97.2,135.1z M186.9,170.9l-89.8-37.2l-0.6,1.4l89.8,37.2L186.9,170.9z M186.8,173.2l0.6-1.3
				l-1.4-0.6l-0.6,1.4L186.8,173.2z M96.1,136.5l89.8,37.2l0.6-1.4l-89.8-37.2L96.1,136.5z M147.7,257.8L97,135.5l-1.4,0.6
				l50.7,122.3L147.7,257.8z M145.9,259.3l1.4-0.6l-0.6-1.4l-1.4,0.6L145.9,259.3z M94.3,136.7L145,258.9l1.4-0.6L95.7,136.2
				L94.3,136.7z M45.3,258.3l50.4-121.6l-1.4-0.6L44,257.7L45.3,258.3z M43,258.1l1.4,0.6l0.6-1.4l-1.4-0.6L43,258.1z"/>
			<path class="st5" d="M93.8-4.8v293.5l2.9,2.3V-2.5L93.8-4.8z"/>
		</g>
	</g>
</g>
<g id="Layer_4">
	<g>
		<defs>
			<rect id="SVGID_00000150085708904706915270000011226718494662772910_" x="186" y="11" width="174" height="246"/>
		</defs>
		<clipPath id="SVGID_00000137120430042722357340000010982977520598220689_">
			<use xlink:href="#SVGID_00000150085708904706915270000011226718494662772910_"  style="overflow:visible;"/>
		</clipPath>
		<g style="clip-path:url(#SVGID_00000137120430042722357340000010982977520598220689_);">
			<rect x="186" y="11" class="st2" width="174" height="246"/>
			<path class="st3" d="M181,226.3l88.5-88.5H181v-1.5h88.3L174,41.1l1-1l95.4,95.4V10.7h1.5v124.7l89.6-89.6l1,1L273,136.4h86.3
				v1.5h-86.5l93.2,93.2l-1,1L271.9,139v121h-1.5V138.9l-88.4,88.4L181,226.3z"/>
			<path class="st4" d="M269.5,137.8l0.5,0.5l1.2-1.2h-1.8V137.8z M181,226.3l-0.5-0.5l-0.5,0.5l0.5,0.5L181,226.3z M181,137.8h-0.7
				v0.7h0.7V137.8z M181,136.4v-0.7h-0.7v0.7H181z M269.3,136.4v0.7h1.8l-1.2-1.2L269.3,136.4z M174,41.1l-0.5-0.5l-0.5,0.5l0.5,0.5
				L174,41.1z M175.1,40.1l0.5-0.5l-0.5-0.5l-0.5,0.5L175.1,40.1z M270.5,135.5l-0.5,0.5l1.2,1.2v-1.8H270.5z M270.5,10.7V10h-0.7
				v0.7H270.5z M271.9,10.7h0.7V10h-0.7V10.7z M271.9,135.4h-0.7v1.8l1.2-1.2L271.9,135.4z M361.5,45.8l0.5-0.5l-0.5-0.5l-0.5,0.5
				L361.5,45.8z M362.5,46.9l0.5,0.5l0.5-0.5l-0.5-0.5L362.5,46.9z M273,136.4l-0.5-0.5l-1.2,1.2h1.8V136.4z M359.3,136.4h0.7v-0.7
				h-0.7V136.4z M359.3,137.8v0.7h0.7v-0.7H359.3z M272.8,137.8v-0.7h-1.8l1.2,1.2L272.8,137.8z M366.1,231.1l0.5,0.5l0.5-0.5
				l-0.5-0.5L366.1,231.1z M365,232.1l-0.5,0.5l0.5,0.5l0.5-0.5L365,232.1z M271.9,139l0.5-0.5l-1.2-1.2v1.8H271.9z M271.9,260v0.7
				h0.7V260H271.9z M270.5,260h-0.7v0.7h0.7V260z M270.5,138.9h0.7v-1.8l-1.2,1.2L270.5,138.9z M182.1,227.3l-0.5,0.5l0.5,0.5
				l0.5-0.5L182.1,227.3z M269,137.3l-88.5,88.5l1,1l88.5-88.5L269,137.3z M181,138.6h88.5v-1.5H181V138.6z M180.3,136.4v1.5h1.5
				v-1.5H180.3z M269.3,135.7H181v1.5h88.3V135.7z M173.5,41.6l95.3,95.3l1-1l-95.3-95.3L173.5,41.6z M174.5,39.5l-1,1l1,1l1-1
				L174.5,39.5z M271,135l-95.4-95.4l-1,1l95.4,95.4L271,135z M269.7,10.7v124.8h1.5V10.7H269.7z M271.9,10h-1.5v1.5h1.5V10z
				 M272.7,135.4V10.7h-1.5v124.7H272.7z M361,45.3l-89.6,89.6l1,1L362,46.3L361,45.3z M363.1,46.3l-1-1l-1,1l1,1L363.1,46.3z
				 M273.5,136.9l89.5-89.5l-1-1l-89.5,89.5L273.5,136.9z M359.3,135.7H273v1.5h86.3V135.7z M360,137.8v-1.5h-1.5v1.5H360z
				 M272.8,138.6h86.5v-1.5h-86.5V138.6z M366.6,230.6l-93.2-93.2l-1,1l93.2,93.2L366.6,230.6z M365.6,232.6l1-1l-1-1l-1,1
				L365.6,232.6z M271.4,139.5l93.1,93.1l1-1l-93.1-93.1L271.4,139.5z M272.7,260V139h-1.5v121H272.7z M270.5,260.7h1.5v-1.5h-1.5
				V260.7z M269.7,138.9V260h1.5V138.9H269.7z M182.6,227.9l88.4-88.4l-1-1l-88.4,88.4L182.6,227.9z M180.5,226.8l1,1l1-1l-1-1
				L180.5,226.8z"/>
			<path class="st3" d="M219.4,260.4l50.4-121.7l-89.5,37.1l-0.6-1.4l89.4-37l-87.9-36.4l0.6-1.4l87.9,36.4L217.3,9.5l1.4-0.6
				l52.4,126.6L324.2,7.3l1.4,0.6L272.5,136l94.8-39.3l0.6,1.4L273,137.4l89.8,37.2l-0.6,1.3l-89.8-37.2L323.1,261l-1.4,0.6
				l-50.6-122.2l-50.4,121.6L219.4,260.4z"/>
			<path class="st4" d="M269.8,138.7l0.7,0.3l0.7-1.6l-1.6,0.7L269.8,138.7z M219.4,260.4l-0.7-0.3l-0.3,0.7l0.7,0.3L219.4,260.4z
				 M180.3,175.7l-0.7,0.3l0.3,0.7l0.7-0.3L180.3,175.7z M179.7,174.4l-0.3-0.7l-0.7,0.3l0.3,0.7L179.7,174.4z M269.1,137.4l0.3,0.7
				l1.6-0.7l-1.6-0.7L269.1,137.4z M181.2,100.9l-0.7-0.3l-0.3,0.7l0.7,0.3L181.2,100.9z M181.8,99.6l0.3-0.7l-0.7-0.3l-0.3,0.7
				L181.8,99.6z M269.7,136l-0.3,0.7l1.6,0.7l-0.7-1.6L269.7,136z M217.3,9.5L217,8.8l-0.7,0.3l0.3,0.7L217.3,9.5z M218.7,9l0.7-0.3
				L219.1,8l-0.7,0.3L218.7,9z M271.1,135.5l-0.7,0.3l0.7,1.6l0.7-1.6L271.1,135.5z M324.2,7.3l0.3-0.7l-0.7-0.3L323.5,7L324.2,7.3z
				 M325.6,7.9l0.7,0.3l0.3-0.7l-0.7-0.3L325.6,7.9z M272.5,136l-0.7-0.3l-0.7,1.6l1.6-0.7L272.5,136z M367.3,96.7l0.7-0.3l-0.3-0.7
				L367,96L367.3,96.7z M367.8,98.1l0.3,0.7l0.7-0.3l-0.3-0.7L367.8,98.1z M273,137.4l-0.3-0.7l-1.6,0.7l1.6,0.7L273,137.4z
				 M362.7,174.5l0.7,0.3l0.3-0.7l-0.7-0.3L362.7,174.5z M362.2,175.9l-0.3,0.7l0.7,0.3l0.3-0.7L362.2,175.9z M272.4,138.7l0.3-0.7
				l-1.6-0.7l0.7,1.6L272.4,138.7z M323.1,261l0.3,0.7l0.7-0.3l-0.3-0.7L323.1,261z M321.7,261.6l-0.7,0.3l0.3,0.7l0.7-0.3
				L321.7,261.6z M271.1,139.4l0.7-0.3l-0.7-1.6l-0.7,1.6L271.1,139.4z M220.7,260.9l-0.3,0.7l0.7,0.3l0.3-0.7L220.7,260.9z
				 M269.1,138.4l-50.4,121.7l1.4,0.6l50.4-121.7L269.1,138.4z M180.6,176.4l89.5-37.1l-0.6-1.4L180,175.1L180.6,176.4z M179,174.7
				l0.6,1.4l1.4-0.6l-0.6-1.4L179,174.7z M268.9,136.7l-89.4,37l0.6,1.4l89.4-37L268.9,136.7z M181,101.6l87.9,36.4l0.6-1.3
				l-87.9-36.4L181,101.6z M181.1,99.3l-0.6,1.4l1.3,0.6l0.6-1.3L181.1,99.3z M270,135.3l-87.9-36.4l-0.6,1.4l87.9,36.4L270,135.3z
				 M216.6,9.8L269,136.3l1.4-0.6L218,9.2L216.6,9.8z M218.4,8.3L217,8.8l0.6,1.4l1.3-0.6L218.4,8.3z M271.8,135.3L219.3,8.7
				L218,9.2l52.4,126.6L271.8,135.3z M323.5,7l-53.1,128.2l1.4,0.6L324.9,7.6L323.5,7z M325.8,7.2l-1.4-0.6L323.9,8l1.4,0.6
				L325.8,7.2z M273.2,136.2L326.2,8.1l-1.4-0.6l-53.1,128.1L273.2,136.2z M367,96l-94.8,39.3l0.6,1.3l94.8-39.3L367,96z
				 M368.5,97.8l-0.6-1.3l-1.4,0.6l0.6,1.4L368.5,97.8z M273.2,138l94.9-39.3l-0.6-1.4l-94.9,39.3L273.2,138z M363,173.9l-89.8-37.2
				l-0.6,1.3l89.8,37.2L363,173.9z M362.8,176.2l0.6-1.4l-1.4-0.6l-0.6,1.4L362.8,176.2z M272.1,139.4l89.8,37.2l0.6-1.4L272.7,138
				L272.1,139.4z M323.7,260.7l-50.7-122.3l-1.4,0.6l50.7,122.3L323.7,260.7z M322,262.2l1.4-0.6l-0.6-1.4l-1.4,0.6L322,262.2z
				 M270.4,139.6L321,261.8l1.4-0.6l-50.6-122.2L270.4,139.6z M221.4,261.2l50.4-121.6l-1.4-0.6l-50.4,121.6L221.4,261.2z
				 M219.1,261l1.4,0.6l0.6-1.4l-1.4-0.6L219.1,261z"/>
			<path class="st5" d="M324,5.4L203.5,297.7l1.8,3.2L325.8,8.7L324,5.4z"/>
		</g>
	</g>
</g>
<g id="Layer_5">
	<g>
		<defs>
			<rect id="SVGID_00000003075558107445706590000007685583579633572228_" x="901" y="11" width="174" height="246"/>
		</defs>
		<clipPath id="SVGID_00000052099337074586699520000002240382010337175213_">
			<use xlink:href="#SVGID_00000003075558107445706590000007685583579633572228_"  style="overflow:visible;"/>
		</clipPath>
		<g style="clip-path:url(#SVGID_00000052099337074586699520000002240382010337175213_);">
			<rect x="901" y="11" class="st2" width="174" height="246"/>
			<path class="st3" d="M896,226.3l88.5-88.5H896v-1.5h88.3L889,41.1l1-1l95.4,95.4V10.7h1.5v124.7l89.6-89.6l1,1L988,136.4h86.3
				v1.5h-86.5l93.2,93.2l-1,1L986.9,139v121h-1.5V138.9l-88.4,88.4L896,226.3z"/>
			<path class="st4" d="M984.5,137.8l0.5,0.5l1.2-1.2h-1.8V137.8z M896,226.3l-0.5-0.5l-0.5,0.5l0.5,0.5L896,226.3z M896,137.8h-0.7
				v0.7h0.7V137.8z M896,136.4v-0.7h-0.7v0.7H896z M984.3,136.4v0.7h1.8l-1.2-1.2L984.3,136.4z M889,41.1l-0.5-0.5l-0.5,0.5l0.5,0.5
				L889,41.1z M890.1,40.1l0.5-0.5l-0.5-0.5l-0.5,0.5L890.1,40.1z M985.5,135.5L985,136l1.2,1.2v-1.8H985.5z M985.5,10.7V10h-0.7
				v0.7H985.5z M986.9,10.7h0.7V10h-0.7V10.7z M986.9,135.4h-0.7v1.8l1.2-1.2L986.9,135.4z M1076.5,45.8l0.5-0.5l-0.5-0.5l-0.5,0.5
				L1076.5,45.8z M1077.6,46.9l0.5,0.5l0.5-0.5l-0.5-0.5L1077.6,46.9z M988,136.4l-0.5-0.5l-1.2,1.2h1.8V136.4z M1074.3,136.4h0.7
				v-0.7h-0.7V136.4z M1074.3,137.8v0.7h0.7v-0.7H1074.3z M987.8,137.8v-0.7h-1.8l1.2,1.2L987.8,137.8z M1081.1,231.1l0.5,0.5
				l0.5-0.5l-0.5-0.5L1081.1,231.1z M1080,232.1l-0.5,0.5l0.5,0.5l0.5-0.5L1080,232.1z M986.9,139l0.5-0.5l-1.2-1.2v1.8H986.9z
				 M986.9,260v0.7h0.7V260H986.9z M985.5,260h-0.7v0.7h0.7V260z M985.5,138.9h0.7v-1.8l-1.2,1.2L985.5,138.9z M897.1,227.3
				l-0.5,0.5l0.5,0.5l0.5-0.5L897.1,227.3z M984,137.3l-88.5,88.5l1,1l88.5-88.5L984,137.3z M896,138.6h88.5v-1.5H896V138.6z
				 M895.3,136.4v1.5h1.5v-1.5H895.3z M984.3,135.7H896v1.5h88.3V135.7z M888.5,41.6l95.3,95.3l1-1l-95.3-95.3L888.5,41.6z
				 M889.5,39.5l-1,1l1,1l1-1L889.5,39.5z M986,135l-95.4-95.4l-1,1L985,136L986,135z M984.7,10.7v124.8h1.5V10.7H984.7z M986.9,10
				h-1.5v1.5h1.5V10z M987.7,135.4V10.7h-1.5v124.7H987.7z M1076,45.3l-89.6,89.6l1,1l89.6-89.6L1076,45.3z M1078.1,46.3l-1-1l-1,1
				l1,1L1078.1,46.3z M988.5,136.9l89.5-89.5l-1-1l-89.5,89.5L988.5,136.9z M1074.3,135.7H988v1.5h86.3V135.7z M1075.1,137.8v-1.5
				h-1.5v1.5H1075.1z M987.8,138.6h86.5v-1.5h-86.5V138.6z M1081.6,230.6l-93.2-93.2l-1,1l93.2,93.2L1081.6,230.6z M1080.6,232.6
				l1-1l-1-1l-1,1L1080.6,232.6z M986.4,139.5l93.1,93.1l1-1l-93.1-93.1L986.4,139.5z M987.7,260V139h-1.5v121H987.7z M985.5,260.7
				h1.5v-1.5h-1.5V260.7z M984.7,138.9V260h1.5V138.9H984.7z M897.6,227.9l88.4-88.4l-1-1l-88.4,88.4L897.6,227.9z M895.5,226.8l1,1
				l1-1l-1-1L895.5,226.8z"/>
			<path class="st3" d="M934.4,260.4l50.4-121.7l-89.5,37.1l-0.6-1.3l89.4-37l-87.9-36.4l0.6-1.3l87.9,36.4L932.3,9.5l1.3-0.6
				l52.4,126.6l53.1-128.2l1.4,0.6L987.5,136l94.8-39.3l0.6,1.4L988,137.4l89.8,37.2l-0.6,1.4l-89.8-37.2l50.7,122.3l-1.4,0.6
				l-50.6-122.2l-50.4,121.6L934.4,260.4z"/>
			<path class="st4" d="M984.8,138.7l0.7,0.3l0.7-1.6l-1.6,0.7L984.8,138.7z M934.4,260.4l-0.7-0.3l-0.3,0.7l0.7,0.3L934.4,260.4z
				 M895.3,175.7l-0.7,0.3l0.3,0.7l0.7-0.3L895.3,175.7z M894.7,174.4l-0.3-0.7l-0.7,0.3l0.3,0.7L894.7,174.4z M984.1,137.4l0.3,0.7
				l1.6-0.7l-1.6-0.7L984.1,137.4z M896.2,100.9l-0.7-0.3l-0.3,0.7l0.7,0.3L896.2,100.9z M896.8,99.6l0.3-0.7l-0.7-0.3l-0.3,0.7
				L896.8,99.6z M984.7,136l-0.3,0.7l1.6,0.7l-0.7-1.6L984.7,136z M932.3,9.5L932,8.8l-0.7,0.3l0.3,0.7L932.3,9.5z M933.7,9l0.7-0.3
				L934.1,8l-0.7,0.3L933.7,9z M986.1,135.5l-0.7,0.3l0.7,1.6l0.7-1.6L986.1,135.5z M1039.2,7.3l0.3-0.7l-0.7-0.3l-0.3,0.7
				L1039.2,7.3z M1040.6,7.9l0.7,0.3l0.3-0.7l-0.7-0.3L1040.6,7.9z M987.5,136l-0.7-0.3l-0.7,1.6l1.6-0.7L987.5,136z M1082.3,96.7
				l0.7-0.3l-0.3-0.7L1082,96L1082.3,96.7z M1082.8,98.1l0.3,0.7l0.7-0.3l-0.3-0.7L1082.8,98.1z M988,137.4l-0.3-0.7l-1.6,0.7
				l1.6,0.7L988,137.4z M1077.7,174.5l0.7,0.3l0.3-0.7l-0.7-0.3L1077.7,174.5z M1077.2,175.9l-0.3,0.7l0.7,0.3l0.3-0.7L1077.2,175.9
				z M987.4,138.7l0.3-0.7l-1.6-0.7l0.7,1.6L987.4,138.7z M1038.1,261l0.3,0.7l0.7-0.3l-0.3-0.7L1038.1,261z M1036.7,261.6l-0.7,0.3
				l0.3,0.7l0.7-0.3L1036.7,261.6z M986.1,139.4l0.7-0.3l-0.7-1.6l-0.7,1.6L986.1,139.4z M935.7,260.9l-0.3,0.7l0.7,0.3l0.3-0.7
				L935.7,260.9z M984.1,138.4l-50.4,121.7l1.4,0.6l50.4-121.7L984.1,138.4z M895.6,176.4l89.5-37.1l-0.6-1.4L895,175.1L895.6,176.4
				z M894,174.7l0.6,1.4l1.3-0.6l-0.6-1.3L894,174.7z M983.9,136.7l-89.4,37l0.6,1.3l89.4-37L983.9,136.7z M896,101.6l87.9,36.4
				l0.6-1.4l-87.9-36.4L896,101.6z M896.1,99.3l-0.6,1.4l1.3,0.6l0.6-1.3L896.1,99.3z M985,135.3l-87.9-36.4l-0.6,1.3l87.9,36.4
				L985,135.3z M931.6,9.8L984,136.3l1.4-0.6L933,9.2L931.6,9.8z M933.4,8.3L932,8.8l0.6,1.4l1.3-0.6L933.4,8.3z M986.8,135.3
				L934.3,8.7L933,9.2l52.4,126.6L986.8,135.3z M1038.5,7l-53.1,128.2l1.3,0.6l53.1-128.2L1038.5,7z M1040.8,7.2l-1.3-0.6l-0.6,1.4
				l1.3,0.6L1040.8,7.2z M988.2,136.2l53.1-128.1l-1.3-0.6l-53.1,128.1L988.2,136.2z M1082,96l-94.8,39.3l0.6,1.3l94.8-39.3L1082,96
				z M1083.5,97.8l-0.6-1.4l-1.3,0.6l0.6,1.4L1083.5,97.8z M988.2,138l94.9-39.3l-0.6-1.3l-94.9,39.3L988.2,138z M1078,173.9
				l-89.8-37.2l-0.6,1.4l89.8,37.2L1078,173.9z M1077.8,176.2l0.6-1.4l-1.3-0.6l-0.6,1.3L1077.8,176.2z M987.1,139.4l89.8,37.2
				l0.5-1.4L987.7,138L987.1,139.4z M1038.7,260.7l-50.7-122.3l-1.4,0.6l50.7,122.3L1038.7,260.7z M1037,262.2l1.3-0.6l-0.6-1.3
				l-1.3,0.6L1037,262.2z M985.4,139.6l50.6,122.2l1.4-0.6l-50.6-122.2L985.4,139.6z M936.4,261.2l50.4-121.6l-1.3-0.6l-50.4,121.6
				L936.4,261.2z M934.1,261l1.3,0.6l0.6-1.3l-1.3-0.6L934.1,261z"/>
			<path class="st5" d="M1099.6,25.9L876.1,249.4l-4-0.4l223.5-223.5L1099.6,25.9z"/>
		</g>
	</g>
</g>
<g id="Layer_6">
	<g>
		<defs>
			<rect id="SVGID_00000123415480155391584800000016731501927073815720_" x="365" y="11" width="174" height="246"/>
		</defs>
		<clipPath id="SVGID_00000168092644570053826700000005834134287052148408_">
			<use xlink:href="#SVGID_00000123415480155391584800000016731501927073815720_"  style="overflow:visible;"/>
		</clipPath>
		<g style="clip-path:url(#SVGID_00000168092644570053826700000005834134287052148408_);">
			<rect x="365" y="11" class="st2" width="174" height="246"/>
			<path class="st3" d="M360,226.3l88.5-88.5H360v-1.5h88.3L353,41.1l1-1l95.4,95.4V10.7h1.5v124.7l89.6-89.6l1,1L452,136.4h86.3
				v1.5h-86.5l93.2,93.2l-1,1L450.9,139v121h-1.5V138.9l-88.4,88.4L360,226.3z"/>
			<path class="st4" d="M448.5,137.8l0.5,0.5l1.2-1.2h-1.8V137.8z M360,226.3l-0.5-0.5l-0.5,0.5l0.5,0.5L360,226.3z M360,137.8h-0.7
				v0.7h0.7V137.8z M360,136.4v-0.7h-0.7v0.7H360z M448.3,136.4v0.7h1.8l-1.2-1.2L448.3,136.4z M353,41.1l-0.5-0.5l-0.5,0.5l0.5,0.5
				L353,41.1z M354,40.1l0.5-0.5L354,39l-0.5,0.5L354,40.1z M449.5,135.5l-0.5,0.5l1.2,1.2v-1.8H449.5z M449.5,10.7V10h-0.7v0.7
				H449.5z M450.9,10.7h0.7V10h-0.7V10.7z M450.9,135.4h-0.7v1.8l1.2-1.2L450.9,135.4z M540.5,45.8l0.5-0.5l-0.5-0.5l-0.5,0.5
				L540.5,45.8z M541.5,46.9l0.5,0.5l0.5-0.5l-0.5-0.5L541.5,46.9z M452,136.4l-0.5-0.5l-1.2,1.2h1.8V136.4z M538.3,136.4h0.7v-0.7
				h-0.7V136.4z M538.3,137.8v0.7h0.7v-0.7H538.3z M451.8,137.8v-0.7h-1.8l1.2,1.2L451.8,137.8z M545.1,231.1l0.5,0.5l0.5-0.5
				l-0.5-0.5L545.1,231.1z M544,232.1l-0.5,0.5l0.5,0.5l0.5-0.5L544,232.1z M450.9,139l0.5-0.5l-1.2-1.2v1.8H450.9z M450.9,260v0.7
				h0.7V260H450.9z M449.5,260h-0.7v0.7h0.7V260z M449.5,138.9h0.7v-1.8l-1.2,1.2L449.5,138.9z M361.1,227.3l-0.5,0.5l0.5,0.5
				l0.5-0.5L361.1,227.3z M448,137.3l-88.5,88.5l1,1l88.5-88.5L448,137.3z M360,138.6h88.5v-1.5H360V138.6z M359.3,136.4v1.5h1.5
				v-1.5H359.3z M448.3,135.6H360v1.5h88.3V135.6z M352.5,41.6l95.3,95.3l1-1l-95.3-95.3L352.5,41.6z M353.5,39.5l-1,1l1,1l1-1
				L353.5,39.5z M450,135l-95.4-95.4l-1,1l95.4,95.4L450,135z M448.7,10.7v124.8h1.5V10.7H448.7z M450.9,10h-1.5v1.5h1.5V10z
				 M451.6,135.4V10.7h-1.5v124.7H451.6z M540,45.3l-89.6,89.6l1,1L541,46.3L540,45.3z M542.1,46.3l-1-1l-1,1l1,1L542.1,46.3z
				 M452.5,136.9l89.5-89.5l-1-1l-89.5,89.5L452.5,136.9z M538.3,135.6H452v1.5h86.3V135.6z M539,137.8v-1.5h-1.5v1.5H539z
				 M451.8,138.6h86.5v-1.5h-86.5V138.6z M545.6,230.6l-93.2-93.2l-1,1l93.2,93.2L545.6,230.6z M544.6,232.6l1-1l-1-1l-1,1
				L544.6,232.6z M450.4,139.5l93.1,93.1l1-1l-93.1-93.1L450.4,139.5z M451.6,260V139h-1.5v121H451.6z M449.5,260.7h1.5v-1.5h-1.5
				V260.7z M448.7,138.9V260h1.5V138.9H448.7z M361.6,227.9l88.4-88.4l-1-1l-88.4,88.4L361.6,227.9z M359.5,226.8l1,1l1-1l-1-1
				L359.5,226.8z"/>
			<path class="st3" d="M398.4,260.4l50.4-121.7l-89.5,37.1l-0.6-1.3l89.4-37l-87.9-36.4l0.6-1.4l87.9,36.4L396.3,9.5l1.4-0.6
				l52.4,126.6L503.2,7.3l1.4,0.6L451.5,136l94.8-39.3l0.6,1.4L452,137.4l89.8,37.2l-0.6,1.4l-89.8-37.2L502.1,261l-1.4,0.6
				l-50.6-122.2l-50.4,121.6L398.4,260.4z"/>
			<path class="st4" d="M448.8,138.7l0.7,0.3l0.7-1.6l-1.6,0.7L448.8,138.7z M398.4,260.4l-0.7-0.3l-0.3,0.7l0.7,0.3L398.4,260.4z
				 M359.3,175.7l-0.7,0.3l0.3,0.7l0.7-0.3L359.3,175.7z M358.7,174.4l-0.3-0.7l-0.7,0.3l0.3,0.7L358.7,174.4z M448.1,137.4l0.3,0.7
				l1.6-0.7l-1.6-0.7L448.1,137.4z M360.2,100.9l-0.7-0.3l-0.3,0.7l0.7,0.3L360.2,100.9z M360.8,99.6l0.3-0.7l-0.7-0.3l-0.3,0.7
				L360.8,99.6z M448.7,136l-0.3,0.7l1.6,0.7l-0.7-1.6L448.7,136z M396.3,9.5L396,8.8l-0.7,0.3l0.3,0.7L396.3,9.5z M397.7,9l0.7-0.3
				L398,8l-0.7,0.3L397.7,9z M450.1,135.5l-0.7,0.3l0.7,1.6l0.7-1.6L450.1,135.5z M503.2,7.3l0.3-0.7l-0.7-0.3L502.5,7L503.2,7.3z
				 M504.6,7.9l0.7,0.3l0.3-0.7l-0.7-0.3L504.6,7.9z M451.5,136l-0.7-0.3l-0.7,1.6l1.6-0.7L451.5,136z M546.3,96.7l0.7-0.3l-0.3-0.7
				L546,96L546.3,96.7z M546.8,98.1l0.3,0.7l0.7-0.3l-0.3-0.7L546.8,98.1z M452,137.4l-0.3-0.7l-1.6,0.7l1.6,0.7L452,137.4z
				 M541.7,174.5l0.7,0.3l0.3-0.7l-0.7-0.3L541.7,174.5z M541.2,175.9l-0.3,0.7l0.7,0.3l0.3-0.7L541.2,175.9z M451.4,138.7l0.3-0.7
				l-1.6-0.7l0.7,1.6L451.4,138.7z M502.1,261l0.3,0.7l0.7-0.3l-0.3-0.7L502.1,261z M500.7,261.6l-0.7,0.3l0.3,0.7l0.7-0.3
				L500.7,261.6z M450.1,139.4l0.7-0.3l-0.7-1.6l-0.7,1.6L450.1,139.4z M399.7,260.9l-0.3,0.7l0.7,0.3l0.3-0.7L399.7,260.9z
				 M448.1,138.4l-50.4,121.7l1.3,0.6l50.4-121.7L448.1,138.4z M359.5,176.4l89.5-37.1l-0.6-1.4L359,175.1L359.5,176.4z M358,174.7
				l0.6,1.4l1.4-0.6l-0.6-1.3L358,174.7z M447.9,136.7l-89.4,37l0.6,1.3l89.4-37L447.9,136.7z M360,101.6l87.9,36.4l0.6-1.4
				l-87.9-36.4L360,101.6z M360.1,99.3l-0.6,1.4l1.4,0.6l0.6-1.3L360.1,99.3z M449,135.3l-87.9-36.4l-0.6,1.4l87.9,36.4L449,135.3z
				 M395.6,9.8L448,136.3l1.3-0.6L397,9.2L395.6,9.8z M397.4,8.3L396,8.8l0.6,1.4l1.4-0.6L397.4,8.3z M450.8,135.3L398.3,8.7
				L397,9.2l52.4,126.6L450.8,135.3z M502.5,7l-53.1,128.2l1.4,0.6L503.9,7.6L502.5,7z M504.8,7.2l-1.4-0.6L502.9,8l1.4,0.6
				L504.8,7.2z M452.2,136.2L505.2,8.1l-1.4-0.6l-53.1,128.1L452.2,136.2z M546,96l-94.8,39.3l0.6,1.3l94.8-39.3L546,96z
				 M547.5,97.8l-0.6-1.4l-1.3,0.6l0.6,1.4L547.5,97.8z M452.2,138l94.9-39.3l-0.6-1.4l-94.9,39.3L452.2,138z M542,173.9l-89.8-37.2
				l-0.6,1.4l89.8,37.2L542,173.9z M541.8,176.2l0.6-1.4l-1.3-0.6l-0.6,1.3L541.8,176.2z M451.1,139.4l89.8,37.2l0.6-1.4L451.7,138
				L451.1,139.4z M502.7,260.7l-50.7-122.3l-1.4,0.6l50.7,122.3L502.7,260.7z M501,262.2l1.4-0.6l-0.6-1.3l-1.4,0.6L501,262.2z
				 M449.4,139.6L500,261.8l1.4-0.6l-50.6-122.2L449.4,139.6z M400.4,261.2l50.4-121.6l-1.4-0.6l-50.4,121.6L400.4,261.2z
				 M398.1,261l1.4,0.6l0.6-1.3l-1.4-0.6L398.1,261z"/>
			<path class="st5" d="M396.6,3.7L517,295.9l-1.8,3.2L394.8,6.9L396.6,3.7z"/>
		</g>
	</g>
</g>
<g id="Layer_7">
	<g>
		<defs>
			<rect id="SVGID_00000116932858621910667180000016795918876333395339_" x="1080" y="11" width="174" height="246"/>
		</defs>
		<clipPath id="SVGID_00000029755656900505303470000001499032281398703001_">
			<use xlink:href="#SVGID_00000116932858621910667180000016795918876333395339_"  style="overflow:visible;"/>
		</clipPath>
		<g style="clip-path:url(#SVGID_00000029755656900505303470000001499032281398703001_);">
			<rect x="1080" y="11" class="st2" width="174" height="246"/>
			<path class="st3" d="M1075,226.3l88.5-88.5H1075v-1.5h88.3L1068,41.1l1-1l95.4,95.4V10.7h1.5v124.7l89.6-89.6l1,1l-89.5,89.5
				h86.3v1.5h-86.5l93.2,93.2l-1,1l-93.1-93.1v121h-1.5V138.9l-88.4,88.4L1075,226.3z"/>
			<path class="st4" d="M1163.5,137.8l0.5,0.5l1.2-1.2h-1.8V137.8z M1075,226.3l-0.5-0.5l-0.5,0.5l0.5,0.5L1075,226.3z M1075,137.8
				h-0.7v0.7h0.7V137.8z M1075,136.4v-0.7h-0.7v0.7H1075z M1163.3,136.4v0.7h1.8l-1.2-1.2L1163.3,136.4z M1068,41.1l-0.5-0.5
				l-0.5,0.5l0.5,0.5L1068,41.1z M1069.1,40.1l0.5-0.5l-0.5-0.5l-0.5,0.5L1069.1,40.1z M1164.5,135.5l-0.5,0.5l1.2,1.2v-1.8H1164.5z
				 M1164.5,10.7V10h-0.7v0.7H1164.5z M1165.9,10.7h0.7V10h-0.7V10.7z M1165.9,135.4h-0.7v1.8l1.2-1.2L1165.9,135.4z M1255.5,45.8
				l0.5-0.5l-0.5-0.5l-0.5,0.5L1255.5,45.8z M1256.5,46.9l0.5,0.5l0.5-0.5l-0.5-0.5L1256.5,46.9z M1167,136.4l-0.5-0.5l-1.2,1.2h1.8
				V136.4z M1253.3,136.4h0.7v-0.7h-0.7V136.4z M1253.3,137.8v0.7h0.7v-0.7H1253.3z M1166.8,137.8v-0.7h-1.8l1.2,1.2L1166.8,137.8z
				 M1260.1,231.1l0.5,0.5l0.5-0.5l-0.5-0.5L1260.1,231.1z M1259,232.1l-0.5,0.5l0.5,0.5l0.5-0.5L1259,232.1z M1165.9,139l0.5-0.5
				l-1.2-1.2v1.8H1165.9z M1165.9,260v0.7h0.7V260H1165.9z M1164.5,260h-0.7v0.7h0.7V260z M1164.5,138.9h0.7v-1.8l-1.2,1.2
				L1164.5,138.9z M1076.1,227.3l-0.5,0.5l0.5,0.5l0.5-0.5L1076.1,227.3z M1163,137.3l-88.4,88.5l1,1l88.5-88.5L1163,137.3z
				 M1075,138.6h88.5v-1.5H1075V138.6z M1074.3,136.4v1.5h1.5v-1.5H1074.3z M1163.3,135.7H1075v1.5h88.3V135.7z M1067.5,41.6
				l95.3,95.3l1-1l-95.3-95.3L1067.5,41.6z M1068.5,39.5l-1,1l1,1l1-1L1068.5,39.5z M1165,135l-95.4-95.4l-1,1l95.4,95.4L1165,135z
				 M1163.7,10.7v124.8h1.5V10.7H1163.7z M1165.9,10h-1.5v1.5h1.5V10z M1166.7,135.4V10.7h-1.5v124.7H1166.7z M1255,45.3l-89.6,89.6
				l1,1l89.6-89.6L1255,45.3z M1257.1,46.3l-1-1l-1,1l1,1L1257.1,46.3z M1167.5,136.9l89.5-89.5l-1-1l-89.5,89.5L1167.5,136.9z
				 M1253.3,135.7H1167v1.5h86.3V135.7z M1254,137.8v-1.5h-1.5v1.5H1254z M1166.8,138.6h86.5v-1.5h-86.5V138.6z M1260.6,230.6
				l-93.2-93.2l-1,1l93.2,93.2L1260.6,230.6z M1259.6,232.6l1-1l-1-1l-1,1L1259.6,232.6z M1165.4,139.5l93.1,93.1l1-1l-93.1-93.1
				L1165.4,139.5z M1166.7,260V139h-1.5v121H1166.7z M1164.5,260.7h1.5v-1.5h-1.5V260.7z M1163.7,138.9V260h1.5V138.9H1163.7z
				 M1076.6,227.9l88.4-88.4l-1-1l-88.4,88.4L1076.6,227.9z M1074.5,226.8l1,1l1-1l-1-1L1074.5,226.8z"/>
			<path class="st3" d="M1113.4,260.4l50.4-121.7l-89.5,37.1l-0.6-1.3l89.4-37l-87.9-36.4l0.6-1.4l87.9,36.4L1111.3,9.5l1.3-0.6
				l52.4,126.6l53.1-128.2l1.4,0.6L1166.5,136l94.8-39.3l0.6,1.4l-94.9,39.3l89.8,37.2l-0.6,1.4l-89.8-37.2l50.7,122.3l-1.4,0.6
				l-50.6-122.2l-50.4,121.6L1113.4,260.4z"/>
			<path class="st4" d="M1163.8,138.7l0.7,0.3l0.7-1.6l-1.6,0.7L1163.8,138.7z M1113.4,260.4l-0.7-0.3l-0.3,0.7l0.7,0.3
				L1113.4,260.4z M1074.3,175.7l-0.7,0.3l0.3,0.7l0.7-0.3L1074.3,175.7z M1073.7,174.4l-0.3-0.7l-0.7,0.3l0.3,0.7L1073.7,174.4z
				 M1163.1,137.4l0.3,0.7l1.6-0.7l-1.6-0.7L1163.1,137.4z M1075.2,100.9l-0.7-0.3l-0.3,0.7l0.7,0.3L1075.2,100.9z M1075.8,99.6
				l0.3-0.7l-0.7-0.3l-0.3,0.7L1075.8,99.6z M1163.7,136l-0.3,0.7l1.6,0.7l-0.7-1.6L1163.7,136z M1111.3,9.5l-0.3-0.7l-0.7,0.3
				l0.3,0.7L1111.3,9.5z M1112.7,9l0.7-0.3l-0.3-0.7l-0.7,0.3L1112.7,9z M1165.1,135.5l-0.7,0.3l0.7,1.6l0.7-1.6L1165.1,135.5z
				 M1218.2,7.3l0.3-0.7l-0.7-0.3l-0.3,0.7L1218.2,7.3z M1219.6,7.9l0.7,0.3l0.3-0.7l-0.7-0.3L1219.6,7.9z M1166.5,136l-0.7-0.3
				l-0.7,1.6l1.6-0.7L1166.5,136z M1261.3,96.7l0.7-0.3l-0.3-0.7L1261,96L1261.3,96.7z M1261.8,98.1l0.3,0.7l0.7-0.3l-0.3-0.7
				L1261.8,98.1z M1167,137.4l-0.3-0.7l-1.6,0.7l1.6,0.7L1167,137.4z M1256.7,174.5l0.7,0.3l0.3-0.7l-0.7-0.3L1256.7,174.5z
				 M1256.2,175.9l-0.3,0.7l0.7,0.3l0.3-0.7L1256.2,175.9z M1166.4,138.7l0.3-0.7l-1.6-0.7l0.7,1.6L1166.4,138.7z M1217.1,261
				l0.3,0.7l0.7-0.3l-0.3-0.7L1217.1,261z M1215.7,261.6l-0.7,0.3l0.3,0.7l0.7-0.3L1215.7,261.6z M1165.1,139.4l0.7-0.3l-0.7-1.6
				l-0.7,1.6L1165.1,139.4z M1114.7,260.9l-0.3,0.7l0.7,0.3l0.3-0.7L1114.7,260.9z M1163.1,138.4l-50.4,121.7l1.4,0.6l50.4-121.7
				L1163.1,138.4z M1074.6,176.4l89.5-37.1l-0.6-1.4l-89.5,37.1L1074.6,176.4z M1073,174.7l0.6,1.4l1.3-0.6l-0.6-1.3L1073,174.7z
				 M1162.9,136.7l-89.4,37l0.6,1.4l89.4-37L1162.9,136.7z M1075,101.6l87.9,36.4l0.6-1.3l-87.9-36.4L1075,101.6z M1075.1,99.3
				l-0.6,1.3l1.3,0.6l0.6-1.4L1075.1,99.3z M1164,135.3l-87.9-36.4l-0.6,1.4l87.9,36.4L1164,135.3z M1110.6,9.8l52.4,126.5l1.3-0.6
				L1112,9.2L1110.6,9.8z M1112.4,8.3l-1.3,0.6l0.6,1.4l1.3-0.6L1112.4,8.3z M1165.8,135.3L1113.3,8.7l-1.3,0.6l52.4,126.6
				L1165.8,135.3z M1217.5,7l-53.1,128.2l1.3,0.6l53.1-128.2L1217.5,7z M1219.8,7.2l-1.3-0.6l-0.5,1.4l1.3,0.6L1219.8,7.2z
				 M1167.2,136.2l53.1-128.1l-1.3-0.6l-53.1,128.1L1167.2,136.2z M1261,96l-94.8,39.3l0.6,1.3l94.8-39.3L1261,96z M1262.5,97.8
				l-0.6-1.4l-1.3,0.6l0.6,1.4L1262.5,97.8z M1167.2,138l94.9-39.3l-0.6-1.4l-94.9,39.3L1167.2,138z M1257,173.9l-89.8-37.2
				l-0.6,1.3l89.8,37.2L1257,173.9z M1256.8,176.2l0.6-1.4l-1.3-0.6l-0.6,1.4L1256.8,176.2z M1166.1,139.4l89.8,37.2l0.6-1.4
				l-89.8-37.2L1166.1,139.4z M1217.7,260.7l-50.7-122.3l-1.3,0.6l50.7,122.3L1217.7,260.7z M1216,262.2l1.3-0.6l-0.6-1.4l-1.3,0.6
				L1216,262.2z M1164.4,139.6l50.6,122.2l1.3-0.6l-50.6-122.2L1164.4,139.6z M1115.4,261.2l50.4-121.6l-1.3-0.6l-50.4,121.6
				L1115.4,261.2z M1113.1,261l1.3,0.6l0.6-1.4l-1.3-0.6L1113.1,261z"/>
			<path class="st5" d="M1025.1,77.5l292.1,120.7l1.2,4.1L1026.2,81.6L1025.1,77.5z"/>
		</g>
	</g>
</g>
<g id="Layer_8">
	<g>
		<defs>
			<rect id="SVGID_00000180366550239502804280000002196420198879096985_" x="544" y="11" width="174" height="246"/>
		</defs>
		<clipPath id="SVGID_00000021095256007238925370000011130854508053616258_">
			<use xlink:href="#SVGID_00000180366550239502804280000002196420198879096985_"  style="overflow:visible;"/>
		</clipPath>
		<g style="clip-path:url(#SVGID_00000021095256007238925370000011130854508053616258_);">
			<rect x="544" y="11" class="st2" width="174" height="246"/>
			<path class="st3" d="M539,226.3l88.5-88.5H539v-1.5h88.3L532,41.1l1-1l95.4,95.4V10.7h1.5v124.7l89.6-89.6l1,1L631,136.4h86.3
				v1.5h-86.5l93.2,93.2l-1,1L629.9,139v121h-1.5V138.9l-88.4,88.4L539,226.3z"/>
			<path class="st4" d="M627.5,137.8l0.5,0.5l1.2-1.2h-1.8V137.8z M539,226.3l-0.5-0.5l-0.5,0.5l0.5,0.5L539,226.3z M539,137.8h-0.7
				v0.7h0.7V137.8z M539,136.4v-0.7h-0.7v0.7H539z M627.3,136.4v0.7h1.8l-1.2-1.2L627.3,136.4z M532,41.1l-0.5-0.5l-0.5,0.5l0.5,0.5
				L532,41.1z M533,40.1l0.5-0.5L533,39l-0.5,0.5L533,40.1z M628.5,135.5l-0.5,0.5l1.2,1.2v-1.8H628.5z M628.5,10.7V10h-0.7v0.7
				H628.5z M629.9,10.7h0.7V10h-0.7V10.7z M629.9,135.4h-0.7v1.8l1.2-1.2L629.9,135.4z M719.5,45.8l0.5-0.5l-0.5-0.5l-0.5,0.5
				L719.5,45.8z M720.5,46.9l0.5,0.5l0.5-0.5l-0.5-0.5L720.5,46.9z M631,136.4l-0.5-0.5l-1.2,1.2h1.8V136.4z M717.3,136.4h0.7v-0.7
				h-0.7V136.4z M717.3,137.8v0.7h0.7v-0.7H717.3z M630.8,137.8v-0.7h-1.8l1.2,1.2L630.8,137.8z M724.1,231.1l0.5,0.5l0.5-0.5
				l-0.5-0.5L724.1,231.1z M723,232.1l-0.5,0.5l0.5,0.5l0.5-0.5L723,232.1z M629.9,139l0.5-0.5l-1.2-1.2v1.8H629.9z M629.9,260v0.7
				h0.7V260H629.9z M628.5,260h-0.7v0.7h0.7V260z M628.5,138.9h0.7v-1.8l-1.2,1.2L628.5,138.9z M540.1,227.3l-0.5,0.5l0.5,0.5
				l0.5-0.5L540.1,227.3z M627,137.3l-88.5,88.5l1,1l88.5-88.5L627,137.3z M539,138.6h88.5v-1.5H539V138.6z M538.3,136.4v1.5h1.5
				v-1.5H538.3z M627.3,135.7H539v1.5h88.3V135.7z M531.5,41.6l95.3,95.3l1-1l-95.3-95.3L531.5,41.6z M532.5,39.5l-1,1l1,1l1-1
				L532.5,39.5z M629,135l-95.4-95.4l-1,1l95.4,95.4L629,135z M627.7,10.7v124.8h1.5V10.7H627.7z M629.9,10h-1.5v1.5h1.5V10z
				 M630.7,135.4V10.7h-1.5v124.7H630.7z M719,45.3l-89.6,89.6l1,1L720,46.3L719,45.3z M721.1,46.3l-1-1l-1,1l1,1L721.1,46.3z
				 M631.5,136.9l89.5-89.5l-1-1l-89.5,89.5L631.5,136.9z M717.3,135.7H631v1.5h86.3V135.7z M718,137.8v-1.5h-1.5v1.5H718z
				 M630.8,138.6h86.5v-1.5h-86.5V138.6z M724.6,230.6l-93.2-93.2l-1,1l93.2,93.2L724.6,230.6z M723.6,232.6l1-1l-1-1l-1,1
				L723.6,232.6z M629.4,139.5l93.1,93.1l1-1l-93.1-93.1L629.4,139.5z M630.7,260V139h-1.5v121H630.7z M628.5,260.7h1.5v-1.5h-1.5
				V260.7z M627.7,138.9V260h1.5V138.9H627.7z M540.6,227.9l88.4-88.4l-1-1l-88.4,88.4L540.6,227.9z M538.5,226.8l1,1l1-1l-1-1
				L538.5,226.8z"/>
			<path class="st3" d="M577.4,260.4l50.4-121.7l-89.5,37.1l-0.6-1.4l89.4-37l-87.9-36.4l0.6-1.4l87.9,36.4L575.3,9.5l1.4-0.6
				l52.4,126.6L682.2,7.3l1.3,0.6L630.5,136l94.8-39.3l0.6,1.4L631,137.4l89.8,37.2l-0.6,1.4l-89.8-37.2L681.1,261l-1.4,0.6
				l-50.6-122.2l-50.4,121.6L577.4,260.4z"/>
			<path class="st4" d="M627.8,138.7l0.7,0.3l0.7-1.6l-1.6,0.7L627.8,138.7z M577.4,260.4l-0.7-0.3l-0.3,0.7l0.7,0.3L577.4,260.4z
				 M538.3,175.7l-0.7,0.3l0.3,0.7l0.7-0.3L538.3,175.7z M537.7,174.4l-0.3-0.7l-0.7,0.3l0.3,0.7L537.7,174.4z M627.1,137.4l0.3,0.7
				l1.6-0.7l-1.6-0.7L627.1,137.4z M539.2,100.9l-0.7-0.3l-0.3,0.7l0.7,0.3L539.2,100.9z M539.8,99.6l0.3-0.7l-0.7-0.3l-0.3,0.7
				L539.8,99.6z M627.7,136l-0.3,0.7l1.6,0.7l-0.7-1.6L627.7,136z M575.3,9.5L575,8.8l-0.7,0.3l0.3,0.7L575.3,9.5z M576.7,9l0.7-0.3
				L577,8l-0.7,0.3L576.7,9z M629.1,135.5l-0.7,0.3l0.7,1.6l0.7-1.6L629.1,135.5z M682.2,7.3l0.3-0.7l-0.7-0.3L681.5,7L682.2,7.3z
				 M683.6,7.9l0.7,0.3l0.3-0.7l-0.7-0.3L683.6,7.9z M630.5,136l-0.7-0.3l-0.7,1.6l1.6-0.7L630.5,136z M725.3,96.7l0.7-0.3l-0.3-0.7
				L725,96L725.3,96.7z M725.8,98.1l0.3,0.7l0.7-0.3l-0.3-0.7L725.8,98.1z M631,137.4l-0.3-0.7l-1.6,0.7l1.6,0.7L631,137.4z
				 M720.7,174.5l0.7,0.3l0.3-0.7l-0.7-0.3L720.7,174.5z M720.2,175.9l-0.3,0.7l0.7,0.3l0.3-0.7L720.2,175.9z M630.4,138.7l0.3-0.7
				l-1.6-0.7l0.7,1.6L630.4,138.7z M681.1,261l0.3,0.7l0.7-0.3l-0.3-0.7L681.1,261z M679.7,261.6l-0.7,0.3l0.3,0.7l0.7-0.3
				L679.7,261.6z M629.1,139.4l0.7-0.3l-0.7-1.6l-0.7,1.6L629.1,139.4z M578.7,260.9l-0.3,0.7l0.7,0.3l0.3-0.7L578.7,260.9z
				 M627.1,138.4l-50.4,121.7l1.3,0.6l50.4-121.7L627.1,138.4z M538.5,176.4l89.5-37.1l-0.6-1.4L538,175.1L538.5,176.4z M537,174.7
				l0.6,1.4l1.4-0.6l-0.6-1.3L537,174.7z M626.9,136.7l-89.4,37l0.6,1.4l89.4-37L626.9,136.7z M539,101.6l87.9,36.4l0.6-1.4
				l-87.9-36.4L539,101.6z M539.1,99.3l-0.6,1.4l1.4,0.6l0.6-1.3L539.1,99.3z M628,135.3l-87.9-36.4l-0.6,1.4l87.9,36.4L628,135.3z
				 M574.6,9.8L627,136.3l1.3-0.6L576,9.2L574.6,9.8z M576.4,8.3L575,8.8l0.6,1.4l1.3-0.6L576.4,8.3z M629.8,135.3L577.3,8.7
				L576,9.2l52.4,126.6L629.8,135.3z M681.5,7l-53.1,128.2l1.4,0.6L682.9,7.6L681.5,7z M683.8,7.2l-1.3-0.6L681.9,8l1.4,0.6
				L683.8,7.2z M631.2,136.2L684.2,8.1l-1.3-0.6l-53.1,128.1L631.2,136.2z M725,96l-94.8,39.3l0.6,1.4l94.8-39.3L725,96z
				 M726.5,97.8l-0.6-1.4l-1.3,0.6l0.6,1.4L726.5,97.8z M631.2,138l94.9-39.3l-0.6-1.4l-94.9,39.3L631.2,138z M721,173.9l-89.8-37.2
				l-0.6,1.4l89.8,37.2L721,173.9z M720.8,176.2l0.6-1.4l-1.4-0.6l-0.6,1.3L720.8,176.2z M630.1,139.4l89.8,37.2l0.6-1.4L630.7,138
				L630.1,139.4z M681.7,260.7l-50.7-122.3l-1.3,0.6l50.7,122.3L681.7,260.7z M680,262.2l1.4-0.6l-0.6-1.4l-1.3,0.6L680,262.2z
				 M628.4,139.6L679,261.8l1.4-0.6l-50.6-122.2L628.4,139.6z M579.4,261.2l50.4-121.6l-1.4-0.6l-50.4,121.6L579.4,261.2z
				 M577.1,261l1.4,0.6l0.6-1.4l-1.4-0.6L577.1,261z"/>
			<path class="st5" d="M527.1,32.7l223.6,223.4l-0.4,3.7L526.7,36.3L527.1,32.7z"/>
		</g>
	</g>
</g>
<g id="Layer_9">
	<g>
		<defs>
			<rect id="SVGID_00000103233486683223713210000007817173569089762736_" x="1259" y="11" width="174" height="246"/>
		</defs>
		<clipPath id="SVGID_00000042707613578632341630000011585370867796972474_">
			<use xlink:href="#SVGID_00000103233486683223713210000007817173569089762736_"  style="overflow:visible;"/>
		</clipPath>
		<g style="clip-path:url(#SVGID_00000042707613578632341630000011585370867796972474_);">
			<rect x="1259" y="11" class="st2" width="174" height="246"/>
			<path class="st3" d="M1254,226.3l88.5-88.5H1254v-1.5h88.3L1247,41.1l1-1l95.4,95.4V10.7h1.5v124.7l89.6-89.6l1,1l-89.5,89.5
				h86.3v1.5h-86.5l93.2,93.2l-1,1l-93.1-93.1v121h-1.5V138.9l-88.4,88.4L1254,226.3z"/>
			<path class="st4" d="M1342.5,137.8l0.5,0.5l1.2-1.2h-1.8V137.8z M1254,226.3l-0.5-0.5l-0.5,0.5l0.5,0.5L1254,226.3z M1254,137.8
				h-0.7v0.7h0.7V137.8z M1254,136.4v-0.7h-0.7v0.7H1254z M1342.3,136.4v0.7h1.8l-1.2-1.2L1342.3,136.4z M1247,41.1l-0.5-0.5
				l-0.5,0.5l0.5,0.5L1247,41.1z M1248.1,40.1l0.5-0.5l-0.5-0.5l-0.5,0.5L1248.1,40.1z M1343.5,135.5l-0.5,0.5l1.2,1.2v-1.8H1343.5z
				 M1343.5,10.7V10h-0.7v0.7H1343.5z M1344.9,10.7h0.7V10h-0.7V10.7z M1344.9,135.4h-0.7v1.8l1.2-1.2L1344.9,135.4z M1434.5,45.8
				l0.5-0.5l-0.5-0.5l-0.5,0.5L1434.5,45.8z M1435.5,46.9l0.5,0.5l0.5-0.5l-0.5-0.5L1435.5,46.9z M1346,136.4l-0.5-0.5l-1.2,1.2h1.8
				V136.4z M1432.3,136.4h0.7v-0.7h-0.7V136.4z M1432.3,137.8v0.7h0.7v-0.7H1432.3z M1345.8,137.8v-0.7h-1.8l1.2,1.2L1345.8,137.8z
				 M1439.1,231.1l0.5,0.5l0.5-0.5l-0.5-0.5L1439.1,231.1z M1438,232.1l-0.5,0.5l0.5,0.5l0.5-0.5L1438,232.1z M1344.9,139l0.5-0.5
				l-1.2-1.2v1.8H1344.9z M1344.9,260v0.7h0.7V260H1344.9z M1343.5,260h-0.7v0.7h0.7V260z M1343.5,138.9h0.7v-1.8l-1.2,1.2
				L1343.5,138.9z M1255.1,227.3l-0.5,0.5l0.5,0.5l0.5-0.5L1255.1,227.3z M1342,137.3l-88.5,88.5l1,1l88.5-88.5L1342,137.3z
				 M1254,138.6h88.5v-1.5H1254V138.6z M1253.3,136.4v1.5h1.5v-1.5H1253.3z M1342.3,135.7H1254v1.5h88.3V135.7z M1246.5,41.6
				l95.3,95.3l1-1l-95.3-95.3L1246.5,41.6z M1247.5,39.5l-1,1l1,1l1-1L1247.5,39.5z M1344,135l-95.4-95.4l-1,1l95.4,95.4L1344,135z
				 M1342.7,10.7v124.8h1.5V10.7H1342.7z M1344.9,10h-1.5v1.5h1.5V10z M1345.7,135.4V10.7h-1.5v124.7H1345.7z M1434,45.3l-89.6,89.6
				l1,1l89.6-89.6L1434,45.3z M1436.1,46.3l-1-1l-1,1l1,1L1436.1,46.3z M1346.5,136.9l89.5-89.5l-1-1l-89.5,89.5L1346.5,136.9z
				 M1432.3,135.7H1346v1.5h86.3V135.7z M1433,137.8v-1.5h-1.5v1.5H1433z M1345.8,138.6h86.5v-1.5h-86.5V138.6z M1439.6,230.6
				l-93.2-93.2l-1,1l93.2,93.2L1439.6,230.6z M1438.6,232.6l1-1l-1-1l-1,1L1438.6,232.6z M1344.4,139.5l93.1,93.1l1-1l-93.1-93.1
				L1344.4,139.5z M1345.7,260V139h-1.5v121H1345.7z M1343.5,260.7h1.5v-1.5h-1.5V260.7z M1342.7,138.9V260h1.5V138.9H1342.7z
				 M1255.6,227.9l88.4-88.4l-1-1l-88.4,88.4L1255.6,227.9z M1253.5,226.8l1,1l1-1l-1-1L1253.5,226.8z"/>
			<path class="st3" d="M1292.4,260.4l50.4-121.7l-89.5,37.1l-0.6-1.3l89.4-37l-87.9-36.4l0.6-1.3l87.9,36.4L1290.3,9.5l1.3-0.6
				l52.4,126.6l53.1-128.2l1.4,0.6L1345.5,136l94.8-39.3l0.6,1.3l-94.9,39.3l89.8,37.2l-0.6,1.4l-89.8-37.2l50.7,122.3l-1.4,0.6
				l-50.6-122.2l-50.4,121.6L1292.4,260.4z"/>
			<path class="st4" d="M1342.8,138.7l0.7,0.3l0.7-1.6l-1.6,0.7L1342.8,138.7z M1292.4,260.4l-0.7-0.3l-0.3,0.7l0.7,0.3
				L1292.4,260.4z M1253.3,175.7l-0.7,0.3l0.3,0.7l0.7-0.3L1253.3,175.7z M1252.7,174.4l-0.3-0.7l-0.7,0.3l0.3,0.7L1252.7,174.4z
				 M1342.1,137.4l0.3,0.7l1.6-0.7l-1.6-0.7L1342.1,137.4z M1254.2,100.9l-0.7-0.3l-0.3,0.7l0.7,0.3L1254.2,100.9z M1254.8,99.6
				l0.3-0.7l-0.7-0.3l-0.3,0.7L1254.8,99.6z M1342.7,136l-0.3,0.7l1.6,0.7l-0.7-1.6L1342.7,136z M1290.3,9.5l-0.3-0.7l-0.7,0.3
				l0.3,0.7L1290.3,9.5z M1291.7,9l0.7-0.3l-0.3-0.7l-0.7,0.3L1291.7,9z M1344.1,135.5l-0.7,0.3l0.7,1.6l0.7-1.6L1344.1,135.5z
				 M1397.2,7.3l0.3-0.7l-0.7-0.3l-0.3,0.7L1397.2,7.3z M1398.6,7.9l0.7,0.3l0.3-0.7l-0.7-0.3L1398.6,7.9z M1345.5,136l-0.7-0.3
				l-0.7,1.6l1.6-0.7L1345.5,136z M1440.3,96.7l0.7-0.3l-0.3-0.7L1440,96L1440.3,96.7z M1440.8,98.1l0.3,0.7l0.7-0.3l-0.3-0.7
				L1440.8,98.1z M1346,137.4l-0.3-0.7l-1.6,0.7l1.6,0.7L1346,137.4z M1435.7,174.5l0.7,0.3l0.3-0.7l-0.7-0.3L1435.7,174.5z
				 M1435.2,175.9l-0.3,0.7l0.7,0.3l0.3-0.7L1435.2,175.9z M1345.4,138.7l0.3-0.7l-1.6-0.7l0.7,1.6L1345.4,138.7z M1396.1,261
				l0.3,0.7l0.7-0.3l-0.3-0.7L1396.1,261z M1394.7,261.6l-0.7,0.3l0.3,0.7l0.7-0.3L1394.7,261.6z M1344.1,139.4l0.7-0.3l-0.7-1.6
				l-0.7,1.6L1344.1,139.4z M1293.7,260.9l-0.3,0.7l0.7,0.3l0.3-0.7L1293.7,260.9z M1342.1,138.4l-50.4,121.7l1.4,0.6l50.4-121.7
				L1342.1,138.4z M1253.6,176.4l89.5-37.1l-0.6-1.4l-89.5,37.1L1253.6,176.4z M1252,174.7l0.6,1.3l1.3-0.6l-0.6-1.3L1252,174.7z
				 M1341.9,136.7l-89.4,37l0.6,1.4l89.4-37L1341.9,136.7z M1253.9,101.6l87.9,36.4l0.6-1.4l-87.9-36.4L1253.9,101.6z M1254.1,99.3
				l-0.6,1.4l1.3,0.6l0.6-1.4L1254.1,99.3z M1343,135.3l-87.9-36.4l-0.6,1.3l87.9,36.4L1343,135.3z M1289.6,9.8l52.4,126.5l1.3-0.6
				L1291,9.2L1289.6,9.8z M1291.4,8.3l-1.3,0.6l0.6,1.4l1.4-0.6L1291.4,8.3z M1344.8,135.3L1292.3,8.7l-1.3,0.6l52.4,126.6
				L1344.8,135.3z M1396.5,7l-53.1,128.2l1.3,0.6l53.1-128.2L1396.5,7z M1398.8,7.2l-1.3-0.6l-0.6,1.4l1.3,0.6L1398.8,7.2z
				 M1346.2,136.2l53.1-128.1l-1.3-0.6l-53.1,128.1L1346.2,136.2z M1440,96l-94.8,39.3l0.6,1.3l94.8-39.3L1440,96z M1441.5,97.8
				l-0.6-1.4l-1.3,0.6l0.6,1.4L1441.5,97.8z M1346.2,138l94.9-39.3l-0.6-1.4l-94.9,39.3L1346.2,138z M1436,173.9l-89.8-37.2
				l-0.5,1.4l89.8,37.2L1436,173.9z M1435.8,176.2l0.6-1.4l-1.3-0.6l-0.6,1.4L1435.8,176.2z M1345.1,139.4l89.8,37.2l0.6-1.4
				l-89.8-37.2L1345.1,139.4z M1396.7,260.7l-50.7-122.3l-1.3,0.6l50.7,122.3L1396.7,260.7z M1395,262.2l1.3-0.6l-0.6-1.4l-1.3,0.6
				L1395,262.2z M1343.4,139.6l50.6,122.2l1.3-0.6l-50.6-122.2L1343.4,139.6z M1294.4,261.2l50.4-121.6l-1.3-0.6l-50.4,121.6
				L1294.4,261.2z M1292.1,261l1.3,0.6l0.6-1.4l-1.3-0.6L1292.1,261z"/>
			<path class="st5" d="M1192.5,135.3h316.1l2.3,2.9h-316.1L1192.5,135.3z"/>
		</g>
	</g>
</g>
<g id="Layer_2">
	<g>
		<defs>
			<rect id="SVGID_00000048469366083332681180000006505728128798168459_" x="723" y="11" width="173" height="246"/>
		</defs>
		<clipPath id="SVGID_00000055664590370233009290000002086883179464528543_">
			<use xlink:href="#SVGID_00000048469366083332681180000006505728128798168459_"  style="overflow:visible;"/>
		</clipPath>
		<g style="clip-path:url(#SVGID_00000055664590370233009290000002086883179464528543_);">
			<rect x="723" y="11" class="st2" width="173" height="246"/>
			<path class="st3" d="M718,226.3l88.5-88.5H718v-1.5h88.3L711,41.1l1-1l95.4,95.4V10.7h1.5v124.7l89.6-89.6l1,1L810,136.4h86.3
				v1.5h-86.5l93.2,93.2l-1,1L808.9,139v121h-1.5V138.9l-88.4,88.4L718,226.3z"/>
			<path class="st4" d="M806.5,137.8l0.5,0.5l1.2-1.2h-1.8V137.8z M718,226.3l-0.5-0.5l-0.5,0.5l0.5,0.5L718,226.3z M718,137.8h-0.7
				v0.7h0.7V137.8z M718,136.4v-0.7h-0.7v0.7H718z M806.3,136.4v0.7h1.8l-1.2-1.2L806.3,136.4z M711,41.1l-0.5-0.5l-0.5,0.5l0.5,0.5
				L711,41.1z M712,40.1l0.5-0.5L712,39l-0.5,0.5L712,40.1z M807.5,135.5l-0.5,0.5l1.2,1.2v-1.8H807.5z M807.5,10.7V10h-0.7v0.7
				H807.5z M808.9,10.7h0.7V10h-0.7V10.7z M808.9,135.4h-0.7v1.8l1.2-1.2L808.9,135.4z M898.5,45.8l0.5-0.5l-0.5-0.5l-0.5,0.5
				L898.5,45.8z M899.5,46.9l0.5,0.5l0.5-0.5l-0.5-0.5L899.5,46.9z M810,136.4l-0.5-0.5l-1.2,1.2h1.8V136.4z M896.3,136.4h0.7v-0.7
				h-0.7V136.4z M896.3,137.8v0.7h0.7v-0.7H896.3z M809.8,137.8v-0.7h-1.8l1.2,1.2L809.8,137.8z M903.1,231.1l0.5,0.5l0.5-0.5
				l-0.5-0.5L903.1,231.1z M902,232.1l-0.5,0.5l0.5,0.5l0.5-0.5L902,232.1z M808.9,139l0.5-0.5l-1.2-1.2v1.8H808.9z M808.9,260v0.7
				h0.7V260H808.9z M807.5,260h-0.7v0.7h0.7V260z M807.5,138.9h0.7v-1.8l-1.2,1.2L807.5,138.9z M719.1,227.3l-0.5,0.5l0.5,0.5
				l0.5-0.5L719.1,227.3z M806,137.3l-88.5,88.5l1,1l88.5-88.5L806,137.3z M718,138.6h88.5v-1.5H718V138.6z M717.3,136.4v1.5h1.5
				v-1.5H717.3z M806.3,135.7H718v1.5h88.3V135.7z M710.5,41.6l95.3,95.3l1-1l-95.3-95.3L710.5,41.6z M711.5,39.5l-1,1l1,1l1-1
				L711.5,39.5z M808,135l-95.4-95.4l-1,1l95.4,95.4L808,135z M806.7,10.7v124.8h1.5V10.7H806.7z M808.9,10h-1.5v1.5h1.5V10z
				 M809.7,135.4V10.7h-1.5v124.7H809.7z M898,45.3l-89.6,89.6l1,1L899,46.3L898,45.3z M900.1,46.3l-1-1l-1,1l1,1L900.1,46.3z
				 M810.5,136.9l89.5-89.5l-1-1l-89.5,89.5L810.5,136.9z M896.3,135.7H810v1.5h86.3V135.7z M897,137.8v-1.5h-1.5v1.5H897z
				 M809.8,138.6h86.5v-1.5h-86.5V138.6z M903.6,230.6l-93.2-93.2l-1,1l93.2,93.2L903.6,230.6z M902.6,232.6l1-1l-1-1l-1,1
				L902.6,232.6z M808.4,139.5l93.1,93.1l1-1l-93.1-93.1L808.4,139.5z M809.7,260V139h-1.5v121H809.7z M807.5,260.7h1.5v-1.5h-1.5
				V260.7z M806.7,138.9V260h1.5V138.9H806.7z M719.6,227.9l88.4-88.4l-1-1l-88.4,88.4L719.6,227.9z M717.5,226.8l1,1l1-1l-1-1
				L717.5,226.8z"/>
			<path class="st3" d="M756.4,260.4l50.4-121.7l-89.5,37.1l-0.6-1.3l89.4-37l-87.9-36.4l0.6-1.3l87.9,36.4L754.3,9.5l1.3-0.6
				l52.4,126.6L861.2,7.3l1.3,0.6L809.5,136l94.8-39.3l0.6,1.4L810,137.4l89.8,37.2l-0.6,1.4l-89.8-37.2L860.1,261l-1.4,0.6
				l-50.6-122.2l-50.4,121.6L756.4,260.4z"/>
			<path class="st4" d="M806.8,138.7l0.7,0.3l0.7-1.6l-1.6,0.7L806.8,138.7z M756.4,260.4l-0.7-0.3l-0.3,0.7l0.7,0.3L756.4,260.4z
				 M717.3,175.7l-0.7,0.3l0.3,0.7l0.7-0.3L717.3,175.7z M716.7,174.4l-0.3-0.7l-0.7,0.3l0.3,0.7L716.7,174.4z M806.1,137.4l0.3,0.7
				l1.6-0.7l-1.6-0.7L806.1,137.4z M718.2,100.9l-0.7-0.3l-0.3,0.7l0.7,0.3L718.2,100.9z M718.8,99.6l0.3-0.7l-0.7-0.3l-0.3,0.7
				L718.8,99.6z M806.7,136l-0.3,0.7l1.6,0.7l-0.7-1.6L806.7,136z M754.3,9.5L754,8.8l-0.7,0.3l0.3,0.7L754.3,9.5z M755.7,9l0.7-0.3
				L756.1,8l-0.7,0.3L755.7,9z M808.1,135.5l-0.7,0.3l0.7,1.6l0.7-1.6L808.1,135.5z M861.2,7.3l0.3-0.7l-0.7-0.3L860.5,7L861.2,7.3z
				 M862.6,7.9l0.7,0.3l0.3-0.7l-0.7-0.3L862.6,7.9z M809.5,136l-0.7-0.3l-0.7,1.6l1.6-0.7L809.5,136z M904.3,96.7l0.7-0.3l-0.3-0.7
				L904,96L904.3,96.7z M904.8,98.1l0.3,0.7l0.7-0.3l-0.3-0.7L904.8,98.1z M810,137.4l-0.3-0.7l-1.6,0.7l1.6,0.7L810,137.4z
				 M899.7,174.5l0.7,0.3l0.3-0.7l-0.7-0.3L899.7,174.5z M899.2,175.9l-0.3,0.7l0.7,0.3l0.3-0.7L899.2,175.9z M809.4,138.7l0.3-0.7
				l-1.6-0.7l0.7,1.6L809.4,138.7z M860.1,261l0.3,0.7l0.7-0.3l-0.3-0.7L860.1,261z M858.7,261.6l-0.7,0.3l0.3,0.7l0.7-0.3
				L858.7,261.6z M808.1,139.4l0.7-0.3l-0.7-1.6l-0.7,1.6L808.1,139.4z M757.7,260.9l-0.3,0.7l0.7,0.3l0.3-0.7L757.7,260.9z
				 M806.1,138.4l-50.4,121.7l1.3,0.6l50.4-121.7L806.1,138.4z M717.5,176.4l89.5-37.1l-0.6-1.4L717,175.1L717.5,176.4z M716,174.7
				l0.6,1.3l1.4-0.6l-0.6-1.4L716,174.7z M805.9,136.7l-89.4,37l0.6,1.4l89.4-37L805.9,136.7z M718,101.6l87.9,36.4l0.6-1.4
				l-87.9-36.4L718,101.6z M718.1,99.3l-0.6,1.4l1.4,0.6l0.6-1.4L718.1,99.3z M807,135.3l-87.9-36.4l-0.6,1.3l87.9,36.4L807,135.3z
				 M753.6,9.8L806,136.3l1.3-0.6L755,9.2L753.6,9.8z M755.4,8.3L754,8.8l0.6,1.4l1.3-0.6L755.4,8.3z M808.8,135.3L756.3,8.7
				L755,9.2l52.4,126.6L808.8,135.3z M860.5,7l-53.1,128.2l1.3,0.6L861.9,7.6L860.5,7z M862.8,7.2l-1.4-0.6L860.9,8l1.4,0.6
				L862.8,7.2z M810.2,136.2L863.2,8.1l-1.3-0.6l-53.1,128.1L810.2,136.2z M904,96l-94.8,39.3l0.6,1.4l94.8-39.3L904,96z
				 M905.5,97.8l-0.6-1.4l-1.3,0.6l0.6,1.4L905.5,97.8z M810.2,138l94.9-39.3l-0.6-1.4l-94.9,39.3L810.2,138z M900,173.9l-89.8-37.2
				l-0.6,1.4l89.8,37.2L900,173.9z M899.8,176.2l0.6-1.4l-1.4-0.6l-0.6,1.4L899.8,176.2z M809.1,139.4l89.8,37.2l0.6-1.4L809.7,138
				L809.1,139.4z M860.7,260.7l-50.7-122.3l-1.3,0.6l50.7,122.3L860.7,260.7z M859,262.2l1.3-0.6l-0.6-1.4l-1.3,0.6L859,262.2z
				 M807.4,139.6L858,261.8l1.3-0.6l-50.6-122.2L807.4,139.6z M758.4,261.2l50.4-121.6l-1.3-0.6l-50.4,121.6L758.4,261.2z
				 M756.1,261l1.3,0.6l0.6-1.4l-1.4-0.6L756.1,261z"/>
			<path class="st5" d="M666.6,194L958.7,73.2l3.4,1.9L670,195.9L666.6,194z"/>
		</g>
	</g>
</g>
</svg>
