<svg width="834" height="535" viewBox="0 0 834 535" fill="none" xmlns="http://www.w3.org/2000/svg">
<rect width="834" height="535" fill="#181A20"/>
<path fill-rule="evenodd" clip-rule="evenodd" d="M254.184 165L137.576 165V179.576L254.184 179.576V165Z" stroke="#ABC2BA"/>
<path fill-rule="evenodd" clip-rule="evenodd" d="M254.185 267.032L254.185 165L239.609 165L239.609 267.032L254.185 267.032Z" stroke="#ABC2BA"/>
<path fill-rule="evenodd" clip-rule="evenodd" d="M152.154 369.063L152.154 165L137.578 165L137.578 369.063L152.154 369.063Z" stroke="#ABC2BA"/>
<path fill-rule="evenodd" clip-rule="evenodd" d="M254.183 252.456H123V267.032H254.183V252.456Z" stroke="#E0F416"/>
<path fill-rule="evenodd" clip-rule="evenodd" d="M387 165L269 165V180L387 180V165Z" stroke="#ABC2BA"/>
<path fill-rule="evenodd" clip-rule="evenodd" d="M372.697 369.052L372.697 165L387.273 165L387.273 369.052L372.697 369.052Z" stroke="#ABC2BA"/>
<path fill-rule="evenodd" clip-rule="evenodd" d="M283.715 369.063L283.715 165L269.139 165L269.139 369.063L283.715 369.063Z" stroke="#ABC2BA"/>
<path fill-rule="evenodd" clip-rule="evenodd" d="M393.183 252H262V266.576H393.183V252Z" stroke="#E0F416"/>
<path fill-rule="evenodd" clip-rule="evenodd" d="M650.24 369.052L650.24 165L664.816 165L664.816 369.052L650.24 369.052Z" stroke="#ABC2BA"/>
<path fill-rule="evenodd" clip-rule="evenodd" d="M561.258 369.063L561.258 165L546.682 165L546.682 369.063L561.258 369.063Z" stroke="#ABC2BA"/>
<path fill-rule="evenodd" clip-rule="evenodd" d="M671.183 252H540V266.576H671.183V252Z" stroke="#E0F416"/>
<path fill-rule="evenodd" clip-rule="evenodd" d="M473.881 165L473.881 369.063L459.305 369.063L459.305 165L473.881 165Z" stroke="#ABC2BA"/>
<path fill-rule="evenodd" clip-rule="evenodd" d="M532.183 194.152H401V179.576H532.183V194.152Z" stroke="#E0F416"/>
</svg>
