<svg width="1440" height="269" viewBox="0 0 1440 269" fill="none" xmlns="http://www.w3.org/2000/svg">
<rect width="1440" height="269" fill="#ABC2BA"/>
<g clip-path="url(#clip0_168_3)">
<rect width="174" height="246" transform="translate(7 11)" fill="#181A20"/>
<path fill-rule="evenodd" clip-rule="evenodd" d="M4.95655 223.379L93.4144 134.921H4.8257V133.46H93.2261L-2.0625 38.1714L-1.02918 37.138L94.2609 132.428L94.2609 10.9995H95.7222V132.614L185.433 42.9028L186.466 43.9362L96.9424 133.46H181.939V134.921H96.7541L189.994 228.161L188.96 229.194L95.7222 135.956V257.088H94.2608L94.2609 136.141L5.98987 224.412L4.95655 223.379Z" fill="#A6C3BA"/>
<path d="M93.4144 134.921L93.9311 135.438L95.1784 134.191H93.4144V134.921ZM4.95655 223.379L4.4399 222.862L3.92324 223.379L4.4399 223.896L4.95655 223.379ZM4.8257 134.921H4.09503V135.652H4.8257V134.921ZM4.8257 133.46V132.729H4.09503V133.46H4.8257ZM93.2261 133.46V134.191H94.9901L93.7428 132.943L93.2261 133.46ZM-2.0625 38.1714L-2.57916 37.6547L-3.09582 38.1714L-2.57916 38.688L-2.0625 38.1714ZM-1.02918 37.138L-0.512524 36.6214L-1.02918 36.1047L-1.54584 36.6214L-1.02918 37.138ZM94.2609 132.428L93.7442 132.945L94.9915 134.192V132.428H94.2609ZM94.2609 10.9995V10.2688H93.5302V10.9995L94.2609 10.9995ZM95.7222 10.9995H96.4529V10.2688H95.7222V10.9995ZM95.7222 132.614H94.9915V134.378L96.2388 133.13L95.7222 132.614ZM185.433 42.9028L185.95 42.3862L185.433 41.8695L184.916 42.3862L185.433 42.9028ZM186.466 43.9362L186.983 44.4528L187.5 43.9362L186.983 43.4195L186.466 43.9362ZM96.9424 133.46L96.4257 132.943L95.1784 134.191H96.9424V133.46ZM181.939 133.46H182.67V132.729H181.939V133.46ZM181.939 134.921V135.652H182.67V134.921H181.939ZM96.7541 134.921V134.191H94.9901L96.2374 135.438L96.7541 134.921ZM189.994 228.161L190.51 228.678L191.027 228.161L190.51 227.644L189.994 228.161ZM188.96 229.194L188.444 229.711L188.96 230.228L189.477 229.711L188.96 229.194ZM95.7222 135.956L96.2388 135.439L94.9915 134.192V135.956H95.7222ZM95.7222 257.088V257.818H96.4528V257.088H95.7222ZM94.2608 257.088H93.5302V257.818H94.2608V257.088ZM94.2609 136.141H94.9915V134.378L93.7442 135.625L94.2609 136.141ZM5.98987 224.412L5.47322 224.929L5.98987 225.446L6.50653 224.929L5.98987 224.412ZM92.8978 134.405L4.4399 222.862L5.47321 223.896L93.9311 135.438L92.8978 134.405ZM4.8257 135.652H93.4144V134.191H4.8257V135.652ZM4.09503 133.46V134.921H5.55636V133.46H4.09503ZM93.2261 132.729H4.8257V134.191H93.2261V132.729ZM-2.57916 38.688L92.7094 133.977L93.7428 132.943L-1.54584 37.6547L-2.57916 38.688ZM-1.54584 36.6214L-2.57916 37.6547L-1.54584 38.688L-0.512524 37.6547L-1.54584 36.6214ZM94.7775 131.911L-0.512524 36.6214L-1.54584 37.6547L93.7442 132.945L94.7775 131.911ZM93.5302 10.9995L93.5302 132.428H94.9915L94.9915 10.9995L93.5302 10.9995ZM95.7222 10.2688H94.2609V11.7302H95.7222V10.2688ZM96.4529 132.614V10.9995H94.9915V132.614H96.4529ZM184.916 42.3862L95.2055 132.097L96.2388 133.13L185.95 43.4195L184.916 42.3862ZM186.983 43.4195L185.95 42.3862L184.916 43.4195L185.95 44.4528L186.983 43.4195ZM97.459 133.977L186.983 44.4528L185.95 43.4195L96.4257 132.943L97.459 133.977ZM181.939 132.729H96.9424V134.191H181.939V132.729ZM182.67 134.921V133.46H181.208V134.921H182.67ZM96.7541 135.652H181.939V134.191H96.7541V135.652ZM190.51 227.644L97.2707 134.405L96.2374 135.438L189.477 228.678L190.51 227.644ZM189.477 229.711L190.51 228.678L189.477 227.644L188.444 228.678L189.477 229.711ZM95.2055 136.473L188.444 229.711L189.477 228.678L96.2388 135.439L95.2055 136.473ZM96.4528 257.088V135.956H94.9915V257.088H96.4528ZM94.2608 257.818H95.7222V256.357H94.2608V257.818ZM93.5302 136.141L93.5302 257.088H94.9915L94.9915 136.141H93.5302ZM6.50653 224.929L94.7775 136.658L93.7442 135.625L5.47321 223.896L6.50653 224.929ZM4.4399 223.896L5.47322 224.929L6.50653 223.896L5.47321 222.862L4.4399 223.896Z" fill="#A6C3BA"/>
<path fill-rule="evenodd" clip-rule="evenodd" d="M43.3149 257.448L93.728 135.741L4.20815 172.821L3.64892 171.471L93.0753 134.429L5.17015 98.0176L5.72938 96.6676L93.6325 133.078L41.2402 6.59201L42.5903 6.03278L95.0225 132.615L148.137 4.38504L149.487 4.94427L96.4281 133.04L191.214 93.7788L191.773 95.1289L96.8939 134.429L186.665 171.613L186.105 172.963L96.3327 135.778L146.99 258.077L145.64 258.636L95.0225 136.434L44.665 258.008L43.3149 257.448Z" fill="#A6C3BA"/>
<path d="M93.728 135.741L94.403 136.02L95.078 134.39L93.4483 135.066L93.728 135.741ZM43.3149 257.448L42.6399 257.169L42.3603 257.844L43.0353 258.123L43.3149 257.448ZM4.20815 172.821L3.5331 173.1L3.81271 173.776L4.48776 173.496L4.20815 172.821ZM3.64892 171.471L3.36931 170.796L2.69426 171.075L2.97387 171.75L3.64892 171.471ZM93.0753 134.429L93.3549 135.104L94.9846 134.429L93.3549 133.754L93.0753 134.429ZM5.17015 98.0176L4.4951 97.738L4.21549 98.4131L4.89054 98.6927L5.17015 98.0176ZM5.72938 96.6676L6.00899 95.9925L5.33395 95.7129L5.05433 96.3879L5.72938 96.6676ZM93.6325 133.078L93.3529 133.753L94.9826 134.428L94.3076 132.799L93.6325 133.078ZM41.2402 6.59201L40.9606 5.91696L40.2856 6.19658L40.5652 6.87163L41.2402 6.59201ZM42.5903 6.03278L43.2654 5.75317L42.9858 5.07812L42.3107 5.35774L42.5903 6.03278ZM95.0225 132.615L94.3474 132.895L95.0225 134.525L95.6975 132.895L95.0225 132.615ZM148.137 4.38504L148.417 3.71L147.742 3.43038L147.462 4.10542L148.137 4.38504ZM149.487 4.94427L150.162 5.22388L150.442 4.54883L149.767 4.26922L149.487 4.94427ZM96.4281 133.04L95.7531 132.761L95.078 134.39L96.7077 133.715L96.4281 133.04ZM191.214 93.7788L191.889 93.4992L191.609 92.8241L190.934 93.1037L191.214 93.7788ZM191.773 95.1289L192.053 95.8039L192.728 95.5243L192.448 94.8493L191.773 95.1289ZM96.8939 134.429L96.6143 133.754L94.9846 134.429L96.6143 135.104L96.8939 134.429ZM186.665 171.613L187.34 171.893L187.619 171.218L186.944 170.938L186.665 171.613ZM186.105 172.963L185.826 173.638L186.501 173.918L186.78 173.243L186.105 172.963ZM96.3327 135.778L96.6123 135.103L94.9826 134.428L95.6577 136.058L96.3327 135.778ZM146.99 258.077L147.27 258.752L147.945 258.472L147.665 257.797L146.99 258.077ZM145.64 258.636L144.965 258.916L145.245 259.591L145.92 259.311L145.64 258.636ZM95.0225 136.434L95.6975 136.154L95.0225 134.525L94.3474 136.154L95.0225 136.434ZM44.665 258.008L44.3854 258.683L45.0605 258.962L45.3401 258.287L44.665 258.008ZM93.0529 135.461L42.6399 257.169L43.99 257.728L94.403 136.02L93.0529 135.461ZM4.48776 173.496L94.0076 136.416L93.4483 135.066L3.92853 172.146L4.48776 173.496ZM2.97387 171.75L3.5331 173.1L4.8832 172.541L4.32397 171.191L2.97387 171.75ZM92.7957 133.754L3.36931 170.796L3.92853 172.146L93.3549 135.104L92.7957 133.754ZM4.89054 98.6927L92.7957 135.104L93.3549 133.754L5.44976 97.3426L4.89054 98.6927ZM5.05433 96.3879L4.4951 97.738L5.8452 98.2973L6.40442 96.9472L5.05433 96.3879ZM93.9121 132.403L6.00899 95.9925L5.44976 97.3426L93.3529 133.753L93.9121 132.403ZM40.5652 6.87163L92.9575 133.358L94.3076 132.799L41.9153 6.3124L40.5652 6.87163ZM42.3107 5.35774L40.9606 5.91696L41.5198 7.26706L42.8699 6.70783L42.3107 5.35774ZM95.6975 132.336L43.2654 5.75317L41.9153 6.3124L94.3474 132.895L95.6975 132.336ZM147.462 4.10542L94.3474 132.336L95.6975 132.895L148.812 4.66466L147.462 4.10542ZM149.767 4.26922L148.417 3.71L147.858 5.06009L149.208 5.61931L149.767 4.26922ZM97.1032 133.32L150.162 5.22388L148.812 4.66466L95.7531 132.761L97.1032 133.32ZM190.934 93.1037L96.1485 132.365L96.7077 133.715L191.494 94.4538L190.934 93.1037ZM192.448 94.8493L191.889 93.4992L190.539 94.0584L191.098 95.4085L192.448 94.8493ZM97.1736 135.104L192.053 95.8039L191.494 94.4538L96.6143 133.754L97.1736 135.104ZM186.944 170.938L97.1736 133.754L96.6143 135.104L186.385 172.288L186.944 170.938ZM186.78 173.243L187.34 171.893L185.989 171.334L185.43 172.684L186.78 173.243ZM96.0531 136.453L185.826 173.638L186.385 172.288L96.6123 135.103L96.0531 136.453ZM147.665 257.797L97.0078 135.499L95.6577 136.058L146.315 258.357L147.665 257.797ZM145.92 259.311L147.27 258.752L146.711 257.402L145.361 257.961L145.92 259.311ZM94.3474 136.714L144.965 258.916L146.315 258.357L95.6975 136.154L94.3474 136.714ZM45.3401 258.287L95.6975 136.713L94.3474 136.154L43.99 257.728L45.3401 258.287ZM43.0353 258.123L44.3854 258.683L44.9446 257.332L43.5945 256.773L43.0353 258.123Z" fill="#A6C3BA"/>
<path fill-rule="evenodd" clip-rule="evenodd" d="M93.8062 -4.78146L93.8062 288.752L96.6738 291.048L96.6738 -2.48521L93.8062 -4.78146Z" fill="#E0F416"/>
</g>
<g clip-path="url(#clip1_168_3)">
<rect width="174" height="246" transform="translate(186 11)" fill="#181A20"/>
<path fill-rule="evenodd" clip-rule="evenodd" d="M181.037 226.303L269.496 137.844H181.033V136.383H269.31L174.02 41.0925L175.053 40.0592L270.466 135.472L270.466 10.7073H271.927L271.927 135.413L361.513 45.8269L362.546 46.8602L273.024 136.383H359.315V137.844H272.838L366.076 231.082L365.042 232.115L271.927 139V260.01H270.466L270.466 138.941L182.07 227.337L181.037 226.303Z" fill="#A6C3BA"/>
<path d="M269.496 137.844L270.013 138.361L271.26 137.113H269.496V137.844ZM181.037 226.303L180.52 225.787L180.003 226.303L180.52 226.82L181.037 226.303ZM181.033 137.844H180.302V138.575H181.033V137.844ZM181.033 136.383V135.652H180.302V136.383H181.033ZM269.31 136.383V137.113H271.074L269.826 135.866L269.31 136.383ZM174.02 41.0925L173.503 40.5758L172.986 41.0925L173.503 41.6092L174.02 41.0925ZM175.053 40.0592L175.57 39.5425L175.053 39.0259L174.536 39.5425L175.053 40.0592ZM270.466 135.472L269.949 135.989L271.197 137.236V135.472H270.466ZM270.466 10.7073V9.97661H269.735V10.7073L270.466 10.7073ZM271.927 10.7073L272.658 10.7073V9.97661H271.927V10.7073ZM271.927 135.413H271.197V137.177L272.444 135.929L271.927 135.413ZM361.513 45.8269L362.03 45.3102L361.513 44.7936L360.996 45.3102L361.513 45.8269ZM362.546 46.8602L363.063 47.3769L363.58 46.8602L363.063 46.3436L362.546 46.8602ZM273.024 136.383L272.507 135.866L271.26 137.113H273.024V136.383ZM359.315 136.383H360.046V135.652H359.315V136.383ZM359.315 137.844V138.575H360.046V137.844H359.315ZM272.838 137.844V137.113H271.074L272.321 138.361L272.838 137.844ZM366.076 231.082L366.592 231.599L367.109 231.082L366.592 230.565L366.076 231.082ZM365.042 232.115L364.526 232.632L365.042 233.149L365.559 232.632L365.042 232.115ZM271.927 139L272.444 138.484L271.197 137.236V139H271.927ZM271.927 260.01V260.741H272.658V260.01H271.927ZM270.466 260.01H269.735V260.741H270.466V260.01ZM270.466 138.941H271.197V137.177L269.949 138.424L270.466 138.941ZM182.07 227.337L181.553 227.853L182.07 228.37L182.587 227.853L182.07 227.337ZM268.979 137.327L180.52 225.787L181.553 226.82L270.013 138.361L268.979 137.327ZM181.033 138.575H269.496V137.113H181.033V138.575ZM180.302 136.383V137.844H181.763V136.383H180.302ZM269.31 135.652H181.033V137.113H269.31V135.652ZM173.503 41.6092L268.793 136.899L269.826 135.866L174.536 40.5758L173.503 41.6092ZM174.536 39.5425L173.503 40.5758L174.536 41.6092L175.57 40.5758L174.536 39.5425ZM270.983 134.956L175.57 39.5425L174.536 40.5758L269.949 135.989L270.983 134.956ZM269.735 10.7073L269.735 135.472H271.197L271.197 10.7073L269.735 10.7073ZM271.927 9.97661H270.466V11.4379H271.927V9.97661ZM272.658 135.413L272.658 10.7073L271.197 10.7073L271.197 135.413H272.658ZM360.996 45.3102L271.411 134.896L272.444 135.929L362.03 46.3436L360.996 45.3102ZM363.063 46.3436L362.03 45.3102L360.996 46.3436L362.03 47.3769L363.063 46.3436ZM273.541 136.899L363.063 47.3769L362.03 46.3436L272.507 135.866L273.541 136.899ZM359.315 135.652H273.024V137.113H359.315V135.652ZM360.046 137.844V136.383H358.584V137.844H360.046ZM272.838 138.575H359.315V137.113H272.838V138.575ZM366.592 230.565L273.354 137.327L272.321 138.361L365.559 231.599L366.592 230.565ZM365.559 232.632L366.592 231.599L365.559 230.565L364.526 231.599L365.559 232.632ZM271.411 139.517L364.526 232.632L365.559 231.599L272.444 138.484L271.411 139.517ZM272.658 260.01V139H271.197V260.01H272.658ZM270.466 260.741H271.927V259.28H270.466V260.741ZM269.735 138.941L269.735 260.01H271.197L271.197 138.941H269.735ZM182.587 227.853L270.983 139.457L269.949 138.424L181.553 226.82L182.587 227.853ZM180.52 226.82L181.553 227.853L182.587 226.82L181.553 225.787L180.52 226.82Z" fill="#A6C3BA"/>
<path fill-rule="evenodd" clip-rule="evenodd" d="M219.384 260.373L269.799 138.66L180.272 175.744L179.712 174.394L269.14 137.352L181.238 100.942L181.797 99.5916L269.7 136.002L217.308 9.51607L218.658 8.95684L271.091 135.542L324.207 7.30935L325.557 7.86857L272.499 135.96L367.277 96.7019L367.837 98.052L272.958 137.352L362.732 174.537L362.173 175.887L272.4 138.702L323.058 261.001L321.708 261.56L271.091 139.36L220.734 260.932L219.384 260.373Z" fill="#A6C3BA"/>
<path d="M269.799 138.66L270.474 138.94L271.149 137.31L269.52 137.985L269.799 138.66ZM219.384 260.373L218.709 260.093L218.43 260.768L219.105 261.048L219.384 260.373ZM180.272 175.744L179.597 176.024L179.876 176.699L180.551 176.419L180.272 175.744ZM179.712 174.394L179.433 173.719L178.758 173.998L179.037 174.673L179.712 174.394ZM269.14 137.352L269.419 138.027L271.049 137.352L269.419 136.677L269.14 137.352ZM181.238 100.942L180.563 100.662L180.283 101.337L180.958 101.617L181.238 100.942ZM181.797 99.5916L182.076 98.9166L181.401 98.6369L181.122 99.312L181.797 99.5916ZM269.7 136.002L269.42 136.677L271.05 137.352L270.375 135.723L269.7 136.002ZM217.308 9.51607L217.028 8.84102L216.353 9.12063L216.633 9.79568L217.308 9.51607ZM218.658 8.95684L219.333 8.67722L219.053 8.00218L218.378 8.28179L218.658 8.95684ZM271.091 135.542L270.416 135.821L271.091 137.451L271.766 135.821L271.091 135.542ZM324.207 7.30935L324.486 6.6343L323.811 6.35469L323.532 7.02973L324.207 7.30935ZM325.557 7.86857L326.232 8.14819L326.511 7.47313L325.836 7.19353L325.557 7.86857ZM272.499 135.96L271.824 135.681L271.149 137.31L272.779 136.635L272.499 135.96ZM367.277 96.7019L367.953 96.4223L367.673 95.7472L366.998 96.0268L367.277 96.7019ZM367.837 98.052L368.116 98.727L368.791 98.4474L368.512 97.7723L367.837 98.052ZM272.958 137.352L272.679 136.677L271.049 137.352L272.679 138.027L272.958 137.352ZM362.732 174.537L363.407 174.817L363.687 174.142L363.012 173.862L362.732 174.537ZM362.173 175.887L361.893 176.563L362.568 176.842L362.848 176.167L362.173 175.887ZM272.4 138.702L272.68 138.027L271.05 137.352L271.725 138.982L272.4 138.702ZM323.058 261.001L323.337 261.676L324.013 261.396L323.733 260.721L323.058 261.001ZM321.708 261.56L321.033 261.84L321.312 262.515L321.987 262.235L321.708 261.56ZM271.091 139.36L271.766 139.081L271.091 137.451L270.416 139.081L271.091 139.36ZM220.734 260.932L220.455 261.607L221.13 261.886L221.409 261.211L220.734 260.932ZM269.124 138.381L218.709 260.093L220.059 260.652L270.474 138.94L269.124 138.381ZM180.551 176.419L270.079 139.335L269.52 137.985L179.992 175.069L180.551 176.419ZM179.037 174.673L179.597 176.024L180.947 175.464L180.388 174.114L179.037 174.673ZM268.86 136.677L179.433 173.719L179.992 175.069L269.419 138.027L268.86 136.677ZM180.958 101.617L268.86 138.027L269.419 136.677L181.517 100.267L180.958 101.617ZM181.122 99.312L180.563 100.662L181.913 101.221L182.472 99.8712L181.122 99.312ZM269.98 135.327L182.076 98.9166L181.517 100.267L269.42 136.677L269.98 135.327ZM216.633 9.79568L269.025 136.282L270.375 135.723L217.983 9.23645L216.633 9.79568ZM218.378 8.28179L217.028 8.84102L217.587 10.1911L218.937 9.63189L218.378 8.28179ZM271.766 135.262L219.333 8.67722L217.983 9.23645L270.416 135.821L271.766 135.262ZM323.532 7.02973L270.416 135.262L271.766 135.821L324.882 7.58896L323.532 7.02973ZM325.836 7.19353L324.486 6.6343L323.927 7.98439L325.277 8.54362L325.836 7.19353ZM273.174 136.24L326.232 8.14819L324.882 7.58896L271.824 135.681L273.174 136.24ZM366.998 96.0268L272.22 135.285L272.779 136.635L367.557 97.3769L366.998 96.0268ZM368.512 97.7723L367.953 96.4223L366.602 96.9815L367.162 98.3316L368.512 97.7723ZM273.238 138.027L368.116 98.727L367.557 97.3769L272.679 136.677L273.238 138.027ZM363.012 173.862L273.238 136.677L272.679 138.027L362.452 175.212L363.012 173.862ZM362.848 176.167L363.407 174.817L362.057 174.258L361.498 175.608L362.848 176.167ZM272.121 139.378L361.893 176.563L362.452 175.212L272.68 138.027L272.121 139.378ZM323.733 260.721L273.075 138.423L271.725 138.982L322.383 261.281L323.733 260.721ZM321.987 262.235L323.337 261.676L322.778 260.326L321.428 260.885L321.987 262.235ZM270.416 139.64L321.033 261.84L322.383 261.281L271.766 139.081L270.416 139.64ZM221.409 261.211L271.766 139.64L270.416 139.081L220.059 260.652L221.409 261.211ZM219.105 261.048L220.455 261.607L221.014 260.257L219.664 259.698L219.105 261.048Z" fill="#A6C3BA"/>
<path fill-rule="evenodd" clip-rule="evenodd" d="M323.98 5.44712L203.538 297.682L205.314 300.897L325.756 8.66282L323.98 5.44712Z" fill="#E0F416"/>
</g>
<g clip-path="url(#clip2_168_3)">
<rect width="174" height="246" transform="translate(901 11)" fill="#181A20"/>
<path fill-rule="evenodd" clip-rule="evenodd" d="M896.039 226.304L984.498 137.845H896.033V136.383H984.312L889.021 41.093L890.055 40.0597L985.468 135.473L985.468 10.708H986.929L986.929 135.413L1076.51 45.8276L1077.55 46.861L988.026 136.383H1074.32V137.845H987.84L1081.08 231.083L1080.04 232.116L986.929 139.001V260.011H985.468L985.468 138.941L897.072 227.337L896.039 226.304Z" fill="#A6C3BA"/>
<path d="M984.498 137.845L985.015 138.361L986.262 137.114H984.498V137.845ZM896.039 226.304L895.522 225.787L895.005 226.304L895.522 226.821L896.039 226.304ZM896.033 137.845H895.302V138.575H896.033V137.845ZM896.033 136.383V135.653H895.302V136.383H896.033ZM984.312 136.383V137.114H986.076L984.828 135.867L984.312 136.383ZM889.021 41.093L888.505 40.5763L887.988 41.093L888.505 41.6097L889.021 41.093ZM890.055 40.0597L890.571 39.543L890.055 39.0264L889.538 39.543L890.055 40.0597ZM985.468 135.473L984.951 135.989L986.199 137.237V135.473H985.468ZM985.468 10.708V9.97734H984.737V10.708L985.468 10.708ZM986.929 10.708L987.66 10.708V9.97734H986.929V10.708ZM986.929 135.413H986.199V137.177L987.446 135.93L986.929 135.413ZM1076.51 45.8276L1077.03 45.311L1076.51 44.7943L1076 45.311L1076.51 45.8276ZM1077.55 46.861L1078.06 47.3776L1078.58 46.861L1078.06 46.3443L1077.55 46.861ZM988.026 136.383L987.509 135.867L986.262 137.114H988.026V136.383ZM1074.32 136.383H1075.05V135.653H1074.32V136.383ZM1074.32 137.845V138.575H1075.05V137.845H1074.32ZM987.84 137.845V137.114H986.076L987.323 138.361L987.84 137.845ZM1081.08 231.083L1081.59 231.599L1082.11 231.083L1081.59 230.566L1081.08 231.083ZM1080.04 232.116L1079.53 232.632L1080.04 233.149L1080.56 232.632L1080.04 232.116ZM986.929 139.001L987.446 138.484L986.199 137.237V139.001H986.929ZM986.929 260.011V260.742H987.66V260.011H986.929ZM985.468 260.011H984.737V260.742H985.468V260.011ZM985.468 138.941H986.199V137.177L984.951 138.425L985.468 138.941ZM897.072 227.337L896.555 227.854L897.072 228.371L897.589 227.854L897.072 227.337ZM983.981 137.328L895.522 225.787L896.555 226.821L985.015 138.361L983.981 137.328ZM896.033 138.575H984.498V137.114H896.033V138.575ZM895.302 136.383V137.845H896.763V136.383H895.302ZM984.312 135.653H896.033V137.114H984.312V135.653ZM888.505 41.6097L983.795 136.9L984.828 135.867L889.538 40.5763L888.505 41.6097ZM889.538 39.543L888.505 40.5763L889.538 41.6097L890.571 40.5763L889.538 39.543ZM985.985 134.956L890.571 39.543L889.538 40.5763L984.951 135.989L985.985 134.956ZM984.737 10.708L984.737 135.473H986.199L986.199 10.708L984.737 10.708ZM986.929 9.97734H985.468V11.4387H986.929V9.97734ZM987.66 135.413L987.66 10.708L986.199 10.708L986.199 135.413H987.66ZM1076 45.311L986.413 134.897L987.446 135.93L1077.03 46.3443L1076 45.311ZM1078.06 46.3443L1077.03 45.311L1076 46.3443L1077.03 47.3776L1078.06 46.3443ZM988.543 136.9L1078.06 47.3776L1077.03 46.3443L987.509 135.867L988.543 136.9ZM1074.32 135.653H988.026V137.114H1074.32V135.653ZM1075.05 137.845V136.383H1073.58V137.845H1075.05ZM987.84 138.575H1074.32V137.114H987.84V138.575ZM1081.59 230.566L988.356 137.328L987.323 138.361L1080.56 231.599L1081.59 230.566ZM1080.56 232.632L1081.59 231.599L1080.56 230.566L1079.53 231.599L1080.56 232.632ZM986.413 139.517L1079.53 232.632L1080.56 231.599L987.446 138.484L986.413 139.517ZM987.66 260.011V139.001H986.199V260.011H987.66ZM985.468 260.742H986.929V259.281H985.468V260.742ZM984.737 138.941L984.737 260.011H986.199L986.199 138.941H984.737ZM897.589 227.854L985.985 139.458L984.951 138.425L896.555 226.821L897.589 227.854ZM895.522 226.821L896.555 227.854L897.589 226.821L896.555 225.787L895.522 226.821Z" fill="#A6C3BA"/>
<path fill-rule="evenodd" clip-rule="evenodd" d="M934.387 260.372L984.801 138.66L895.276 175.743L894.717 174.393L984.143 137.351L896.24 100.94L896.799 99.5903L984.702 136.001L932.31 9.51481L933.66 8.95558L986.093 135.541L1039.21 7.30831L1040.56 7.86754L987.501 135.96L1082.28 96.7006L1082.84 98.0507L987.961 137.351L1077.73 174.536L1077.17 175.886L987.402 138.701L1038.06 261L1036.71 261.559L986.093 139.359L935.737 260.931L934.387 260.372Z" fill="#A6C3BA"/>
<path d="M984.801 138.66L985.476 138.94L986.151 137.31L984.521 137.985L984.801 138.66ZM934.387 260.372L933.712 260.092L933.432 260.767L934.107 261.047L934.387 260.372ZM895.276 175.743L894.601 176.022L894.88 176.697L895.555 176.418L895.276 175.743ZM894.717 174.393L894.437 173.718L893.762 173.997L894.042 174.672L894.717 174.393ZM984.143 137.351L984.422 138.026L986.052 137.351L984.422 136.676L984.143 137.351ZM896.24 100.94L895.565 100.661L895.285 101.336L895.96 101.615L896.24 100.94ZM896.799 99.5903L897.079 98.9153L896.404 98.6357L896.124 99.3107L896.799 99.5903ZM984.702 136.001L984.423 136.676L986.052 137.351L985.377 135.721L984.702 136.001ZM932.31 9.51481L932.03 8.83976L931.355 9.11937L931.635 9.79442L932.31 9.51481ZM933.66 8.95558L934.335 8.67597L934.055 8.00092L933.38 8.28053L933.66 8.95558ZM986.093 135.541L985.418 135.82L986.093 137.45L986.768 135.82L986.093 135.541ZM1039.21 7.30831L1039.49 6.63326L1038.81 6.35365L1038.53 7.02871L1039.21 7.30831ZM1040.56 7.86754L1041.23 8.14715L1041.51 7.4721L1040.84 7.19249L1040.56 7.86754ZM987.501 135.96L986.826 135.68L986.151 137.31L987.781 136.635L987.501 135.96ZM1082.28 96.7006L1082.96 96.421L1082.68 95.7459L1082 96.0256L1082.28 96.7006ZM1082.84 98.0507L1083.12 98.7257L1083.8 98.4461L1083.52 97.7711L1082.84 98.0507ZM987.961 137.351L987.682 136.676L986.052 137.351L987.682 138.026L987.961 137.351ZM1077.73 174.536L1078.41 174.816L1078.69 174.141L1078.01 173.861L1077.73 174.536ZM1077.17 175.886L1076.9 176.561L1077.57 176.841L1077.85 176.166L1077.17 175.886ZM987.402 138.701L987.682 138.026L986.052 137.351L986.727 138.981L987.402 138.701ZM1038.06 261L1038.34 261.675L1039.01 261.395L1038.74 260.72L1038.06 261ZM1036.71 261.559L1036.03 261.839L1036.31 262.514L1036.99 262.234L1036.71 261.559ZM986.093 139.359L986.768 139.08L986.093 137.45L985.418 139.08L986.093 139.359ZM935.737 260.931L935.457 261.606L936.132 261.885L936.412 261.21L935.737 260.931ZM984.126 138.381L933.712 260.092L935.062 260.651L985.476 138.94L984.126 138.381ZM895.555 176.418L985.081 139.335L984.521 137.985L894.996 175.068L895.555 176.418ZM894.042 174.672L894.601 176.022L895.951 175.463L895.392 174.113L894.042 174.672ZM983.863 136.676L894.437 173.718L894.996 175.068L984.422 138.026L983.863 136.676ZM895.96 101.615L983.863 138.026L984.422 136.676L896.519 100.265L895.96 101.615ZM896.124 99.3107L895.565 100.661L896.915 101.22L897.474 99.87L896.124 99.3107ZM984.982 135.326L897.079 98.9153L896.519 100.265L984.423 136.676L984.982 135.326ZM931.635 9.79442L984.027 136.281L985.377 135.721L932.985 9.23519L931.635 9.79442ZM933.38 8.28053L932.03 8.83976L932.59 10.1899L933.94 9.63063L933.38 8.28053ZM986.768 135.261L934.335 8.67597L932.985 9.23519L985.418 135.82L986.768 135.261ZM1038.53 7.02871L985.418 135.261L986.768 135.82L1039.88 7.58793L1038.53 7.02871ZM1040.84 7.19249L1039.49 6.63326L1038.93 7.98337L1040.28 8.54259L1040.84 7.19249ZM988.176 136.24L1041.23 8.14715L1039.88 7.58793L986.826 135.68L988.176 136.24ZM1082 96.0256L987.222 135.285L987.781 136.635L1082.56 97.3756L1082 96.0256ZM1083.52 97.7711L1082.96 96.421L1081.61 96.9802L1082.17 98.3303L1083.52 97.7711ZM988.241 138.026L1083.12 98.7257L1082.56 97.3757L987.682 136.676L988.241 138.026ZM1078.01 173.861L988.241 136.676L987.682 138.026L1077.45 175.211L1078.01 173.861ZM1077.85 176.166L1078.41 174.816L1077.06 174.257L1076.5 175.607L1077.85 176.166ZM987.123 139.376L1076.9 176.561L1077.45 175.211L987.682 138.026L987.123 139.376ZM1038.74 260.72L988.077 138.422L986.727 138.981L1037.39 261.279L1038.74 260.72ZM1036.99 262.234L1038.34 261.675L1037.78 260.325L1036.43 260.884L1036.99 262.234ZM985.418 139.639L1036.03 261.839L1037.39 261.279L986.768 139.08L985.418 139.639ZM936.412 261.21L986.768 139.639L985.418 139.08L935.062 260.651L936.412 261.21ZM934.107 261.047L935.457 261.606L936.016 260.256L934.666 259.697L934.107 261.047Z" fill="#A6C3BA"/>
<path fill-rule="evenodd" clip-rule="evenodd" d="M1099.59 25.9003L876.09 249.403L872.086 248.96L1095.59 25.4572L1099.59 25.9003Z" fill="#E0F416"/>
</g>
<g clip-path="url(#clip3_168_3)">
<rect width="174" height="246" transform="translate(365 11)" fill="#181A20"/>
<path fill-rule="evenodd" clip-rule="evenodd" d="M360.031 226.301L448.489 137.842H360.025V136.381H448.301L353.012 41.0915L354.045 40.0582L449.458 135.471L449.458 10.7065H450.919L450.919 135.412L540.507 45.8245L541.54 46.8578L452.017 136.381H538.307V137.842H451.829L545.068 231.081L544.035 232.114L450.919 138.999V260.01H449.458L449.458 138.94L361.064 227.334L360.031 226.301Z" fill="#A6C3BA"/>
<path d="M448.489 137.842L449.006 138.359L450.253 137.112H448.489V137.842ZM360.031 226.301L359.514 225.784L358.997 226.301L359.514 226.817L360.031 226.301ZM360.025 137.842H359.294V138.573H360.025V137.842ZM360.025 136.381V135.65H359.294V136.381H360.025ZM448.301 136.381V137.112H450.065L448.818 135.864L448.301 136.381ZM353.012 41.0915L352.495 40.5749L351.978 41.0915L352.495 41.6082L353.012 41.0915ZM354.045 40.0582L354.562 39.5416L354.045 39.0249L353.528 39.5416L354.045 40.0582ZM449.458 135.471L448.941 135.988L450.189 137.235V135.471H449.458ZM449.458 10.7065V9.97588H448.727V10.7065L449.458 10.7065ZM450.919 10.7065L451.65 10.7065V9.97588H450.919V10.7065ZM450.919 135.412H450.189V137.176L451.436 135.929L450.919 135.412ZM540.507 45.8245L541.024 45.3078L540.507 44.7912L539.99 45.3078L540.507 45.8245ZM541.54 46.8578L542.057 47.3744L542.574 46.8578L542.057 46.3411L541.54 46.8578ZM452.017 136.381L451.501 135.864L450.253 137.112H452.017V136.381ZM538.307 136.381H539.038V135.65H538.307V136.381ZM538.307 137.842V138.573H539.038V137.842H538.307ZM451.829 137.842V137.112H450.065L451.312 138.359L451.829 137.842ZM545.068 231.081L545.585 231.598L546.101 231.081L545.585 230.564L545.068 231.081ZM544.035 232.114L543.518 232.631L544.035 233.148L544.551 232.631L544.035 232.114ZM450.919 138.999L451.436 138.483L450.189 137.235V138.999H450.919ZM450.919 260.01V260.74H451.65V260.01H450.919ZM449.458 260.01H448.727V260.74H449.458V260.01ZM449.458 138.94H450.189V137.176L448.941 138.423L449.458 138.94ZM361.064 227.334L360.547 227.851L361.064 228.367L361.581 227.851L361.064 227.334ZM447.973 137.326L359.514 225.784L360.547 226.817L449.006 138.359L447.973 137.326ZM360.025 138.573H448.489V137.112H360.025V138.573ZM359.294 136.381V137.842H360.756V136.381H359.294ZM448.301 135.65H360.025V137.112H448.301V135.65ZM352.495 41.6082L447.784 136.898L448.818 135.864L353.528 40.5749L352.495 41.6082ZM353.528 39.5416L352.495 40.5749L353.528 41.6082L354.562 40.5749L353.528 39.5416ZM449.975 134.955L354.562 39.5416L353.528 40.5749L448.941 135.988L449.975 134.955ZM448.727 10.7065L448.727 135.471H450.189L450.189 10.7065L448.727 10.7065ZM450.919 9.97588H449.458V11.4372H450.919V9.97588ZM451.65 135.412L451.65 10.7065L450.189 10.7065L450.189 135.412H451.65ZM539.99 45.3078L450.403 134.895L451.436 135.929L541.024 46.3411L539.99 45.3078ZM542.057 46.3411L541.024 45.3078L539.99 46.3411L541.024 47.3744L542.057 46.3411ZM452.534 136.898L542.057 47.3744L541.024 46.3411L451.501 135.864L452.534 136.898ZM538.307 135.65H452.017V137.112H538.307V135.65ZM539.038 137.842V136.381H537.577V137.842H539.038ZM451.829 138.573H538.307V137.112H451.829V138.573ZM545.585 230.564L452.346 137.326L451.312 138.359L544.551 231.598L545.585 230.564ZM544.551 232.631L545.585 231.598L544.551 230.564L543.518 231.598L544.551 232.631ZM450.403 139.516L543.518 232.631L544.551 231.598L451.436 138.483L450.403 139.516ZM451.65 260.01V138.999H450.189V260.01H451.65ZM449.458 260.74H450.919V259.279H449.458V260.74ZM448.727 138.94L448.727 260.01H450.189L450.189 138.94H448.727ZM361.581 227.851L449.975 139.457L448.941 138.423L360.547 226.817L361.581 227.851ZM359.514 226.817L360.547 227.851L361.581 226.817L360.547 225.784L359.514 226.817Z" fill="#A6C3BA"/>
<path fill-rule="evenodd" clip-rule="evenodd" d="M398.379 260.372L448.793 138.66L359.268 175.743L358.709 174.393L448.135 137.351L360.232 100.941L360.791 99.5906L448.694 136.001L396.302 9.51507L397.652 8.95584L450.085 135.541L503.201 7.30857L504.551 7.8678L451.493 135.96L546.274 96.7008L546.833 98.0509L451.954 137.351L541.726 174.536L541.167 175.886L451.395 138.701L502.052 261L500.702 261.559L450.085 139.36L399.729 260.931L398.379 260.372Z" fill="#A6C3BA"/>
<path d="M448.793 138.66L449.468 138.94L450.143 137.31L448.514 137.985L448.793 138.66ZM398.379 260.372L397.704 260.092L397.424 260.767L398.099 261.047L398.379 260.372ZM359.268 175.743L358.593 176.023L358.873 176.698L359.548 176.418L359.268 175.743ZM358.709 174.393L358.429 173.718L357.754 173.997L358.034 174.672L358.709 174.393ZM448.135 137.351L448.415 138.026L450.044 137.351L448.415 136.676L448.135 137.351ZM360.232 100.941L359.557 100.661L359.277 101.336L359.952 101.616L360.232 100.941ZM360.791 99.5906L361.071 98.9156L360.396 98.6359L360.116 99.311L360.791 99.5906ZM448.694 136.001L448.415 136.676L450.044 137.351L449.369 135.722L448.694 136.001ZM396.302 9.51507L396.022 8.84002L395.347 9.11963L395.627 9.79468L396.302 9.51507ZM397.652 8.95584L398.327 8.67622L398.048 8.00118L397.373 8.28079L397.652 8.95584ZM450.085 135.541L449.41 135.82L450.085 137.45L450.76 135.82L450.085 135.541ZM503.201 7.30857L503.481 6.63353L502.806 6.35392L502.526 7.02896L503.201 7.30857ZM504.551 7.8678L505.226 8.14741L505.506 7.47236L504.831 7.19275L504.551 7.8678ZM451.493 135.96L450.818 135.681L450.143 137.31L451.773 136.635L451.493 135.96ZM546.274 96.7008L546.949 96.4212L546.669 95.7462L545.994 96.0258L546.274 96.7008ZM546.833 98.0509L547.113 98.726L547.788 98.4464L547.508 97.7713L546.833 98.0509ZM451.954 137.351L451.674 136.676L450.044 137.351L451.674 138.026L451.954 137.351ZM541.726 174.536L542.401 174.816L542.681 174.141L542.006 173.861L541.726 174.536ZM541.167 175.886L540.888 176.562L541.563 176.841L541.842 176.166L541.167 175.886ZM451.395 138.701L451.674 138.026L450.044 137.351L450.72 138.981L451.395 138.701ZM502.052 261L502.332 261.675L503.007 261.395L502.727 260.72L502.052 261ZM500.702 261.559L500.027 261.839L500.307 262.514L500.982 262.234L500.702 261.559ZM450.085 139.36L450.76 139.08L450.085 137.45L449.41 139.08L450.085 139.36ZM399.729 260.931L399.449 261.606L400.124 261.886L400.404 261.211L399.729 260.931ZM448.118 138.381L397.704 260.092L399.054 260.651L449.468 138.94L448.118 138.381ZM359.548 176.418L449.073 139.335L448.514 137.985L358.988 175.068L359.548 176.418ZM358.034 174.672L358.593 176.023L359.943 175.463L359.384 174.113L358.034 174.672ZM447.855 136.676L358.429 173.718L358.988 175.068L448.415 138.026L447.855 136.676ZM359.952 101.616L447.855 138.026L448.415 136.676L360.512 100.266L359.952 101.616ZM360.116 99.311L359.557 100.661L360.907 101.22L361.466 99.8702L360.116 99.311ZM448.974 135.326L361.071 98.9156L360.512 100.266L448.415 136.676L448.974 135.326ZM395.627 9.79468L448.019 136.281L449.369 135.722L396.977 9.23545L395.627 9.79468ZM397.373 8.28079L396.022 8.84002L396.582 10.1901L397.932 9.63089L397.373 8.28079ZM450.76 135.261L398.327 8.67622L396.977 9.23545L449.41 135.82L450.76 135.261ZM502.526 7.02896L449.41 135.261L450.76 135.82L503.876 7.58819L502.526 7.02896ZM504.831 7.19275L503.481 6.63353L502.921 7.98363L504.271 8.54285L504.831 7.19275ZM452.169 136.24L505.226 8.14741L503.876 7.58819L450.818 135.681L452.169 136.24ZM545.994 96.0258L451.214 135.285L451.773 136.635L546.554 97.3759L545.994 96.0258ZM547.508 97.7713L546.949 96.4212L545.599 96.9805L546.158 98.3306L547.508 97.7713ZM452.233 138.026L547.113 98.726L546.554 97.3759L451.674 136.676L452.233 138.026ZM542.006 173.861L452.233 136.676L451.674 138.026L541.447 175.211L542.006 173.861ZM541.842 176.166L542.401 174.816L541.051 174.257L540.492 175.607L541.842 176.166ZM451.115 139.376L540.888 176.562L541.447 175.211L451.674 138.026L451.115 139.376ZM502.727 260.72L452.07 138.422L450.72 138.981L501.377 261.28L502.727 260.72ZM500.982 262.234L502.332 261.675L501.773 260.325L500.423 260.884L500.982 262.234ZM449.41 139.639L500.027 261.839L501.377 261.28L450.76 139.08L449.41 139.639ZM400.404 261.211L450.76 139.639L449.41 139.08L399.054 260.651L400.404 261.211ZM398.099 261.047L399.449 261.606L400.008 260.256L398.658 259.697L398.099 261.047Z" fill="#A6C3BA"/>
<path fill-rule="evenodd" clip-rule="evenodd" d="M396.586 3.69199L517.028 295.926L515.252 299.142L394.81 6.90769L396.586 3.69199Z" fill="#E0F416"/>
</g>
<g clip-path="url(#clip4_168_3)">
<rect width="174" height="246" transform="translate(1080 11)" fill="#181A20"/>
<path fill-rule="evenodd" clip-rule="evenodd" d="M1075.03 226.302L1163.49 137.844H1075.03V136.383H1163.3L1068.01 41.0928L1069.05 40.0594L1164.46 135.473L1164.46 10.708H1165.92L1165.92 135.413L1255.51 45.8257L1256.54 46.859L1167.02 136.383H1253.31V137.844H1166.83L1260.07 231.082L1259.04 232.116L1165.92 139V260.011H1164.46L1164.46 138.941L1076.07 227.335L1075.03 226.302Z" fill="#A6C3BA"/>
<path d="M1163.49 137.844L1164.01 138.361L1165.25 137.113H1163.49V137.844ZM1075.03 226.302L1074.52 225.785L1074 226.302L1074.52 226.819L1075.03 226.302ZM1075.03 137.844H1074.3V138.575H1075.03V137.844ZM1075.03 136.383V135.652H1074.3V136.383H1075.03ZM1163.3 136.383V137.113H1165.07L1163.82 135.866L1163.3 136.383ZM1068.01 41.0928L1067.5 40.5761L1066.98 41.0928L1067.5 41.6094L1068.01 41.0928ZM1069.05 40.0594L1069.56 39.5428L1069.05 39.0261L1068.53 39.5428L1069.05 40.0594ZM1164.46 135.473L1163.94 135.989L1165.19 137.237V135.473H1164.46ZM1164.46 10.708V9.97734H1163.73V10.708L1164.46 10.708ZM1165.92 10.708L1166.65 10.708V9.97734H1165.92V10.708ZM1165.92 135.413H1165.19V137.177L1166.44 135.93L1165.92 135.413ZM1255.51 45.8257L1256.03 45.309L1255.51 44.7924L1254.99 45.309L1255.51 45.8257ZM1256.54 46.859L1257.06 47.3757L1257.58 46.859L1257.06 46.3423L1256.54 46.859ZM1167.02 136.383L1166.5 135.866L1165.25 137.113H1167.02V136.383ZM1253.31 136.383H1254.04V135.652H1253.31V136.383ZM1253.31 137.844V138.575H1254.04V137.844H1253.31ZM1166.83 137.844V137.113H1165.07L1166.32 138.361L1166.83 137.844ZM1260.07 231.082L1260.59 231.599L1261.1 231.082L1260.59 230.566L1260.07 231.082ZM1259.04 232.116L1258.52 232.632L1259.04 233.149L1259.55 232.632L1259.04 232.116ZM1165.92 139L1166.44 138.484L1165.19 137.236V139H1165.92ZM1165.92 260.011V260.742H1166.65V260.011H1165.92ZM1164.46 260.011H1163.73V260.742H1164.46V260.011ZM1164.46 138.941H1165.19V137.177L1163.94 138.425L1164.46 138.941ZM1076.07 227.335L1075.55 227.852L1076.07 228.369L1076.58 227.852L1076.07 227.335ZM1162.97 137.327L1074.52 225.785L1075.55 226.819L1164.01 138.361L1162.97 137.327ZM1075.03 138.575H1163.49V137.113H1075.03V138.575ZM1074.3 136.383V137.844H1075.76V136.383H1074.3ZM1163.3 135.652H1075.03V137.113H1163.3V135.652ZM1067.5 41.6094L1162.79 136.899L1163.82 135.866L1068.53 40.5761L1067.5 41.6094ZM1068.53 39.5428L1067.5 40.5761L1068.53 41.6094L1069.56 40.5761L1068.53 39.5428ZM1164.98 134.956L1069.56 39.5428L1068.53 40.5761L1163.94 135.989L1164.98 134.956ZM1163.73 10.708L1163.73 135.473H1165.19L1165.19 10.708L1163.73 10.708ZM1165.92 9.97734H1164.46V11.4387H1165.92V9.97734ZM1166.65 135.413L1166.65 10.708L1165.19 10.708L1165.19 135.413H1166.65ZM1254.99 45.309L1165.4 134.897L1166.44 135.93L1256.03 46.3423L1254.99 45.309ZM1257.06 46.3423L1256.03 45.309L1254.99 46.3423L1256.03 47.3757L1257.06 46.3423ZM1167.54 136.899L1257.06 47.3757L1256.03 46.3423L1166.5 135.866L1167.54 136.899ZM1253.31 135.652H1167.02V137.113H1253.31V135.652ZM1254.04 137.844V136.383H1252.58V137.844H1254.04ZM1166.83 138.575H1253.31V137.113H1166.83V138.575ZM1260.59 230.566L1167.35 137.327L1166.32 138.361L1259.55 231.599L1260.59 230.566ZM1259.55 232.632L1260.59 231.599L1259.55 230.566L1258.52 231.599L1259.55 232.632ZM1165.4 139.517L1258.52 232.632L1259.55 231.599L1166.44 138.484L1165.4 139.517ZM1166.65 260.011V139H1165.19V260.011H1166.65ZM1164.46 260.742H1165.92V259.281H1164.46V260.742ZM1163.73 138.941L1163.73 260.011H1165.19L1165.19 138.941H1163.73ZM1076.58 227.852L1164.98 139.458L1163.94 138.425L1075.55 226.819L1076.58 227.852ZM1074.52 226.819L1075.55 227.852L1076.58 226.819L1075.55 225.785L1074.52 226.819Z" fill="#A6C3BA"/>
<path fill-rule="evenodd" clip-rule="evenodd" d="M1113.38 260.374L1163.8 138.662L1074.27 175.745L1073.71 174.395L1163.14 137.352L1075.24 100.942L1075.8 99.5918L1163.7 136.002L1111.31 9.51626L1112.66 8.95703L1165.09 135.54L1218.2 7.31027L1219.55 7.8695L1166.5 135.962L1261.28 96.7025L1261.84 98.0526L1166.96 137.352L1256.73 174.538L1256.17 175.888L1166.4 138.703L1217.06 261.001L1215.71 261.56L1165.09 139.359L1114.73 260.933L1113.38 260.374Z" fill="#A6C3BA"/>
<path d="M1163.8 138.662L1164.47 138.942L1165.15 137.312L1163.52 137.987L1163.8 138.662ZM1113.38 260.374L1112.71 260.094L1112.43 260.769L1113.1 261.049L1113.38 260.374ZM1074.27 175.745L1073.6 176.024L1073.88 176.699L1074.55 176.42L1074.27 175.745ZM1073.71 174.395L1073.43 173.719L1072.76 173.999L1073.04 174.674L1073.71 174.395ZM1163.14 137.352L1163.42 138.027L1165.05 137.352L1163.42 136.677L1163.14 137.352ZM1075.24 100.942L1074.56 100.662L1074.28 101.337L1074.96 101.617L1075.24 100.942ZM1075.8 99.5918L1076.08 98.9168L1075.4 98.6371L1075.12 99.3122L1075.8 99.5918ZM1163.7 136.002L1163.42 136.678L1165.05 137.353L1164.38 135.723L1163.7 136.002ZM1111.31 9.51626L1111.03 8.84121L1110.35 9.12082L1110.63 9.79587L1111.31 9.51626ZM1112.66 8.95703L1113.33 8.67741L1113.05 8.00236L1112.38 8.28198L1112.66 8.95703ZM1165.09 135.54L1164.42 135.82L1165.09 137.449L1165.77 135.82L1165.09 135.54ZM1218.2 7.31027L1218.48 6.63523L1217.81 6.35562L1217.53 7.03066L1218.2 7.31027ZM1219.55 7.8695L1220.23 8.14911L1220.51 7.47406L1219.83 7.19445L1219.55 7.8695ZM1166.5 135.962L1165.82 135.682L1165.15 137.312L1166.78 136.637L1166.5 135.962ZM1261.28 96.7025L1261.95 96.4229L1261.67 95.7479L1261 96.0275L1261.28 96.7025ZM1261.84 98.0526L1262.12 98.7277L1262.79 98.4481L1262.51 97.773L1261.84 98.0526ZM1166.96 137.352L1166.68 136.677L1165.05 137.352L1166.68 138.027L1166.96 137.352ZM1256.73 174.538L1257.41 174.817L1257.69 174.142L1257.01 173.863L1256.73 174.538ZM1256.17 175.888L1255.89 176.563L1256.57 176.842L1256.85 176.167L1256.17 175.888ZM1166.4 138.703L1166.68 138.028L1165.05 137.353L1165.73 138.982L1166.4 138.703ZM1217.06 261.001L1217.34 261.676L1218.01 261.397L1217.73 260.722L1217.06 261.001ZM1215.71 261.56L1215.03 261.84L1215.31 262.515L1215.99 262.236L1215.71 261.56ZM1165.09 139.359L1165.77 139.079L1165.09 137.449L1164.42 139.079L1165.09 139.359ZM1114.73 260.933L1114.45 261.608L1115.13 261.887L1115.41 261.212L1114.73 260.933ZM1163.12 138.382L1112.71 260.094L1114.06 260.653L1164.47 138.942L1163.12 138.382ZM1074.55 176.42L1164.08 139.337L1163.52 137.987L1073.99 175.07L1074.55 176.42ZM1073.04 174.674L1073.6 176.024L1074.95 175.465L1074.39 174.115L1073.04 174.674ZM1162.86 136.677L1073.43 173.719L1073.99 175.07L1163.42 138.027L1162.86 136.677ZM1074.96 101.617L1162.86 138.027L1163.42 136.677L1075.52 100.267L1074.96 101.617ZM1075.12 99.3122L1074.56 100.662L1075.91 101.222L1076.47 99.8714L1075.12 99.3122ZM1163.98 135.327L1076.08 98.9168L1075.52 100.267L1163.42 136.678L1163.98 135.327ZM1110.63 9.79587L1163.03 136.282L1164.38 135.723L1111.98 9.23664L1110.63 9.79587ZM1112.38 8.28198L1111.03 8.84121L1111.59 10.1913L1112.94 9.63208L1112.38 8.28198ZM1165.77 135.26L1113.33 8.67741L1111.98 9.23664L1164.42 135.82L1165.77 135.26ZM1217.53 7.03066L1164.42 135.26L1165.77 135.82L1218.88 7.58989L1217.53 7.03066ZM1219.83 7.19445L1218.48 6.63523L1217.93 7.98532L1219.28 8.54455L1219.83 7.19445ZM1167.17 136.241L1220.23 8.14911L1218.88 7.58989L1165.82 135.682L1167.17 136.241ZM1261 96.0275L1166.22 135.287L1166.78 136.637L1261.56 97.3776L1261 96.0275ZM1262.51 97.773L1261.95 96.4229L1260.6 96.9821L1261.16 98.3322L1262.51 97.773ZM1167.24 138.027L1262.12 98.7277L1261.56 97.3776L1166.68 136.677L1167.24 138.027ZM1257.01 173.863L1167.24 136.677L1166.68 138.027L1256.45 175.213L1257.01 173.863ZM1256.85 176.167L1257.41 174.817L1256.06 174.258L1255.5 175.608L1256.85 176.167ZM1166.12 139.378L1255.89 176.563L1256.45 175.213L1166.68 138.028L1166.12 139.378ZM1217.73 260.722L1167.08 138.423L1165.73 138.982L1216.38 261.281L1217.73 260.722ZM1215.99 262.236L1217.34 261.676L1216.78 260.326L1215.43 260.885L1215.99 262.236ZM1164.42 139.638L1215.03 261.84L1216.38 261.281L1165.77 139.079L1164.42 139.638ZM1115.41 261.212L1165.77 139.638L1164.42 139.079L1114.06 260.653L1115.41 261.212ZM1113.1 261.049L1114.45 261.608L1115.01 260.258L1113.66 259.698L1113.1 261.049Z" fill="#A6C3BA"/>
<path fill-rule="evenodd" clip-rule="evenodd" d="M1025.06 77.5025L1317.2 198.177L1318.39 202.251L1026.25 81.5766L1025.06 77.5025Z" fill="#E0F416"/>
</g>
<g clip-path="url(#clip5_168_3)">
<rect width="174" height="246" transform="translate(544 11)" fill="#181A20"/>
<path fill-rule="evenodd" clip-rule="evenodd" d="M539.033 226.301L627.491 137.843H539.027V136.382H627.305L532.016 41.0925L533.049 40.0592L628.462 135.472L628.462 10.707H629.923L629.923 135.411L719.509 45.825L720.542 46.8583L631.019 136.382H717.309V137.843H630.833L724.072 231.082L723.038 232.115L629.923 139V260.01H628.462L628.462 138.939L540.066 227.335L539.033 226.301Z" fill="#A6C3BA"/>
<path d="M627.491 137.843L628.007 138.36L629.255 137.113H627.491V137.843ZM539.033 226.301L538.516 225.785L537.999 226.301L538.516 226.818L539.033 226.301ZM539.027 137.843H538.296V138.574H539.027V137.843ZM539.027 136.382V135.651H538.296V136.382H539.027ZM627.305 136.382V137.113H629.069L627.822 135.865L627.305 136.382ZM532.016 41.0925L531.499 40.5758L530.982 41.0925L531.499 41.6092L532.016 41.0925ZM533.049 40.0592L533.566 39.5425L533.049 39.0259L532.532 39.5425L533.049 40.0592ZM628.462 135.472L627.945 135.989L629.193 137.236V135.472H628.462ZM628.462 10.707V9.97637H627.731V10.707L628.462 10.707ZM629.923 10.707L630.654 10.707V9.97637H629.923V10.707ZM629.923 135.411H629.193V137.175L630.44 135.927L629.923 135.411ZM719.509 45.825L720.026 45.3083L719.509 44.7916L718.992 45.3083L719.509 45.825ZM720.542 46.8583L721.059 47.3749L721.576 46.8583L721.059 46.3416L720.542 46.8583ZM631.019 136.382L630.502 135.865L629.255 137.113H631.019V136.382ZM717.309 136.382H718.04V135.651H717.309V136.382ZM717.309 137.843V138.574H718.04V137.843H717.309ZM630.833 137.843V137.113H629.069L630.316 138.36L630.833 137.843ZM724.072 231.082L724.588 231.599L725.105 231.082L724.588 230.565L724.072 231.082ZM723.038 232.115L722.522 232.632L723.038 233.149L723.555 232.632L723.038 232.115ZM629.923 139L630.44 138.484L629.193 137.236V139H629.923ZM629.923 260.01V260.741H630.654V260.01H629.923ZM628.462 260.01H627.731V260.741H628.462V260.01ZM628.462 138.939H629.193V137.175L627.945 138.422L628.462 138.939ZM540.066 227.335L539.549 227.851L540.066 228.368L540.583 227.851L540.066 227.335ZM626.974 137.327L538.516 225.785L539.549 226.818L628.007 138.36L626.974 137.327ZM539.027 138.574H627.491V137.113H539.027V138.574ZM538.296 136.382V137.843H539.758V136.382H538.296ZM627.305 135.651H539.027V137.113H627.305V135.651ZM531.499 41.6092L626.788 136.898L627.822 135.865L532.532 40.5758L531.499 41.6092ZM532.532 39.5425L531.499 40.5758L532.532 41.6092L533.566 40.5758L532.532 39.5425ZM628.979 134.956L533.566 39.5425L532.532 40.5758L627.945 135.989L628.979 134.956ZM627.731 10.707L627.731 135.472H629.193L629.193 10.707L627.731 10.707ZM629.923 9.97637H628.462V11.4377H629.923V9.97637ZM630.654 135.411L630.654 10.707L629.193 10.707L629.193 135.411H630.654ZM718.992 45.3083L629.407 134.894L630.44 135.927L720.026 46.3416L718.992 45.3083ZM721.059 46.3416L720.026 45.3083L718.992 46.3416L720.026 47.3749L721.059 46.3416ZM631.535 136.898L721.059 47.3749L720.026 46.3416L630.502 135.865L631.535 136.898ZM717.309 135.651H631.019V137.113H717.309V135.651ZM718.04 137.843V136.382H716.579V137.843H718.04ZM630.833 138.574H717.309V137.113H630.833V138.574ZM724.588 230.565L631.35 137.327L630.316 138.36L723.555 231.599L724.588 230.565ZM723.555 232.632L724.588 231.599L723.555 230.565L722.522 231.599L723.555 232.632ZM629.407 139.517L722.522 232.632L723.555 231.599L630.44 138.484L629.407 139.517ZM630.654 260.01V139H629.193V260.01H630.654ZM628.462 260.741H629.923V259.28H628.462V260.741ZM627.731 138.939L627.731 260.01H629.193L629.193 138.939H627.731ZM540.583 227.851L628.979 139.455L627.945 138.422L539.549 226.818L540.583 227.851ZM538.516 226.818L539.549 227.851L540.583 226.818L539.549 225.785L538.516 226.818Z" fill="#A6C3BA"/>
<path fill-rule="evenodd" clip-rule="evenodd" d="M577.38 260.371L627.795 138.659L538.267 175.743L537.708 174.392L627.135 137.351L539.233 100.941L539.793 99.5906L627.695 136.001L575.303 9.51551L576.653 8.95628L629.087 135.541L682.202 7.30804L683.552 7.86726L630.495 135.959L725.273 96.7004L725.833 98.0505L630.954 137.351L720.728 174.536L720.168 175.886L630.396 138.701L681.054 261L679.703 261.56L629.087 139.359L578.73 260.931L577.38 260.371Z" fill="#A6C3BA"/>
<path d="M627.795 138.659L628.47 138.939L629.145 137.309L627.515 137.984L627.795 138.659ZM577.38 260.371L576.705 260.092L576.425 260.767L577.1 261.046L577.38 260.371ZM538.267 175.743L537.592 176.022L537.872 176.697L538.547 176.418L538.267 175.743ZM537.708 174.392L537.429 173.717L536.754 173.997L537.033 174.672L537.708 174.392ZM627.135 137.351L627.415 138.026L629.044 137.351L627.415 136.676L627.135 137.351ZM539.233 100.941L538.558 100.661L538.279 101.336L538.954 101.616L539.233 100.941ZM539.793 99.5906L540.072 98.9155L539.397 98.6359L539.117 99.311L539.793 99.5906ZM627.695 136.001L627.416 136.676L629.046 137.351L628.37 135.722L627.695 136.001ZM575.303 9.51551L575.024 8.84046L574.349 9.12007L574.628 9.79512L575.303 9.51551ZM576.653 8.95628L577.329 8.67666L577.049 8.00162L576.374 8.28123L576.653 8.95628ZM629.087 135.541L628.411 135.82L629.087 137.45L629.762 135.82L629.087 135.541ZM682.202 7.30804L682.482 6.633L681.807 6.35339L681.527 7.02843L682.202 7.30804ZM683.552 7.86726L684.227 8.14688L684.507 7.47183L683.832 7.19222L683.552 7.86726ZM630.495 135.959L629.82 135.679L629.145 137.309L630.775 136.634L630.495 135.959ZM725.273 96.7004L725.948 96.4208L725.669 95.7458L724.994 96.0254L725.273 96.7004ZM725.833 98.0505L726.112 98.7256L726.787 98.446L726.508 97.7709L725.833 98.0505ZM630.954 137.351L630.674 136.676L629.044 137.351L630.674 138.026L630.954 137.351ZM720.728 174.536L721.403 174.816L721.682 174.141L721.007 173.861L720.728 174.536ZM720.168 175.886L719.889 176.562L720.564 176.841L720.844 176.166L720.168 175.886ZM630.396 138.701L630.675 138.026L629.046 137.351L629.721 138.981L630.396 138.701ZM681.054 261L681.333 261.676L682.008 261.396L681.729 260.721L681.054 261ZM679.703 261.56L679.028 261.839L679.308 262.514L679.983 262.235L679.703 261.56ZM629.087 139.359L629.762 139.08L629.087 137.45L628.411 139.08L629.087 139.359ZM578.73 260.931L578.451 261.606L579.126 261.885L579.405 261.21L578.73 260.931ZM627.12 138.379L576.705 260.092L578.055 260.651L628.47 138.939L627.12 138.379ZM538.547 176.418L628.075 139.334L627.515 137.984L537.988 175.067L538.547 176.418ZM537.033 174.672L537.592 176.022L538.943 175.463L538.383 174.113L537.033 174.672ZM626.855 136.676L537.429 173.717L537.988 175.067L627.415 138.026L626.855 136.676ZM538.954 101.616L626.855 138.026L627.415 136.676L539.513 100.266L538.954 101.616ZM539.117 99.311L538.558 100.661L539.908 101.22L540.468 99.8702L539.117 99.311ZM627.975 135.326L540.072 98.9155L539.513 100.266L627.416 136.676L627.975 135.326ZM574.628 9.79512L627.02 136.281L628.37 135.722L575.978 9.23589L574.628 9.79512ZM576.374 8.28123L575.024 8.84046L575.583 10.1906L576.933 9.63133L576.374 8.28123ZM629.762 135.261L577.329 8.67666L575.978 9.23589L628.411 135.82L629.762 135.261ZM681.527 7.02843L628.411 135.261L629.762 135.82L682.877 7.58766L681.527 7.02843ZM683.832 7.19222L682.482 6.633L681.923 7.98309L683.273 8.54232L683.832 7.19222ZM631.17 136.238L684.227 8.14688L682.877 7.58766L629.82 135.679L631.17 136.238ZM724.994 96.0254L630.215 135.284L630.775 136.634L725.553 97.3755L724.994 96.0254ZM726.508 97.7709L725.948 96.4208L724.598 96.98L725.158 98.3301L726.508 97.7709ZM631.233 138.026L726.112 98.7256L725.553 97.3755L630.674 136.676L631.233 138.026ZM721.007 173.861L631.233 136.676L630.674 138.026L720.448 175.211L721.007 173.861ZM720.844 176.166L721.403 174.816L720.053 174.257L719.493 175.607L720.844 176.166ZM630.116 139.376L719.889 176.562L720.448 175.211L630.675 138.026L630.116 139.376ZM681.729 260.721L631.071 138.422L629.721 138.981L680.379 261.28L681.729 260.721ZM679.983 262.235L681.333 261.676L680.774 260.325L679.424 260.885L679.983 262.235ZM628.411 139.639L679.028 261.839L680.379 261.28L629.762 139.08L628.411 139.639ZM579.405 261.21L629.762 139.639L628.411 139.08L578.055 260.651L579.405 261.21ZM577.1 261.046L578.451 261.606L579.01 260.255L577.66 259.696L577.1 261.046Z" fill="#A6C3BA"/>
<path fill-rule="evenodd" clip-rule="evenodd" d="M527.055 32.6868L750.633 256.114L750.23 259.766L526.652 36.3384L527.055 32.6868Z" fill="#E0F416"/>
</g>
<g clip-path="url(#clip6_168_3)">
<rect width="174" height="246" transform="translate(1259 11)" fill="#181A20"/>
<path fill-rule="evenodd" clip-rule="evenodd" d="M1254.03 226.302L1342.49 137.844H1254.02V136.383H1342.3L1247.01 41.0928L1248.05 40.0594L1343.46 135.473L1343.46 10.708H1344.92L1344.92 135.413L1434.51 45.8257L1435.54 46.859L1346.02 136.383H1432.31V137.844H1345.83L1439.07 231.082L1438.03 232.116L1344.92 139V260.011H1343.46L1343.46 138.941L1255.06 227.335L1254.03 226.302Z" fill="#A6C3BA"/>
<path d="M1342.49 137.844L1343.01 138.361L1344.25 137.113H1342.49V137.844ZM1254.03 226.302L1253.51 225.785L1253 226.302L1253.51 226.819L1254.03 226.302ZM1254.02 137.844H1253.29V138.575H1254.02V137.844ZM1254.02 136.383V135.652H1253.29V136.383H1254.02ZM1342.3 136.383V137.113H1344.07L1342.82 135.866L1342.3 136.383ZM1247.01 41.0928L1246.5 40.5761L1245.98 41.0928L1246.5 41.6094L1247.01 41.0928ZM1248.05 40.0594L1248.56 39.5428L1248.05 39.0261L1247.53 39.5428L1248.05 40.0594ZM1343.46 135.473L1342.94 135.989L1344.19 137.237V135.473H1343.46ZM1343.46 10.708V9.97734H1342.73V10.708L1343.46 10.708ZM1344.92 10.708L1345.65 10.708V9.97734H1344.92V10.708ZM1344.92 135.413H1344.19V137.177L1345.44 135.93L1344.92 135.413ZM1434.51 45.8257L1435.02 45.309L1434.51 44.7924L1433.99 45.309L1434.51 45.8257ZM1435.54 46.859L1436.06 47.3757L1436.57 46.859L1436.06 46.3423L1435.54 46.859ZM1346.02 136.383L1345.5 135.866L1344.25 137.113H1346.02V136.383ZM1432.31 136.383H1433.04V135.652H1432.31V136.383ZM1432.31 137.844V138.575H1433.04V137.844H1432.31ZM1345.83 137.844V137.113H1344.07L1345.31 138.361L1345.83 137.844ZM1439.07 231.082L1439.58 231.599L1440.1 231.082L1439.58 230.566L1439.07 231.082ZM1438.03 232.116L1437.52 232.632L1438.03 233.149L1438.55 232.632L1438.03 232.116ZM1344.92 139L1345.44 138.484L1344.19 137.236V139H1344.92ZM1344.92 260.011V260.742H1345.65V260.011H1344.92ZM1343.46 260.011H1342.73V260.742H1343.46V260.011ZM1343.46 138.941H1344.19V137.177L1342.94 138.425L1343.46 138.941ZM1255.06 227.335L1254.55 227.852L1255.06 228.369L1255.58 227.852L1255.06 227.335ZM1341.97 137.327L1253.51 225.785L1254.55 226.819L1343.01 138.361L1341.97 137.327ZM1254.02 138.575H1342.49V137.113H1254.02V138.575ZM1253.29 136.383V137.844H1254.76V136.383H1253.29ZM1342.3 135.652H1254.02V137.113H1342.3V135.652ZM1246.5 41.6094L1341.79 136.899L1342.82 135.866L1247.53 40.5761L1246.5 41.6094ZM1247.53 39.5428L1246.5 40.5761L1247.53 41.6094L1248.56 40.5761L1247.53 39.5428ZM1343.97 134.956L1248.56 39.5428L1247.53 40.5761L1342.94 135.989L1343.97 134.956ZM1342.73 10.708L1342.73 135.473H1344.19L1344.19 10.708L1342.73 10.708ZM1344.92 9.97734H1343.46V11.4387H1344.92V9.97734ZM1345.65 135.413L1345.65 10.708L1344.19 10.708L1344.19 135.413H1345.65ZM1433.99 45.309L1344.4 134.897L1345.44 135.93L1435.02 46.3423L1433.99 45.309ZM1436.06 46.3423L1435.02 45.309L1433.99 46.3423L1435.02 47.3757L1436.06 46.3423ZM1346.53 136.899L1436.06 47.3757L1435.02 46.3423L1345.5 135.866L1346.53 136.899ZM1432.31 135.652H1346.02V137.113H1432.31V135.652ZM1433.04 137.844V136.383H1431.58V137.844H1433.04ZM1345.83 138.575H1432.31V137.113H1345.83V138.575ZM1439.58 230.566L1346.35 137.327L1345.31 138.361L1438.55 231.599L1439.58 230.566ZM1438.55 232.632L1439.58 231.599L1438.55 230.566L1437.52 231.599L1438.55 232.632ZM1344.4 139.517L1437.52 232.632L1438.55 231.599L1345.44 138.484L1344.4 139.517ZM1345.65 260.011V139H1344.19V260.011H1345.65ZM1343.46 260.742H1344.92V259.281H1343.46V260.742ZM1342.73 138.941L1342.73 260.011H1344.19L1344.19 138.941H1342.73ZM1255.58 227.852L1343.97 139.458L1342.94 138.425L1254.55 226.819L1255.58 227.852ZM1253.51 226.819L1254.55 227.852L1255.58 226.819L1254.55 225.785L1253.51 226.819Z" fill="#A6C3BA"/>
<path fill-rule="evenodd" clip-rule="evenodd" d="M1292.38 260.374L1342.79 138.663L1253.27 175.745L1252.71 174.395L1342.14 137.353L1254.23 100.942L1254.79 99.5922L1342.7 136.003L1290.3 9.51619L1291.65 8.95696L1344.09 135.54L1397.2 7.31043L1398.55 7.86966L1345.49 135.962L1440.27 96.703L1440.83 98.053L1345.96 137.353L1435.73 174.538L1435.17 175.888L1345.4 138.703L1396.05 261.001L1394.7 261.56L1344.09 139.359L1293.73 260.933L1292.38 260.374Z" fill="#A6C3BA"/>
<path d="M1342.79 138.663L1343.47 138.942L1344.14 137.312L1342.51 137.987L1342.79 138.663ZM1292.38 260.374L1291.7 260.094L1291.42 260.769L1292.1 261.049L1292.38 260.374ZM1253.27 175.745L1252.59 176.025L1252.87 176.7L1253.55 176.42L1253.27 175.745ZM1252.71 174.395L1252.43 173.72L1251.75 174L1252.03 174.675L1252.71 174.395ZM1342.14 137.353L1342.42 138.028L1344.05 137.353L1342.42 136.678L1342.14 137.353ZM1254.23 100.942L1253.56 100.663L1253.28 101.338L1253.95 101.617L1254.23 100.942ZM1254.79 99.5922L1255.07 98.9172L1254.4 98.6376L1254.12 99.3126L1254.79 99.5922ZM1342.7 136.003L1342.42 136.678L1344.05 137.353L1343.37 135.723L1342.7 136.003ZM1290.3 9.51619L1290.02 8.84114L1289.35 9.12075L1289.63 9.7958L1290.3 9.51619ZM1291.65 8.95696L1292.33 8.67734L1292.05 8.00229L1291.37 8.28191L1291.65 8.95696ZM1344.09 135.54L1343.41 135.82L1344.09 137.449L1344.76 135.82L1344.09 135.54ZM1397.2 7.31043L1397.48 6.63539L1396.81 6.35577L1396.53 7.03081L1397.2 7.31043ZM1398.55 7.86966L1399.23 8.14927L1399.51 7.47423L1398.83 7.19461L1398.55 7.86966ZM1345.49 135.962L1344.82 135.683L1344.14 137.312L1345.77 136.637L1345.49 135.962ZM1440.27 96.703L1440.95 96.4233L1440.67 95.7483L1439.99 96.0279L1440.27 96.703ZM1440.83 98.053L1441.11 98.7281L1441.79 98.4485L1441.51 97.7734L1440.83 98.053ZM1345.96 137.353L1345.68 136.678L1344.05 137.353L1345.68 138.028L1345.96 137.353ZM1435.73 174.538L1436.4 174.818L1436.68 174.143L1436.01 173.863L1435.73 174.538ZM1435.17 175.888L1434.89 176.563L1435.56 176.843L1435.84 176.168L1435.17 175.888ZM1345.4 138.703L1345.68 138.028L1344.05 137.353L1344.72 138.983L1345.4 138.703ZM1396.05 261.001L1396.33 261.676L1397.01 261.397L1396.73 260.722L1396.05 261.001ZM1394.7 261.56L1394.03 261.84L1394.31 262.515L1394.98 262.235L1394.7 261.56ZM1344.09 139.359L1344.76 139.079L1344.09 137.449L1343.41 139.079L1344.09 139.359ZM1293.73 260.933L1293.45 261.608L1294.12 261.888L1294.4 261.213L1293.73 260.933ZM1342.12 138.383L1291.7 260.094L1293.05 260.653L1343.47 138.942L1342.12 138.383ZM1253.55 176.42L1343.07 139.338L1342.51 137.987L1252.99 175.07L1253.55 176.42ZM1252.03 174.675L1252.59 176.025L1253.94 175.465L1253.38 174.115L1252.03 174.675ZM1341.86 136.678L1252.43 173.72L1252.99 175.07L1342.42 138.028L1341.86 136.678ZM1253.95 101.617L1341.86 138.028L1342.42 136.678L1254.51 100.267L1253.95 101.617ZM1254.12 99.3126L1253.56 100.663L1254.91 101.222L1255.47 99.8718L1254.12 99.3126ZM1342.98 135.328L1255.07 98.9172L1254.51 100.267L1342.42 136.678L1342.98 135.328ZM1289.63 9.7958L1342.02 136.283L1343.37 135.723L1290.98 9.23657L1289.63 9.7958ZM1291.37 8.28191L1290.02 8.84114L1290.58 10.1912L1291.93 9.63201L1291.37 8.28191ZM1344.76 135.26L1292.33 8.67734L1290.98 9.23657L1343.41 135.82L1344.76 135.26ZM1396.53 7.03081L1343.41 135.26L1344.76 135.82L1397.88 7.59005L1396.53 7.03081ZM1398.83 7.19461L1397.48 6.63539L1396.92 7.98549L1398.27 8.54471L1398.83 7.19461ZM1346.17 136.242L1399.23 8.14927L1397.88 7.59005L1344.82 135.683L1346.17 136.242ZM1439.99 96.0279L1345.21 135.287L1345.77 136.637L1440.55 97.378L1439.99 96.0279ZM1441.51 97.7734L1440.95 96.4233L1439.6 96.9826L1440.16 98.3327L1441.51 97.7734ZM1346.23 138.028L1441.11 98.7281L1440.55 97.378L1345.68 136.678L1346.23 138.028ZM1436.01 173.863L1346.23 136.678L1345.68 138.028L1435.45 175.213L1436.01 173.863ZM1435.84 176.168L1436.4 174.818L1435.05 174.258L1434.49 175.608L1435.84 176.168ZM1345.12 139.378L1434.89 176.563L1435.45 175.213L1345.68 138.028L1345.12 139.378ZM1396.73 260.722L1346.07 138.424L1344.72 138.983L1395.38 261.281L1396.73 260.722ZM1394.98 262.235L1396.33 261.676L1395.77 260.326L1394.42 260.885L1394.98 262.235ZM1343.41 139.638L1394.03 261.84L1395.38 261.281L1344.76 139.079L1343.41 139.638ZM1294.4 261.213L1344.76 139.638L1343.41 139.079L1293.05 260.653L1294.4 261.213ZM1292.1 261.049L1293.45 261.608L1294.01 260.258L1292.66 259.699L1292.1 261.049Z" fill="#A6C3BA"/>
<path fill-rule="evenodd" clip-rule="evenodd" d="M1192.49 135.333L1508.57 135.333L1510.87 138.2L1194.79 138.2L1192.49 135.333Z" fill="#E0F416"/>
</g>
<g clip-path="url(#clip7_168_3)">
<rect width="173" height="246" transform="translate(723 11)" fill="#181A20"/>
<path fill-rule="evenodd" clip-rule="evenodd" d="M718.033 226.302L806.491 137.844H718.025V136.383H806.304L711.014 41.0928L712.047 40.0594L807.46 135.473L807.46 10.708H808.921L808.921 135.414L898.509 45.8259L899.542 46.8592L810.019 136.383H896.307V137.844H809.832L903.07 231.082L902.037 232.116L808.921 139V260.011H807.46L807.46 138.942L719.066 227.336L718.033 226.302Z" fill="#A6C3BA"/>
<path d="M806.491 137.844L807.007 138.361L808.255 137.113H806.491V137.844ZM718.033 226.302L717.516 225.786L716.999 226.302L717.516 226.819L718.033 226.302ZM718.025 137.844H717.294V138.575H718.025V137.844ZM718.025 136.383V135.652H717.294V136.383H718.025ZM806.304 136.383V137.113H808.068L806.82 135.866L806.304 136.383ZM711.014 41.0928L710.497 40.5761L709.98 41.0928L710.497 41.6094L711.014 41.0928ZM712.047 40.0594L712.564 39.5428L712.047 39.0261L711.53 39.5428L712.047 40.0594ZM807.46 135.473L806.943 135.989L808.191 137.237V135.473H807.46ZM807.46 10.708V9.97734H806.729V10.708L807.46 10.708ZM808.921 10.708L809.652 10.708V9.97734H808.921V10.708ZM808.921 135.414H808.191V137.178L809.438 135.93L808.921 135.414ZM898.509 45.8259L899.026 45.3093L898.509 44.7926L897.992 45.3093L898.509 45.8259ZM899.542 46.8592L900.059 47.3759L900.576 46.8592L900.059 46.3426L899.542 46.8592ZM810.019 136.383L809.502 135.866L808.255 137.113H810.019V136.383ZM896.307 136.383H897.038V135.652H896.307V136.383ZM896.307 137.844V138.575H897.038V137.844H896.307ZM809.832 137.844V137.113H808.068L809.315 138.361L809.832 137.844ZM903.07 231.082L903.586 231.599L904.103 231.082L903.586 230.566L903.07 231.082ZM902.037 232.116L901.52 232.632L902.037 233.149L902.553 232.632L902.037 232.116ZM808.921 139L809.438 138.484L808.191 137.236V139H808.921ZM808.921 260.011V260.742H809.652V260.011H808.921ZM807.46 260.011H806.729V260.742H807.46V260.011ZM807.46 138.942H808.191V137.178L806.943 138.425L807.46 138.942ZM719.066 227.336L718.549 227.852L719.066 228.369L719.583 227.852L719.066 227.336ZM805.974 137.327L717.516 225.786L718.549 226.819L807.007 138.361L805.974 137.327ZM718.025 138.575H806.491V137.113H718.025V138.575ZM717.294 136.383V137.844H718.756V136.383H717.294ZM806.304 135.652H718.025V137.113H806.304V135.652ZM710.497 41.6094L805.787 136.899L806.82 135.866L711.53 40.5761L710.497 41.6094ZM711.53 39.5428L710.497 40.5761L711.53 41.6094L712.564 40.5761L711.53 39.5428ZM807.977 134.956L712.564 39.5428L711.53 40.5761L806.943 135.989L807.977 134.956ZM806.729 10.708L806.729 135.473H808.191L808.191 10.708L806.729 10.708ZM808.921 9.97734H807.46V11.4387H808.921V9.97734ZM809.652 135.414L809.652 10.708L808.191 10.708L808.191 135.414H809.652ZM897.992 45.3093L808.405 134.897L809.438 135.93L899.026 46.3426L897.992 45.3093ZM900.059 46.3426L899.026 45.3093L897.992 46.3426L899.026 47.3759L900.059 46.3426ZM810.535 136.899L900.059 47.3759L899.026 46.3426L809.502 135.866L810.535 136.899ZM896.307 135.652H810.019V137.113H896.307V135.652ZM897.038 137.844V136.383H895.577V137.844H897.038ZM809.832 138.575H896.307V137.113H809.832V138.575ZM903.586 230.566L810.348 137.327L809.315 138.361L902.553 231.599L903.586 230.566ZM902.553 232.632L903.586 231.599L902.553 230.566L901.52 231.599L902.553 232.632ZM808.405 139.517L901.52 232.632L902.553 231.599L809.438 138.484L808.405 139.517ZM809.652 260.011V139H808.191V260.011H809.652ZM807.46 260.742H808.921V259.281H807.46V260.742ZM806.729 138.942L806.729 260.011H808.191L808.191 138.942H806.729ZM719.583 227.852L807.977 139.458L806.943 138.425L718.549 226.819L719.583 227.852ZM717.516 226.819L718.549 227.852L719.583 226.819L718.549 225.786L717.516 226.819Z" fill="#A6C3BA"/>
<path fill-rule="evenodd" clip-rule="evenodd" d="M756.383 260.374L806.797 138.662L717.27 175.745L716.711 174.395L806.138 137.353L718.236 100.942L718.795 99.5923L806.698 136.003L754.306 9.51674L755.656 8.95752L808.089 135.543L861.205 7.31052L862.555 7.86974L809.498 135.961L904.276 96.703L904.835 98.0531L809.957 137.353L899.73 174.538L899.171 175.888L809.398 138.703L860.056 261.002L858.706 261.561L808.089 139.361L757.733 260.933L756.383 260.374Z" fill="#A6C3BA"/>
<path d="M806.797 138.662L807.472 138.941L808.147 137.312L806.518 137.987L806.797 138.662ZM756.383 260.374L755.708 260.094L755.428 260.769L756.103 261.049L756.383 260.374ZM717.27 175.745L716.595 176.025L716.874 176.7L717.55 176.42L717.27 175.745ZM716.711 174.395L716.431 173.72L715.756 174L716.036 174.675L716.711 174.395ZM806.138 137.353L806.418 138.028L808.048 137.353L806.418 136.678L806.138 137.353ZM718.236 100.942L717.561 100.663L717.281 101.338L717.956 101.617L718.236 100.942ZM718.795 99.5923L719.075 98.9173L718.4 98.6376L718.12 99.3127L718.795 99.5923ZM806.698 136.003L806.419 136.678L808.048 137.353L807.373 135.723L806.698 136.003ZM754.306 9.51674L754.026 8.8417L753.351 9.12131L753.631 9.79636L754.306 9.51674ZM755.656 8.95752L756.331 8.6779L756.051 8.00285L755.376 8.28247L755.656 8.95752ZM808.089 135.543L807.414 135.822L808.089 137.452L808.764 135.822L808.089 135.543ZM861.205 7.31052L861.484 6.63547L860.809 6.35585L860.53 7.0309L861.205 7.31052ZM862.555 7.86974L863.23 8.14936L863.51 7.47431L862.835 7.1947L862.555 7.86974ZM809.498 135.961L808.823 135.682L808.147 137.312L809.777 136.636L809.498 135.961ZM904.276 96.703L904.951 96.4234L904.671 95.7484L903.996 96.028L904.276 96.703ZM904.835 98.0531L905.115 98.7282L905.79 98.4486L905.51 97.7735L904.835 98.0531ZM809.957 137.353L809.677 136.678L808.048 137.353L809.677 138.028L809.957 137.353ZM899.73 174.538L900.405 174.818L900.685 174.143L900.01 173.863L899.73 174.538ZM899.171 175.888L898.891 176.563L899.566 176.843L899.846 176.168L899.171 175.888ZM809.398 138.703L809.678 138.028L808.048 137.353L808.723 138.983L809.398 138.703ZM860.056 261.002L860.336 261.677L861.011 261.397L860.731 260.722L860.056 261.002ZM858.706 261.561L858.031 261.841L858.311 262.516L858.986 262.236L858.706 261.561ZM808.089 139.361L808.764 139.082L808.089 137.452L807.414 139.082L808.089 139.361ZM757.733 260.933L757.453 261.608L758.128 261.888L758.408 261.213L757.733 260.933ZM806.122 138.382L755.708 260.094L757.058 260.653L807.472 138.941L806.122 138.382ZM717.55 176.42L807.077 139.337L806.518 137.987L716.99 175.07L717.55 176.42ZM716.036 174.675L716.595 176.025L717.945 175.466L717.386 174.115L716.036 174.675ZM805.859 136.678L716.431 173.72L716.99 175.07L806.418 138.028L805.859 136.678ZM717.956 101.617L805.859 138.028L806.418 136.678L718.515 100.267L717.956 101.617ZM718.12 99.3127L717.561 100.663L718.911 101.222L719.47 99.8719L718.12 99.3127ZM806.978 135.328L719.075 98.9173L718.515 100.267L806.419 136.678L806.978 135.328ZM753.631 9.79636L806.023 136.283L807.373 135.723L754.981 9.23713L753.631 9.79636ZM755.376 8.28247L754.026 8.8417L754.586 10.1918L755.936 9.63256L755.376 8.28247ZM808.764 135.263L756.331 8.6779L754.981 9.23713L807.414 135.822L808.764 135.263ZM860.53 7.0309L807.414 135.263L808.764 135.822L861.88 7.59013L860.53 7.0309ZM862.835 7.1947L861.484 6.63547L860.925 7.98557L862.275 8.54479L862.835 7.1947ZM810.173 136.241L863.23 8.14936L861.88 7.59013L808.823 135.682L810.173 136.241ZM903.996 96.028L809.218 135.286L809.777 136.636L904.555 97.3781L903.996 96.028ZM905.51 97.7735L904.951 96.4234L903.601 96.9826L904.16 98.3327L905.51 97.7735ZM810.237 138.028L905.115 98.7282L904.555 97.3781L809.677 136.678L810.237 138.028ZM900.01 173.863L810.237 136.678L809.677 138.028L899.451 175.213L900.01 173.863ZM899.846 176.168L900.405 174.818L899.055 174.258L898.496 175.609L899.846 176.168ZM809.119 139.378L898.891 176.563L899.451 175.213L809.678 138.028L809.119 139.378ZM860.731 260.722L810.073 138.424L808.723 138.983L859.381 261.281L860.731 260.722ZM858.986 262.236L860.336 261.677L859.776 260.327L858.426 260.886L858.986 262.236ZM807.414 139.641L858.031 261.841L859.381 261.281L808.764 139.082L807.414 139.641ZM758.408 261.213L808.764 139.641L807.414 139.082L757.058 260.653L758.408 261.213ZM756.103 261.049L757.453 261.608L758.012 260.258L756.662 259.699L756.103 261.049Z" fill="#A6C3BA"/>
<path fill-rule="evenodd" clip-rule="evenodd" d="M666.617 194.016L958.683 73.1661L962.102 75.0483L670.036 195.898L666.617 194.016Z" fill="#E0F416"/>
</g>
<defs>
<clipPath id="clip0_168_3">
<rect width="174" height="246" fill="white" transform="translate(7 11)"/>
</clipPath>
<clipPath id="clip1_168_3">
<rect width="174" height="246" fill="white" transform="translate(186 11)"/>
</clipPath>
<clipPath id="clip2_168_3">
<rect width="174" height="246" fill="white" transform="translate(901 11)"/>
</clipPath>
<clipPath id="clip3_168_3">
<rect width="174" height="246" fill="white" transform="translate(365 11)"/>
</clipPath>
<clipPath id="clip4_168_3">
<rect width="174" height="246" fill="white" transform="translate(1080 11)"/>
</clipPath>
<clipPath id="clip5_168_3">
<rect width="174" height="246" fill="white" transform="translate(544 11)"/>
</clipPath>
<clipPath id="clip6_168_3">
<rect width="174" height="246" fill="white" transform="translate(1259 11)"/>
</clipPath>
<clipPath id="clip7_168_3">
<rect width="173" height="246" fill="white" transform="translate(723 11)"/>
</clipPath>
</defs>
</svg>
