<svg width="497" height="498" viewBox="0 0 497 498" fill="none" xmlns="http://www.w3.org/2000/svg">
<rect width="497" height="498" fill="#181A20"/>
<line x1="408.275" y1="389.989" x2="52.9999" y2="389.989" stroke="#ABC2BA" stroke-width="2.94834"/>
<line x1="97.2261" y1="78.939" x2="97.2261" y2="434.214" stroke="#ABC2BA" stroke-width="2.94834"/>
<line x1="165.037" y1="328.074" x2="95.751" y2="328.074" stroke="#ABC2BA" stroke-width="2.94834"/>
<line x1="159.14" y1="322.177" x2="159.14" y2="391.463" stroke="#ABC2BA" stroke-width="2.94834"/>
<line x1="141.451" y1="112.108" x2="95.7518" y2="112.108" stroke="#ABC2BA" stroke-width="1.47417"/>
<line x1="127.446" y1="345.764" x2="127.446" y2="391.464" stroke="#ABC2BA" stroke-width="1.47417"/>
<line x1="165.037" y1="80.4131" x2="95.751" y2="80.4131" stroke="#ABC2BA" stroke-width="2.94834"/>
<line x1="221.056" y1="322.177" x2="221.056" y2="391.463" stroke="#ABC2BA" stroke-width="2.94834"/>
<line x1="141.451" y1="174.023" x2="95.7518" y2="174.023" stroke="#ABC2BA" stroke-width="1.47417"/>
<line x1="189.362" y1="345.763" x2="189.362" y2="391.463" stroke="#ABC2BA" stroke-width="1.47417"/>
<line x1="165.037" y1="142.328" x2="95.751" y2="142.328" stroke="#ABC2BA" stroke-width="2.94834"/>
<line x1="282.972" y1="322.177" x2="282.972" y2="391.463" stroke="#ABC2BA" stroke-width="2.94834"/>
<line x1="141.451" y1="235.938" x2="95.7518" y2="235.938" stroke="#ABC2BA" stroke-width="1.47417"/>
<line x1="251.276" y1="345.763" x2="251.276" y2="391.463" stroke="#ABC2BA" stroke-width="1.47417"/>
<line x1="165.037" y1="204.244" x2="95.751" y2="204.244" stroke="#ABC2BA" stroke-width="2.94834"/>
<line x1="344.886" y1="322.177" x2="344.886" y2="391.463" stroke="#ABC2BA" stroke-width="2.94834"/>
<line x1="141.451" y1="297.853" x2="95.7518" y2="297.853" stroke="#ABC2BA" stroke-width="1.47417"/>
<line x1="313.192" y1="345.763" x2="313.192" y2="391.463" stroke="#ABC2BA" stroke-width="1.47417"/>
<line x1="165.037" y1="266.159" x2="95.751" y2="266.159" stroke="#ABC2BA" stroke-width="2.94834"/>
<line x1="406.802" y1="322.177" x2="406.802" y2="391.463" stroke="#ABC2BA" stroke-width="2.94834"/>
<line x1="141.451" y1="359.769" x2="95.7518" y2="359.769" stroke="#ABC2BA" stroke-width="1.47417"/>
<line x1="122.287" y1="364.191" x2="95.752" y2="364.191" stroke="#ABC2BA" stroke-width="1.47417"/>
<line x1="123.024" y1="361.98" x2="123.024" y2="388.515" stroke="#ABC2BA" stroke-width="1.47417"/>
<line x1="122.287" y1="328.811" x2="95.752" y2="328.811" stroke="#ABC2BA" stroke-width="1.47417"/>
<line x1="122.287" y1="352.398" x2="95.752" y2="352.398" stroke="#ABC2BA" stroke-width="1.47417"/>
<line x1="122.287" y1="346.501" x2="95.752" y2="346.501" stroke="#ABC2BA" stroke-width="1.47417"/>
<line x1="122.287" y1="339.13" x2="95.752" y2="339.13" stroke="#ABC2BA" stroke-width="1.47417"/>
<line x1="122.287" y1="333.234" x2="95.752" y2="333.234" stroke="#ABC2BA" stroke-width="1.47417"/>
<line x1="401.643" y1="361.98" x2="401.643" y2="388.515" stroke="#ABC2BA" stroke-width="1.47417"/>
<line x1="395.747" y1="361.98" x2="395.747" y2="388.515" stroke="#ABC2BA" stroke-width="1.47417"/>
<line x1="388.376" y1="361.98" x2="388.376" y2="388.515" stroke="#ABC2BA" stroke-width="1.47417"/>
<line x1="382.479" y1="361.98" x2="382.479" y2="388.515" stroke="#ABC2BA" stroke-width="1.47417"/>
<line x1="122.287" y1="321.44" x2="95.752" y2="321.44" stroke="#ABC2BA" stroke-width="1.47417"/>
<line x1="122.287" y1="315.544" x2="95.752" y2="315.544" stroke="#ABC2BA" stroke-width="1.47417"/>
<line x1="122.287" y1="308.173" x2="95.752" y2="308.173" stroke="#ABC2BA" stroke-width="1.47417"/>
<line x1="122.287" y1="302.276" x2="95.752" y2="302.276" stroke="#ABC2BA" stroke-width="1.47417"/>
<line x1="370.684" y1="361.98" x2="370.684" y2="388.515" stroke="#ABC2BA" stroke-width="1.47417"/>
<line x1="364.788" y1="361.98" x2="364.788" y2="388.515" stroke="#ABC2BA" stroke-width="1.47417"/>
<line x1="357.417" y1="361.98" x2="357.417" y2="388.515" stroke="#ABC2BA" stroke-width="1.47417"/>
<line x1="351.52" y1="361.98" x2="351.52" y2="388.515" stroke="#ABC2BA" stroke-width="1.47417"/>
<line x1="122.287" y1="290.483" x2="95.752" y2="290.483" stroke="#ABC2BA" stroke-width="1.47417"/>
<line x1="122.287" y1="284.586" x2="95.752" y2="284.586" stroke="#ABC2BA" stroke-width="1.47417"/>
<line x1="122.287" y1="277.215" x2="95.752" y2="277.215" stroke="#ABC2BA" stroke-width="1.47417"/>
<line x1="122.287" y1="271.319" x2="95.752" y2="271.319" stroke="#ABC2BA" stroke-width="1.47417"/>
<line x1="339.725" y1="361.98" x2="339.725" y2="388.515" stroke="#ABC2BA" stroke-width="1.47417"/>
<line x1="333.829" y1="361.98" x2="333.829" y2="388.515" stroke="#ABC2BA" stroke-width="1.47417"/>
<line x1="326.458" y1="361.98" x2="326.458" y2="388.515" stroke="#ABC2BA" stroke-width="1.47417"/>
<line x1="320.561" y1="361.98" x2="320.561" y2="388.515" stroke="#ABC2BA" stroke-width="1.47417"/>
<line x1="122.287" y1="259.525" x2="95.752" y2="259.525" stroke="#ABC2BA" stroke-width="1.47417"/>
<line x1="122.287" y1="253.628" x2="95.752" y2="253.628" stroke="#ABC2BA" stroke-width="1.47417"/>
<line x1="122.287" y1="246.257" x2="95.752" y2="246.257" stroke="#ABC2BA" stroke-width="1.47417"/>
<line x1="122.287" y1="240.361" x2="95.752" y2="240.361" stroke="#ABC2BA" stroke-width="1.47417"/>
<line x1="307.296" y1="361.98" x2="307.296" y2="388.515" stroke="#ABC2BA" stroke-width="1.47417"/>
<line x1="301.399" y1="361.98" x2="301.399" y2="388.515" stroke="#ABC2BA" stroke-width="1.47417"/>
<line x1="294.028" y1="361.98" x2="294.028" y2="388.515" stroke="#ABC2BA" stroke-width="1.47417"/>
<line x1="288.132" y1="361.98" x2="288.132" y2="388.515" stroke="#ABC2BA" stroke-width="1.47417"/>
<line x1="122.287" y1="228.567" x2="95.752" y2="228.567" stroke="#ABC2BA" stroke-width="1.47417"/>
<line x1="122.287" y1="222.671" x2="95.752" y2="222.671" stroke="#ABC2BA" stroke-width="1.47417"/>
<line x1="122.287" y1="215.3" x2="95.752" y2="215.3" stroke="#ABC2BA" stroke-width="1.47417"/>
<line x1="122.287" y1="209.403" x2="95.752" y2="209.403" stroke="#ABC2BA" stroke-width="1.47417"/>
<line x1="276.339" y1="361.98" x2="276.339" y2="388.515" stroke="#ABC2BA" stroke-width="1.47417"/>
<line x1="270.442" y1="361.98" x2="270.442" y2="388.515" stroke="#ABC2BA" stroke-width="1.47417"/>
<line x1="263.071" y1="361.98" x2="263.071" y2="388.515" stroke="#ABC2BA" stroke-width="1.47417"/>
<line x1="257.175" y1="361.98" x2="257.175" y2="388.515" stroke="#ABC2BA" stroke-width="1.47417"/>
<line x1="122.287" y1="197.61" x2="95.752" y2="197.61" stroke="#ABC2BA" stroke-width="1.47417"/>
<line x1="122.287" y1="191.714" x2="95.752" y2="191.714" stroke="#ABC2BA" stroke-width="1.47417"/>
<line x1="122.287" y1="184.343" x2="95.752" y2="184.343" stroke="#ABC2BA" stroke-width="1.47417"/>
<line x1="122.287" y1="178.446" x2="95.752" y2="178.446" stroke="#ABC2BA" stroke-width="1.47417"/>
<line x1="246.854" y1="361.98" x2="246.854" y2="388.515" stroke="#ABC2BA" stroke-width="1.47417"/>
<line x1="240.958" y1="361.98" x2="240.958" y2="388.515" stroke="#ABC2BA" stroke-width="1.47417"/>
<line x1="233.587" y1="361.98" x2="233.587" y2="388.515" stroke="#ABC2BA" stroke-width="1.47417"/>
<line x1="227.69" y1="361.98" x2="227.69" y2="388.515" stroke="#ABC2BA" stroke-width="1.47417"/>
<line x1="122.287" y1="168.126" x2="95.752" y2="168.126" stroke="#ABC2BA" stroke-width="1.47417"/>
<line x1="122.287" y1="162.23" x2="95.752" y2="162.23" stroke="#ABC2BA" stroke-width="1.47417"/>
<line x1="122.287" y1="154.859" x2="95.752" y2="154.859" stroke="#ABC2BA" stroke-width="1.47417"/>
<line x1="122.287" y1="148.962" x2="95.752" y2="148.962" stroke="#ABC2BA" stroke-width="1.47417"/>
<line x1="214.421" y1="361.98" x2="214.421" y2="388.515" stroke="#ABC2BA" stroke-width="1.47417"/>
<line x1="208.524" y1="361.98" x2="208.524" y2="388.515" stroke="#ABC2BA" stroke-width="1.47417"/>
<line x1="201.153" y1="361.98" x2="201.153" y2="388.515" stroke="#ABC2BA" stroke-width="1.47417"/>
<line x1="195.257" y1="361.98" x2="195.257" y2="388.515" stroke="#ABC2BA" stroke-width="1.47417"/>
<line x1="122.287" y1="137.169" x2="95.752" y2="137.169" stroke="#ABC2BA" stroke-width="1.47417"/>
<line x1="122.287" y1="131.272" x2="95.752" y2="131.272" stroke="#ABC2BA" stroke-width="1.47417"/>
<line x1="122.287" y1="123.901" x2="95.752" y2="123.901" stroke="#ABC2BA" stroke-width="1.47417"/>
<line x1="122.287" y1="118.005" x2="95.752" y2="118.005" stroke="#ABC2BA" stroke-width="1.47417"/>
<line x1="184.938" y1="361.98" x2="184.938" y2="388.515" stroke="#ABC2BA" stroke-width="1.47417"/>
<line x1="179.042" y1="361.98" x2="179.042" y2="388.515" stroke="#ABC2BA" stroke-width="1.47417"/>
<line x1="171.671" y1="361.98" x2="171.671" y2="388.515" stroke="#ABC2BA" stroke-width="1.47417"/>
<line x1="165.774" y1="361.98" x2="165.774" y2="388.515" stroke="#ABC2BA" stroke-width="1.47417"/>
<line x1="122.287" y1="106.211" x2="95.752" y2="106.211" stroke="#ABC2BA" stroke-width="1.47417"/>
<line x1="122.287" y1="100.315" x2="95.752" y2="100.315" stroke="#ABC2BA" stroke-width="1.47417"/>
<line x1="122.287" y1="92.9436" x2="95.752" y2="92.9436" stroke="#ABC2BA" stroke-width="1.47417"/>
<line x1="122.287" y1="87.0471" x2="95.752" y2="87.0471" stroke="#ABC2BA" stroke-width="1.47417"/>
<line x1="152.507" y1="361.98" x2="152.507" y2="388.515" stroke="#ABC2BA" stroke-width="1.47417"/>
<line x1="146.61" y1="361.98" x2="146.61" y2="388.515" stroke="#ABC2BA" stroke-width="1.47417"/>
<line x1="139.239" y1="361.98" x2="139.239" y2="388.515" stroke="#ABC2BA" stroke-width="1.47417"/>
<line x1="133.343" y1="361.98" x2="133.343" y2="388.515" stroke="#ABC2BA" stroke-width="1.47417"/>
<line x1="122.287" y1="297.853" x2="95.752" y2="297.853" stroke="#ABC2BA" stroke-width="1.47417"/>
<line x1="122.287" y1="143.065" x2="95.752" y2="143.065" stroke="#ABC2BA" stroke-width="1.47417"/>
<line x1="122.287" y1="81.1502" x2="95.752" y2="81.1502" stroke="#ABC2BA" stroke-width="1.47417"/>
<line x1="375.106" y1="345.763" x2="375.106" y2="391.463" stroke="#ABC2BA" stroke-width="1.47417"/>
<line x1="165.037" y1="328.074" x2="95.751" y2="328.074" stroke="#ABC2BA" stroke-width="2.94834"/>
<circle cx="97.9626" cy="389.252" r="12.5305" transform="rotate(180 97.9626 389.252)" stroke="#ABC2BA" stroke-width="5.89669"/>
<path d="M170.766 297.61C174.976 297.61 177.594 300.016 177.594 303.837C177.594 306.066 176.71 308.224 174.658 310.878L170.518 316.326C169.704 317.423 168.82 318.343 168.112 318.874L168.183 318.98C168.855 318.732 169.704 318.626 171.084 318.626H178.231L178.266 318.697L176.356 322.022H162.027L161.956 321.881L171.756 309.109C173.349 307.057 173.985 305.641 173.985 304.155C173.985 302.103 172.712 300.83 170.589 300.83C168.997 300.83 167.228 301.573 165.07 303.129L163.336 300.37C165.883 298.495 168.254 297.61 170.766 297.61Z" fill="#ABC2BA"/>
<path d="M189.7 253.916V269.129C189.7 269.518 189.7 269.766 189.629 269.943L189.7 270.014C189.841 269.943 189.912 269.908 190.372 269.908H193.804L192.742 273.198H190.372C189.912 273.198 189.841 273.163 189.7 273.092L189.629 273.163C189.7 273.304 189.7 273.587 189.7 273.976V277.797H186.338V273.976C186.338 273.587 186.338 273.304 186.374 273.163L186.338 273.092C186.197 273.163 186.091 273.198 185.666 273.198H175.052V270.261L186.621 253.916H189.7ZM186.374 258.586C186.162 259.223 185.879 260.072 184.64 261.841L180.041 268.351C179.439 269.2 179.086 269.695 178.555 270.12L178.626 270.191C179.156 269.978 179.758 269.908 180.748 269.908H185.666C186.055 269.908 186.162 269.943 186.303 270.014L186.374 269.943C186.303 269.766 186.303 269.518 186.303 269.129V261.169C186.303 259.824 186.374 259.294 186.515 258.621L186.374 258.586Z" fill="#ABC2BA"/>
<path d="M189.638 194.807L183.553 201.883C182.279 203.369 181.43 204.713 180.864 206.235L181.005 206.27C182.138 204.253 183.8 203.263 185.994 203.263C190.275 203.263 193.282 206.553 193.282 211.188C193.282 216 189.815 219.361 184.791 219.361C179.802 219.361 176.406 215.858 176.406 210.693C176.406 207.19 177.821 203.97 181.112 199.902L185.216 194.807H189.638ZM184.826 206.553C181.855 206.553 180.015 208.428 180.015 211.542C180.015 214.408 181.89 216.247 184.826 216.247C187.834 216.247 189.674 214.301 189.674 211.188C189.674 208.287 187.869 206.553 184.826 206.553Z" fill="#ABC2BA"/>
<path d="M185.146 154.497C190.24 154.497 193.283 151.879 193.283 147.528C193.283 144.167 191.443 141.796 188.365 141.23V141.088C190.913 140.558 192.611 138.364 192.611 135.64C192.611 131.96 189.639 129.555 185.146 129.555C180.652 129.555 177.681 131.96 177.681 135.64C177.681 138.364 179.379 140.558 181.926 141.088V141.23C178.848 141.796 177.008 144.167 177.008 147.528C177.008 151.879 180.051 154.497 185.146 154.497ZM185.146 139.532C182.811 139.532 181.289 138.187 181.289 136.064C181.289 133.977 182.811 132.668 185.146 132.668C187.481 132.668 189.002 133.977 189.002 136.064C189.002 138.187 187.481 139.532 185.146 139.532ZM185.146 151.384C182.351 151.384 180.652 149.792 180.652 147.174C180.652 144.52 182.386 142.893 185.146 142.893C187.905 142.893 189.639 144.52 189.639 147.174C189.639 149.792 187.941 151.384 185.146 151.384Z" fill="#ABC2BA"/>
<path d="M344.357 310.76C349.451 310.76 352.494 308.142 352.494 303.79C352.494 300.429 350.654 298.058 347.576 297.492V297.351C350.124 296.82 351.822 294.626 351.822 291.902C351.822 288.223 348.85 285.817 344.357 285.817C339.863 285.817 336.891 288.223 336.891 291.902C336.891 294.626 338.59 296.82 341.137 297.351V297.492C338.059 298.058 336.219 300.429 336.219 303.79C336.219 308.142 339.262 310.76 344.357 310.76ZM344.357 295.794C342.022 295.794 340.5 294.449 340.5 292.327C340.5 290.239 342.022 288.93 344.357 288.93C346.692 288.93 348.213 290.239 348.213 292.327C348.213 294.449 346.692 295.794 344.357 295.794ZM344.357 307.646C341.562 307.646 339.863 306.054 339.863 303.436C339.863 300.783 341.597 299.155 344.357 299.155C347.116 299.155 348.85 300.783 348.85 303.436C348.85 306.054 347.152 307.646 344.357 307.646Z" fill="#ABC2BA"/>
<path d="M384.656 286.347V310.229H381.188V295.192C381.188 293.564 381.224 293.175 381.471 292.114L381.365 292.043C381.082 292.503 380.728 292.786 380.056 293.14L377.049 294.767V291.3L381.436 288.222L382.037 286.347H384.656ZM393.774 284.932V297.845C393.774 299.19 393.703 300.251 393.491 301.065L393.597 301.1L399.895 293.883H404.423L398.656 299.968C397.807 300.888 397.418 301.136 397.064 301.313V301.454C397.418 301.631 397.772 301.879 398.55 302.622L405.343 310.229H400.744L393.597 301.914L393.491 301.985C393.703 302.763 393.774 303.789 393.774 305.134V310.229H390.307V284.932H393.774ZM407.651 310.229V293.883H411.119C411.119 295.05 410.977 296.324 410.729 297.386L410.871 297.456C411.826 294.626 413.489 293.352 416.213 293.352C418.831 293.352 420.494 294.697 421.096 297.279H421.237C421.909 294.803 423.891 293.352 426.58 293.352C429.976 293.352 431.887 295.581 431.887 299.544V310.229H428.419V300.676C428.419 297.916 427.393 296.643 425.129 296.643C422.652 296.643 421.45 298.412 421.45 302.02V310.229H418.088V300.676C418.088 297.916 417.062 296.643 414.798 296.643C412.321 296.643 411.119 298.412 411.119 302.02V310.229H407.651Z" fill="#ABC2BA"/>
<path d="M176.798 71.1184V95H173.331V79.9634C173.331 78.336 173.366 77.9468 173.614 76.8854L173.508 76.8146C173.225 77.2746 172.871 77.5576 172.199 77.9114L169.191 79.5389V76.0716L173.579 72.9936L174.18 71.1184H176.798ZM185.917 69.7032V82.617C185.917 83.9614 185.846 85.0228 185.634 85.8365L185.74 85.8719L192.037 78.6544H196.566L190.799 84.7398C189.95 85.6596 189.561 85.9073 189.207 86.0842V86.2257C189.561 86.4026 189.915 86.6503 190.693 87.3933L197.486 95H192.886L185.74 86.6857L185.634 86.7564C185.846 87.5348 185.917 88.5608 185.917 89.9053V95H182.449V69.7032H185.917ZM199.794 95V78.6544H203.261C203.261 79.8219 203.12 81.0956 202.872 82.157L203.013 82.2278C203.969 79.3974 205.632 78.1237 208.356 78.1237C210.974 78.1237 212.637 79.4681 213.238 82.0509H213.38C214.052 79.5743 216.033 78.1237 218.722 78.1237C222.119 78.1237 224.029 80.3526 224.029 84.3152V95H220.562V85.4474C220.562 82.6877 219.536 81.414 217.272 81.414C214.795 81.414 213.592 83.183 213.592 86.7918V95H210.231V85.4474C210.231 82.6877 209.205 81.414 206.941 81.414C204.464 81.414 203.261 83.183 203.261 86.7918V95H199.794Z" fill="#ABC2BA"/>
<path d="M286.933 286.206L280.848 293.282C279.574 294.768 278.725 296.112 278.159 297.634L278.3 297.669C279.432 295.652 281.095 294.662 283.289 294.662C287.57 294.662 290.577 297.952 290.577 302.587C290.577 307.399 287.11 310.76 282.086 310.76C277.097 310.76 273.701 307.257 273.701 302.092C273.701 298.589 275.116 295.369 278.406 291.301L282.511 286.206H286.933ZM282.121 297.952C279.149 297.952 277.31 299.827 277.31 302.941C277.31 305.806 279.185 307.646 282.121 307.646C285.129 307.646 286.968 305.7 286.968 302.587C286.968 299.686 285.164 297.952 282.121 297.952Z" fill="#ABC2BA"/>
<path d="M225.078 286.347V301.561C225.078 301.95 225.078 302.198 225.008 302.375L225.078 302.445C225.22 302.375 225.291 302.339 225.751 302.339H229.183L228.121 305.63H225.751C225.291 305.63 225.22 305.594 225.078 305.523L225.008 305.594C225.078 305.736 225.078 306.019 225.078 306.408V310.229H221.717V306.408C221.717 306.019 221.717 305.736 221.753 305.594L221.717 305.523C221.576 305.594 221.47 305.63 221.045 305.63H210.431V302.693L222 286.347H225.078ZM221.753 291.018C221.54 291.654 221.257 292.504 220.019 294.273L215.42 300.783C214.818 301.632 214.464 302.127 213.934 302.552L214.004 302.622C214.535 302.41 215.137 302.339 216.127 302.339H221.045C221.434 302.339 221.54 302.375 221.682 302.445L221.753 302.375C221.682 302.198 221.682 301.95 221.682 301.561V293.6C221.682 292.256 221.753 291.725 221.894 291.053L221.753 291.018Z" fill="#ABC2BA"/>
<line x1="443" y1="252.112" x2="227" y2="252.112" stroke="#ABC2BA" stroke-width="1.79253"/>
<line x1="253.89" y1="63" x2="253.89" y2="279" stroke="#ABC2BA" stroke-width="1.79253"/>
</svg>
